<svg xmlns="http://www.w3.org/2000/svg" width="91" height="91"><path d="M84.56 45.47A39.06 39.06 0 1 1 45.5 6.41a39.06 39.06 0 0 1 39.06 39.06z" fill="#fff"/><path d="M42.14 5.51A40.21 40.21 0 0 0 5.77 40.22a52.53 52.53 0 0 0 0 10.49 40.09 40.09 0 0 0 79.47-.11 51.83 51.83 0 0 0 0-10.42A40.22 40.22 0 0 0 51.12 5.81a70.8 70.8 0 0 0-8.98-.3zM51 7.61a38.24 38.24 0 0 1-1.43 75.85 54.23 54.23 0 0 1-8.26 0 43.08 43.08 0 0 1-6.83-1.39A38.24 38.24 0 0 1 7.77 39a36 36 0 0 1 3.43-10.46A38 38 0 0 1 33.48 9.2a39.35 39.35 0 0 1 9.37-1.88 54.67 54.67 0 0 1 8.15.29z" fill="#d84800"/><path d="M43 11.27a34.37 34.37 0 0 0-30 23.38 35.28 35.28 0 0 0-.85 18.46 34.46 34.46 0 0 0 24.43 25.42 28.6 28.6 0 0 0 8.92 1.07 28.31 28.31 0 0 0 8.92-1.07 34.29 34.29 0 0 0 25.11-28.9 46.55 46.55 0 0 0-.19-9.63A34.46 34.46 0 0 0 43 11.27zm12 7.16a11.94 11.94 0 0 1 8.87 7.84 8.54 8.54 0 0 1 .52 3.24 9.38 9.38 0 0 1-.25 3.21 11.86 11.86 0 0 1-6.82 8.06 6.05 6.05 0 0 1-2 .6s.22-.51.49-1.05a14.19 14.19 0 0 0-6.11-19.09 12.88 12.88 0 0 0-2-.84l-1-.33c-.29-.1 1.12-.86 2.58-1.23a11.89 11.89 0 0 1 5.72-.41zm-8.88 4.16A11.84 11.84 0 0 1 54.73 32a14.43 14.43 0 0 1-.28 5.36A11.63 11.63 0 0 1 48 44.7a10.43 10.43 0 0 1-4.92 1A11.54 11.54 0 0 1 32 37.51a8 8 0 0 1-.45-3.39 9 9 0 0 1 .32-3.22 12 12 0 0 1 9.44-8.54 16.72 16.72 0 0 1 4.8.23zm18.22 20.05c4.38 1.38 7 4.74 8.23 10.35a32.7 32.7 0 0 1 .55 6c-.09.2-.44.23-2.65.23a18.69 18.69 0 0 1-2.59-.09 32.09 32.09 0 0 0-.88-4.55c-1.46-4.93-4.61-8.62-8.29-9.64-.34-.1-.62-.24-.62-.31a8.87 8.87 0 0 1 1-1.31l1-1.23 1.55.09a10.59 10.59 0 0 1 2.7.46zM39.49 50l3.77 3.7 1.34-1.3c.75-.71 2.67-2.57 4.3-4.17l2.88-2.85 1.09.14a14.29 14.29 0 0 1 8 3.69 15.09 15.09 0 0 1 4.5 9.22 39.55 39.55 0 0 1 .13 6.62l-.09.44H43.25c-15.68 0-22.16 0-22.25-.16a29.38 29.38 0 0 1-.09-5.93c.86-8.18 5.32-13.07 12.64-13.86 1.4-.07.79-.56 5.94 4.53z" fill="#d84800"/></svg>