<svg xmlns="http://www.w3.org/2000/svg" width="91" height="91"><circle cx="45.5" cy="45.5" r="40" fill="#e6ac21"/><path d="M51.51 17.37a11.91 11.91 0 0 1 8.05 7.05 6 6 0 0 1 0 2.36l-4.23-.56c-.2 1.68-1.52 1.44-2.69 1.47-.8 0-1.68-.2-1.88 1 0 .19-.69.37-1.07.4-.84.07-1.65-.06-2.29.79a2.46 2.46 0 0 1-1.6.56c-1 .07-1.28.55-1.25 1.42a41.7 41.7 0 0 1 4.85-1.16 32.67 32.67 0 0 1 5.68-.19 8.09 8.09 0 0 1 2.76.87c2.54 1.12 3.61 3.06 3.75 5.89.2 4.31-1.54 7.7-4.38 10.71-1 1.05-1.67.94-2.23-.42a13.34 13.34 0 0 1-.5-2.42c-2.5.63-3-1.17-3.31-2.7-.8-.1-1.42-.15-2-.26a1.41 1.41 0 0 1-1.26-1.53c0-.62 0-1.43-1.31-1.06a23.78 23.78 0 0 0 .62 3A59.52 59.52 0 0 1 49.9 58.8c.06 1.64-.23 2-1.81 2.5a6.62 6.62 0 0 1-4.24.2c-1-.36-1.64-.93-1.47-2.15a71.63 71.63 0 0 0 1-8.13 42.2 42.2 0 0 0-.58-8.47c-.25-1.45-1.43-2.73-2.19-4.09l-.61.24c.12.4.2.8.35 1.18l1.74 4.34c-1.21.51-1.87 1.53-3.19 1.31a2 2 0 0 0-.47 1.08c0 .67 0 1.25-.94 1.25-.25 0-.62.42-.71.71-.46 1.41-1.11 2.55-2.78 2.79-.83.13-1.16.79-1.32 1.59-.06.32-.43.57-.62.85a3 3 0 0 1-.74-.63c-3.13-5-3-13.75 2.17-17.91a5 5 0 0 0 .79-1.14L33.9 34l-2.46 1.55-.62-1.16-2.73 1.88c-1.2-1-1.25-1-2.23.13-.4.48-.79 1-1.19 1.44-1.25 1.48-1.77 1.49-3.16-.11-.94 1.22-1.82 2.43-2.78 3.57a6.07 6.07 0 0 1-1.36.93v-6.1a22 22 0 0 1 5-7.76 9.25 9.25 0 0 1 7.24-2.78c2.9.12 5.42.8 7.41 3 .62.66 1.25 1.28 1.88 1.87a7.37 7.37 0 0 0 1 .62 4.87 4.87 0 0 0 .28-.84c.33-3.08 2-5.62 3.53-8.16a10.78 10.78 0 0 1 7.8-4.71z" fill="#fff"/><path d="M41.31 53.38c-.29 2.31-.49 4.2-.76 6.08-.47 3.3.62 4.27 4.38 4.6a11.55 11.55 0 0 0 4.37-.9 2.81 2.81 0 0 0 2-3.2c-.18-2.24-.29-4.49-.45-6.94 1.36 0 2.64-.06 3.9 0 5.74.33 11.43 1 16.79 3.18a18.32 18.32 0 0 1 4.23 2.42c2.3 1.82 2.41 4 .29 6a17.61 17.61 0 0 1-3.88 2.75C67.28 70 61.91 71.21 56.44 72a72.22 72.22 0 0 1-25.81-.45 37.78 37.78 0 0 1-9.12-3.16c-4.71-2.37-4.79-5.59-.45-8.65a32.26 32.26 0 0 1 11.39-4.64c2.83-.64 5.71-1.1 8.86-1.72z" fill="#fff"/></svg>