<svg xmlns="http://www.w3.org/2000/svg" xmlns:xlink="http://www.w3.org/1999/xlink" width="91" height="91"><defs><linearGradient id="a" x1="45.43" y1="39.42" x2="45.43" y2="29" gradientTransform="matrix(-1 0 0 1 90.78 35.91)" gradientUnits="userSpaceOnUse"><stop offset="0" stop-color="#fff"/><stop offset=".01" stop-color="#f7f7f7"/><stop offset=".04" stop-color="#d3d3d3"/><stop offset=".07" stop-color="#b3b3b3"/><stop offset=".11" stop-color="#979797"/><stop offset=".15" stop-color="#818181"/><stop offset=".2" stop-color="#707070"/><stop offset=".26" stop-color="#656565"/><stop offset=".35" stop-color="#5e5e5e"/><stop offset=".59" stop-color="#5c5c5c"/></linearGradient><linearGradient id="b" x1="45.32" y1="77.79" x2="45.32" y2="75.45" gradientTransform="matrix(1 0 0 -1 0 91)" gradientUnits="userSpaceOnUse"><stop offset="0" stop-color="#6b6b6b"/><stop offset=".19" stop-color="#676767"/><stop offset=".38" stop-color="#5b5b5b"/><stop offset=".58" stop-color="#464646"/><stop offset=".78" stop-color="#292929"/><stop offset=".98" stop-color="#050505"/><stop offset="1"/></linearGradient><linearGradient id="c" x1="45.46" y1="77.96" x2="45.46" y2="13.04" gradientTransform="matrix(1 0 0 -1 0 91)" gradientUnits="userSpaceOnUse"><stop offset="0" stop-color="#7a7a7a"/><stop offset="1"/></linearGradient><linearGradient id="d" x1="45.46" y1="75.53" x2="45.46" y2="47.83" gradientTransform="matrix(1 0 0 -1 0 91)" gradientUnits="userSpaceOnUse"><stop offset="0" stop-color="#fff"/><stop offset=".22" stop-color="#fcfcfc"/><stop offset=".35" stop-color="#f4f4f4"/><stop offset=".47" stop-color="#e5e5e5"/><stop offset=".57" stop-color="#d1d1d1"/><stop offset=".66" stop-color="#b6b6b6"/><stop offset=".75" stop-color="#959595"/><stop offset=".83" stop-color="#6e6e6e"/><stop offset=".91" stop-color="#414141"/><stop offset=".98" stop-color="#0f0f0f"/><stop offset="1"/></linearGradient><linearGradient id="e" x1="45.46" y1="75.54" x2="45.46" y2="65.11" gradientTransform="matrix(1 0 0 -1 0 91)" xlink:href="#a"/><linearGradient id="f" x1="45.46" y1="76.4" x2="45.46" y2="14.6" gradientTransform="matrix(1 0 0 -1 0 91)" gradientUnits="userSpaceOnUse"><stop offset="0" stop-color="#0d0d0d"/><stop offset=".28" stop-color="#666"/><stop offset=".31"/><stop offset=".62" stop-color="#404040"/><stop offset=".94" stop-color="#383838"/><stop offset="1"/></linearGradient></defs><path d="M67.28 73H23.42a8.05 8.05 0 0 1-8.05-8v2.3a8 8 0 0 0 8.05 8h43.86a8 8 0 0 0 8-8v-2.39a8 8 0 0 1-8 8z" style="isolation:isolate" opacity=".15" fill="url(#a)"/><path d="M68.52 13.21H22.19a9 9 0 0 0-4.5 1.18 1.9 1.9 0 0 1 1.9 1.16 8.73 8.73 0 0 1 3.49-.73h44.55a8.73 8.73 0 0 1 3.49.73c-.21-.52.63-1.35 1.83-1.28a10.4 10.4 0 0 0-4.43-1.06z" fill="url(#b)" opacity=".6"/><path d="M69.2 13H21.71A8.71 8.71 0 0 0 13 21.75v47.49A8.73 8.73 0 0 0 21.71 78H69.2a8.71 8.71 0 0 0 8.71-8.71V21.76A8.71 8.71 0 0 0 69.2 13z" fill="url(#c)"/><path d="M69 13.31H21.91A8.64 8.64 0 0 0 13.27 22v47a8.64 8.64 0 0 0 8.64 8.65H69a8.64 8.64 0 0 0 8.64-8.64V22A8.64 8.64 0 0 0 69 13.31z" fill="#010101"/><path d="M75.17 67.85a8 8 0 0 1-8 8H23.79a8 8 0 0 1-8-8V24.43a8 8 0 0 1 8-8H67.2a8 8 0 0 1 8 8z" fill="#010101"/><path d="M75 67.82a7.93 7.93 0 0 1-7.93 7.91H23.89A7.93 7.93 0 0 1 16 67.82v-43.1a7.92 7.92 0 0 1 7.93-7.9H67.1a7.92 7.92 0 0 1 7.9 7.9z" fill="#020202"/><path d="M74.89 67.79A7.87 7.87 0 0 1 67 75.64H24a7.87 7.87 0 0 1-7.89-7.85V25A7.86 7.86 0 0 1 24 17.18h43A7.87 7.87 0 0 1 74.89 25z" fill="#030303"/><path d="M74.74 67.77a7.82 7.82 0 0 1-7.85 7.79H24.1a7.82 7.82 0 0 1-7.85-7.79V25.31a7.82 7.82 0 0 1 7.85-7.78h42.79a7.81 7.81 0 0 1 7.85 7.78z" fill="#040404"/><path d="M74.6 67.74a7.77 7.77 0 0 1-7.81 7.73H24.2a7.77 7.77 0 0 1-7.81-7.73V25.61a7.77 7.77 0 0 1 7.82-7.73h42.58a7.77 7.77 0 0 1 7.81 7.73z" fill="#050505"/><path d="M74.46 67.71a7.72 7.72 0 0 1-7.78 7.67H24.31a7.72 7.72 0 0 1-7.78-7.67v-41.8a7.73 7.73 0 0 1 7.78-7.67h42.37a7.72 7.72 0 0 1 7.78 7.67z" fill="#060606"/><path d="M74.32 67.68a7.68 7.68 0 0 1-7.74 7.62H24.41a7.68 7.68 0 0 1-7.74-7.62V26.2a7.68 7.68 0 0 1 7.74-7.61h42.17a7.68 7.68 0 0 1 7.74 7.61z" fill="#070707"/><path d="M74.17 67.66a7.63 7.63 0 0 1-7.7 7.55H24.52a7.62 7.62 0 0 1-7.7-7.55V26.5a7.63 7.63 0 0 1 7.7-7.56h42a7.63 7.63 0 0 1 7.7 7.56z" fill="#080808"/><path d="M74 67.63a7.57 7.57 0 0 1-7.66 7.49H24.62A7.57 7.57 0 0 1 17 67.63V26.79a7.58 7.58 0 0 1 7.66-7.49h41.71A7.58 7.58 0 0 1 74 26.79z" fill="#090909"/><path d="M73.89 67.6a7.53 7.53 0 0 1-7.63 7.4H24.73a7.54 7.54 0 0 1-7.63-7.4V27.08a7.52 7.52 0 0 1 7.63-7.43h41.53a7.54 7.54 0 0 1 7.63 7.43z" fill="#0a0a0a"/><path d="M73.74 67.58A7.48 7.48 0 0 1 66.16 75H24.83a7.48 7.48 0 0 1-7.58-7.37V27.38A7.48 7.48 0 0 1 24.83 20h41.33a7.48 7.48 0 0 1 7.58 7.37z" fill="#0b0b0b"/><path d="M73.6 67.55a7.44 7.44 0 0 1-7.55 7.32H24.93a7.44 7.44 0 0 1-7.54-7.32V27.68a7.44 7.44 0 0 1 7.54-7.32h41.12a7.44 7.44 0 0 1 7.55 7.32z" fill="#0c0c0c"/><path d="M73.46 67.52A7.39 7.39 0 0 1 66 74.78H25a7.39 7.39 0 0 1-7.51-7.26V28A7.39 7.39 0 0 1 25 20.72h41A7.39 7.39 0 0 1 73.46 28z" fill="#0c0d0d"/><path d="M73.32 67.5a7.34 7.34 0 0 1-7.47 7.19H25.14a7.34 7.34 0 0 1-7.47-7.19V28.27a7.34 7.34 0 0 1 7.47-7.19h40.71a7.34 7.34 0 0 1 7.47 7.19z" fill="#0d0e0e"/><path d="M73.17 67.47a7.28 7.28 0 0 1-7.43 7.14H25.25a7.29 7.29 0 0 1-7.43-7.14v-38.9a7.29 7.29 0 0 1 7.43-7.14h40.49a7.29 7.29 0 0 1 7.43 7.14z" fill="#0e0f0f"/><path d="M73 67.44a7.24 7.24 0 0 1-7.39 7.08H25.36A7.24 7.24 0 0 1 18 67.44V28.86a7.24 7.24 0 0 1 7.4-7.07h40.24A7.23 7.23 0 0 1 73 28.86z" fill="#0f1010"/><path d="M72.89 67.42a7.2 7.2 0 0 1-7.36 7H25.46a7.2 7.2 0 0 1-7.36-7V29.15a7.19 7.19 0 0 1 7.36-7h40.07a7.19 7.19 0 0 1 7.36 7z" fill="#101110"/><path d="M72.74 67.39a7.14 7.14 0 0 1-7.32 7H25.56a7.14 7.14 0 0 1-7.32-7V29.45a7.15 7.15 0 0 1 7.32-7h39.86a7.14 7.14 0 0 1 7.32 7z" fill="#101111"/><path d="M72.6 67.36a7.09 7.09 0 0 1-7.27 6.9H25.67a7.09 7.09 0 0 1-7.27-6.9V29.75a7.09 7.09 0 0 1 7.27-6.9h39.66a7.09 7.09 0 0 1 7.27 6.9z" fill="#111212"/><path d="M72.46 67.33a7.05 7.05 0 0 1-7.24 6.85H25.77a7.05 7.05 0 0 1-7.24-6.85V30.05a7 7 0 0 1 7.24-6.84h39.45a7 7 0 0 1 7.24 6.84z" fill="#121313"/><path d="M72.32 67.31a7 7 0 0 1-7.2 6.79H25.87a7 7 0 0 1-7.2-6.79v-37a7 7 0 0 1 7.2-6.78h39.25a7 7 0 0 1 7.2 6.78z" fill="#131413"/><path d="M72.17 67.28A7 7 0 0 1 65 74H26a7 7 0 0 1-7.16-6.73V30.64A7 7 0 0 1 26 23.91h39a7 7 0 0 1 7.16 6.73z" fill="#131414"/><path d="M72 67.25a6.9 6.9 0 0 1-7.12 6.67h-38.8A6.91 6.91 0 0 1 19 67.25V30.93a6.9 6.9 0 0 1 7.12-6.66h38.79A6.9 6.9 0 0 1 72 30.93z" fill="#141515"/><path d="M71.89 67.23a6.86 6.86 0 0 1-7.09 6.61H26.19a6.87 6.87 0 0 1-7.09-6.61v-36a6.85 6.85 0 0 1 7.09-6.6H64.8a6.86 6.86 0 0 1 7.09 6.6z" fill="#151616"/><path d="M71.75 67.2a6.81 6.81 0 0 1-7 6.55H26.29a6.81 6.81 0 0 1-7-6.55V31.52a6.81 6.81 0 0 1 7-6.52H64.7a6.81 6.81 0 0 1 7 6.54z" fill="#151616"/><path d="M71.6 67.17a6.76 6.76 0 0 1-7 6.49H26.4a6.76 6.76 0 0 1-7-6.49V31.82a6.77 6.77 0 0 1 7-6.49h38.19a6.77 6.77 0 0 1 7 6.49z" fill="#161717"/><path d="M71.46 67.15a6.71 6.71 0 0 1-7 6.42h-38a6.72 6.72 0 0 1-7-6.42v-35a6.72 6.72 0 0 1 7-6.43h38a6.71 6.71 0 0 1 7 6.43z" fill="#171818"/><path d="M71.32 67.12a6.67 6.67 0 0 1-6.93 6.37H26.61a6.66 6.66 0 0 1-6.93-6.37V32.41A6.66 6.66 0 0 1 26.61 26h37.77a6.67 6.67 0 0 1 6.94 6.37z" fill="#171818"/><path d="M71.18 67.09c0 3.49-3.09 6.32-6.9 6.32H26.71c-3.81 0-6.9-2.83-6.9-6.32V32.7c0-3.48 3.09-6.3 6.9-6.3h37.57c3.81 0 6.89 2.82 6.89 6.3z" fill="#181919"/><path d="M71 67.07c0 3.45-3.07 6.25-6.86 6.25H26.82c-3.82 0-6.82-2.8-6.82-6.25V33c0-3.46 3.07-6.26 6.86-6.26h37.32C68 26.75 71 29.55 71 33z" fill="#181a19"/><path d="M70.89 67c0 3.42-3 6.19-6.82 6.19H26.92c-3.76 0-6.81-2.77-6.81-6.19V33.29c0-3.41 3-6.18 6.81-6.18h37.16c3.76 0 6.82 2.76 6.82 6.18z" fill="#191a1a"/><path d="M70.75 67c0 3.39-3 6.13-6.78 6.13H27c-3.74 0-6.78-2.74-6.78-6.13V33.59c0-3.38 3-6.13 6.78-6.13h37c3.74 0 6.78 2.75 6.78 6.13z" fill="#1a1b1b"/><path d="M70.61 67c0 3.36-3 6.08-6.75 6.08H27.13c-3.73 0-6.74-2.72-6.74-6.08V33.89c0-3.36 3-6.08 6.74-6.08h36.73c3.73 0 6.75 2.72 6.75 6.08z" fill="#1a1b1b"/><path d="M70.46 67c0 3.32-3 6-6.7 6H27.23c-3.7 0-6.7-2.69-6.7-6V34.18c0-3.32 3-6 6.7-6h36.53c3.7 0 6.7 2.69 6.7 6z" fill="#1b1c1c"/><path d="M70.32 66.93c0 3.29-3 6-6.67 6H27.34c-3.69 0-6.67-2.67-6.67-6V34.48c0-3.29 3-5.95 6.67-5.95h36.31c3.69 0 6.67 2.66 6.67 5.95z" fill="#1c1d1c"/><path d="M70.18 66.9c0 3.26-3 5.9-6.63 5.9H27.44c-3.66 0-6.63-2.64-6.63-5.9V34.78c0-3.25 3-5.89 6.63-5.89h36.11c3.66 0 6.63 2.64 6.63 5.89z" fill="#1c1d1d"/><path d="M70 66.88c0 3.22-2.94 5.84-6.58 5.84H27.55c-3.64 0-6.59-2.62-6.59-5.84V35.07c0-3.22 2.95-5.83 6.59-5.83h35.9c3.64 0 6.59 2.61 6.59 5.83z" fill="#1d1e1e"/><path d="M69.89 66.85c0 3.18-2.93 5.77-6.55 5.77H27.65c-3.65 0-6.55-2.62-6.55-5.77V35.37c0-3.19 2.93-5.78 6.55-5.78h35.69c3.62 0 6.55 2.59 6.55 5.78z" fill="#1d1e1e"/><path d="M69.75 66.82c0 3.16-2.92 5.72-6.51 5.72H27.75c-3.59 0-6.51-2.56-6.51-5.72V35.66c0-3.16 2.91-5.71 6.51-5.71h35.49c3.59 0 6.51 2.55 6.51 5.71z" fill="#1e1f1f"/><path d="M69.61 66.8c0 3.12-2.9 5.66-6.48 5.66H27.85c-3.57 0-6.47-2.54-6.47-5.66V36c0-3.13 2.9-5.66 6.47-5.66h35.28c3.58 0 6.48 2.53 6.48 5.66z" fill="#1e1f1f"/><path d="M69.46 66.77c0 3.09-2.88 5.6-6.43 5.6H28c-3.55 0-6.43-2.51-6.43-5.6V36.26c0-3.1 2.88-5.6 6.43-5.6h35c3.55 0 6.43 2.5 6.43 5.6z" fill="#1f2020"/><path d="M69.32 66.74c0 3.06-2.86 5.55-6.4 5.55H28.06c-3.53 0-6.39-2.49-6.39-5.55V36.55c0-3.06 2.86-5.54 6.39-5.54h34.86c3.54 0 6.4 2.48 6.4 5.54z" fill="#202120"/><path d="M69.18 66.71c0 3-2.85 5.49-6.36 5.49H28.17c-3.51 0-6.35-2.46-6.35-5.49V36.84c0-3 2.84-5.48 6.35-5.48h34.65c3.51 0 6.36 2.46 6.36 5.48z" fill="#202121"/><path d="M69 66.69c0 3-2.83 5.42-6.33 5.42H28.28c-3.5 0-6.32-2.42-6.32-5.42V37.14c0-3 2.82-5.42 6.32-5.42h34.43c3.5 0 6.33 2.42 6.33 5.42z" fill="#212221"/><path d="M68.89 66.66c0 3-2.81 5.36-6.28 5.36H28.38c-3.46 0-6.28-2.4-6.28-5.36V37.44c0-3 2.81-5.36 6.28-5.36h34.24c3.46 0 6.28 2.4 6.28 5.36z" fill="#212222"/><path d="M68.75 66.63c0 2.93-2.8 5.31-6.24 5.31h-34c-3.45 0-6.24-2.38-6.24-5.31v-28.9c0-2.93 2.8-5.3 6.25-5.3h34c3.45 0 6.24 2.37 6.24 5.3z" fill="#222323"/><path d="M68.61 66.61c0 2.89-2.78 5.24-6.2 5.24H28.59c-3.43 0-6.21-2.35-6.21-5.24V38c0-2.9 2.78-5.25 6.21-5.25H62.4c3.43 0 6.21 2.35 6.21 5.25z" fill="#222323"/><path d="M68.47 66.58c0 2.87-2.77 5.19-6.17 5.19H28.69c-3.4 0-6.16-2.32-6.16-5.19V38.32c0-2.86 2.76-5.18 6.16-5.18H62.3c3.4 0 6.16 2.32 6.16 5.18z" fill="#232424"/><path d="M68.32 66.55c0 2.84-2.74 5.13-6.13 5.13H28.8c-3.39 0-6.13-2.29-6.13-5.13V38.62c0-2.83 2.74-5.13 6.13-5.13h33.39c3.39 0 6.13 2.3 6.13 5.13z" fill="#232424"/><path d="M68.18 66.53c0 2.8-2.73 5.07-6.09 5.07H28.9c-3.36 0-6.09-2.27-6.09-5.07V38.91c0-2.79 2.73-5.06 6.09-5.06h33.19c3.36 0 6.09 2.27 6.09 5.06z" fill="#242525"/><path d="M68 66.5c0 2.77-2.71 5-6.06 5H29c-3.35 0-6.06-2.24-6.06-5V39.21c0-2.77 2.71-5 6.06-5h33c3.35 0 6.06 2.23 6.06 5z" fill="#242525"/><path d="M67.89 66.47c0 2.74-2.69 5-6 5H29.11c-3.32 0-6-2.22-6-5v-27c0-2.74 2.69-4.95 6-4.95h32.77c3.32 0 6 2.21 6 4.95z" fill="#252626"/><path d="M67.75 66.44c0 2.71-2.68 4.89-6 4.89H29.21c-3.3 0-6-2.18-6-4.89V39.8c0-2.7 2.67-4.89 6-4.89h32.57c3.3 0 6 2.19 6 4.89z" fill="#252626"/><path d="M67.61 66.42c0 2.67-2.66 4.83-5.94 4.83H29.32c-3.28 0-5.94-2.17-5.94-4.83V40.1c0-2.67 2.66-4.83 5.94-4.83h32.35c3.28 0 5.93 2.16 5.93 4.83z" fill="#262727"/><path d="M67.47 66.39c0 2.64-2.65 4.77-5.9 4.77H29.42c-3.25 0-5.89-2.13-5.89-4.77v-26c0-2.63 2.64-4.77 5.89-4.77h32.15c3.25 0 5.9 2.14 5.9 4.77z" fill="#262727"/><path d="M67.32 66.37c0 2.6-2.62 4.71-5.86 4.71H29.53c-3.24 0-5.86-2.11-5.86-4.71V40.69c0-2.6 2.62-4.71 5.86-4.71h31.93c3.24 0 5.86 2.1 5.86 4.71z" fill="#272828"/><path d="M67.18 66.34c0 2.57-2.61 4.65-5.82 4.65H29.63c-3.21 0-5.82-2.08-5.82-4.65V41c0-2.57 2.61-4.65 5.82-4.65h31.73c3.21 0 5.82 2.08 5.82 4.65z" fill="#272828"/><path d="M67 66.31c0 2.54-2.59 4.6-5.79 4.6H29.74c-3.2 0-5.79-2.06-5.79-4.6v-25c0-2.54 2.59-4.59 5.79-4.59h31.51c3.2 0 5.79 2.05 5.79 4.59z" fill="#282928"/><path d="M66.9 66.28c0 2.51-2.58 4.54-5.75 4.54H29.84c-3.18 0-5.75-2-5.75-4.54V41.57c0-2.5 2.58-4.53 5.75-4.53h31.31c3.17 0 5.75 2 5.75 4.53z" fill="#282929"/><path d="M66.76 66.26c0 2.47-2.56 4.48-5.71 4.48H29.94c-3.15 0-5.7-2-5.7-4.48V41.87c0-2.47 2.55-4.47 5.7-4.47h31.11c3.15 0 5.7 2 5.7 4.47z" fill="#292a29"/><path d="M66.61 66.23c0 2.44-2.54 4.41-5.67 4.41H30.05c-3.13 0-5.67-2-5.67-4.41V42.16c0-2.43 2.54-4.41 5.67-4.41h30.89c3.13 0 5.67 2 5.67 4.41z" fill="#292a2a"/><path d="M66.47 66.2c0 2.41-2.52 4.36-5.63 4.36H30.15c-3.11 0-5.62-2-5.62-4.36V42.47c0-2.41 2.52-4.36 5.62-4.36h30.69c3.11 0 5.63 2 5.63 4.36z" fill="#2a2b2a"/><path d="M66.33 66.18c0 2.37-2.51 4.29-5.6 4.29H30.25c-3.08 0-5.59-1.92-5.59-4.29V42.76c0-2.38 2.5-4.3 5.59-4.3h30.48c3.09 0 5.6 1.92 5.6 4.3z" fill="#2a2b2b"/><path d="M66.18 66.15c0 2.34-2.49 4.24-5.55 4.24H30.36c-3.07 0-5.55-1.9-5.55-4.24v-23.1c0-2.34 2.48-4.24 5.55-4.24h30.27c3.07 0 5.56 1.9 5.56 4.24z" fill="#2b2b2b"/><path d="M66 66.12c0 2.31-2.47 4.18-5.51 4.18H30.47c-3 0-5.52-1.87-5.52-4.18V43.35c0-2.31 2.47-4.18 5.52-4.18h30.05c3 0 5.52 1.87 5.52 4.18z" fill="#2b2c2c"/><path d="M65.9 66.1c0 2.27-2.46 4.12-5.48 4.12H30.57c-3 0-5.47-1.85-5.47-4.12V43.65c0-2.28 2.45-4.12 5.47-4.12h29.85c3 0 5.47 1.84 5.47 4.12z" fill="#2b2c2c"/><path d="M65.75 66.07c0 2.24-2.43 4.06-5.44 4.06H30.67c-3 0-5.43-1.82-5.43-4.06V43.94c0-2.24 2.43-4.06 5.43-4.06h29.64c3 0 5.44 1.82 5.44 4.06z" fill="#2c2d2d"/><path d="M65.61 66c0 2.21-2.42 4-5.4 4H30.78c-3 0-5.4-1.8-5.4-4V44.23c0-2.21 2.42-4 5.4-4h29.43c3 0 5.4 1.79 5.4 4z" fill="#2c2d2d"/><path d="M65.47 66c0 2.17-2.4 3.94-5.36 3.94H30.88c-3 0-5.36-1.77-5.36-3.94V44.53c0-2.18 2.4-3.94 5.36-3.94h29.23c3 0 5.36 1.76 5.36 3.94z" fill="#2d2e2e"/><path d="M65.33 66c0 2.15-2.38 3.88-5.33 3.88H31c-2.94 0-5.33-1.74-5.33-3.88V44.83C25.66 42.68 28.05 41 31 41h29c2.94 0 5.33 1.74 5.33 3.88z" fill="#2d2e2e"/><path d="M65.18 66c0 2.11-2.36 3.83-5.28 3.83H31.09c-2.92 0-5.28-1.72-5.28-3.83V45.12c0-2.11 2.36-3.82 5.28-3.82H59.9c2.92 0 5.28 1.71 5.28 3.82z" fill="#2e2f2f"/><path d="M65 65.93c0 2.08-2.35 3.77-5.25 3.77H31.2c-2.9 0-5.2-1.7-5.2-3.77V45.42c0-2.08 2.35-3.77 5.25-3.77h28.54c2.9 0 5.25 1.69 5.25 3.77z" fill="#2e2f2f"/><path d="M64.9 65.91c0 2-2.33 3.7-5.21 3.7H31.3c-2.88 0-5.21-1.66-5.21-3.7v-20.2c0-2 2.33-3.7 5.21-3.7h28.39c2.88 0 5.21 1.66 5.21 3.7z" fill="#2f302f"/><path d="M64.76 65.88c0 2-2.32 3.65-5.18 3.65H31.41c-2.86 0-5.17-1.64-5.17-3.65V46c0-2 2.31-3.65 5.17-3.65h28.17c2.86 0 5.18 1.63 5.18 3.65z" fill="#2f3030"/><path d="M64.61 65.85c0 2-2.29 3.59-5.13 3.59h-28c-2.84 0-5.13-1.61-5.13-3.59V46.3c0-2 2.3-3.58 5.13-3.58h28c2.83 0 5.13 1.61 5.13 3.58z" fill="#303130"/><path d="M64.47 65.83c0 2-2.28 3.53-5.09 3.53H31.61c-2.81 0-5.09-1.59-5.09-3.53V46.6c0-2 2.28-3.53 5.09-3.53h27.76c2.82 0 5.1 1.58 5.1 3.53z" fill="#303131"/><path d="M64.33 65.8c0 1.92-2.27 3.47-5.06 3.47H31.72c-2.79 0-5.06-1.56-5.06-3.47V46.89c0-1.91 2.27-3.46 5.06-3.46h27.55c2.79 0 5.06 1.55 5.06 3.46z" fill="#313131"/><path d="M64.19 65.77c0 1.89-2.25 3.42-5 3.42H31.82c-2.77 0-5-1.53-5-3.42V47.19c0-1.88 2.24-3.41 5-3.41h27.35c2.76 0 5 1.52 5 3.41z" fill="#313232"/><path d="M64 65.75c0 1.85-2.23 3.35-5 3.35H31.92c-2.75 0-5-1.5-5-3.35V47.49c0-1.85 2.23-3.35 5-3.35h27.14c2.75 0 5 1.5 5 3.35z" fill="#323232"/><path d="M63.9 65.72c0 1.82-2.21 3.28-4.9 3.28H32c-2.73 0-4.94-1.47-4.94-3.29V47.78c0-1.82 2.21-3.29 4.94-3.29h27c2.73 0 4.94 1.47 4.94 3.29z" fill="#323333"/><path d="M63.76 65.69c0 1.79-2.2 3.23-4.91 3.23H32.14c-2.71 0-4.9-1.44-4.9-3.23V48.08c0-1.79 2.19-3.24 4.9-3.24h26.71c2.71 0 4.91 1.45 4.91 3.24z" fill="#333"/><path d="M63.61 65.66c0 1.76-2.17 3.18-4.86 3.18H32.24c-2.69 0-4.86-1.42-4.86-3.18V48.37c0-1.75 2.17-3.17 4.86-3.17h26.51c2.69 0 4.86 1.42 4.86 3.17z" fill="#333434"/><path d="M63.47 65.64c0 1.72-2.16 3.12-4.83 3.12h-26.3c-2.66 0-4.82-1.4-4.82-3.12v-17c0-1.72 2.16-3.12 4.82-3.12h26.3c2.67 0 4.83 1.4 4.83 3.12z" fill="#333434"/><path d="M63.33 65.61c0 1.69-2.14 3.06-4.79 3.06H32.45c-2.65 0-4.79-1.37-4.79-3.06V49c0-1.69 2.15-3.06 4.79-3.06h26.09c2.65 0 4.79 1.37 4.79 3.06z" fill="#343534"/><path d="M63.19 65.58c0 1.66-2.13 3-4.76 3H32.55c-2.62 0-4.74-1.34-4.74-3V49.26c0-1.65 2.12-3 4.74-3h25.89c2.62 0 4.75 1.34 4.75 3z" fill="#343535"/><path d="M63 65.56c0 1.62-2.11 2.93-4.71 2.93H32.66c-2.6 0-4.71-1.31-4.71-2.93v-16c0-1.63 2.1-2.94 4.71-2.94h25.67c2.6 0 4.71 1.31 4.71 2.94z" fill="#353535"/><path d="M62.9 65.53c0 1.59-2.09 2.88-4.67 2.88H32.76c-2.58 0-4.67-1.29-4.67-2.88V49.85c0-1.59 2.09-2.88 4.67-2.88h25.47c2.58 0 4.67 1.29 4.67 2.88z" fill="#353636"/><path d="M62.76 65.51c0 1.55-2.08 2.81-4.63 2.81H32.87c-2.56 0-4.64-1.26-4.64-2.81V50.14c0-1.55 2.08-2.81 4.64-2.81h25.25c2.57 0 4.64 1.26 4.64 2.81z" fill="#363636"/><path d="M62.62 65.48c0 1.52-2.06 2.75-4.6 2.75H33c-2.54 0-4.59-1.23-4.59-2.75v-15c0-1.53 2.05-2.76 4.59-2.76h25c2.54 0 4.6 1.23 4.6 2.76z" fill="#363737"/><path d="M62.47 65.45c0 1.49-2 2.7-4.55 2.7H33.08c-2.52 0-4.56-1.21-4.56-2.7V50.74c0-1.49 2-2.7 4.56-2.7h24.84c2.51 0 4.55 1.2 4.55 2.7z" fill="#373737"/><path d="M62.33 65.42c0 1.46-2 2.64-4.52 2.64H33.18c-2.49 0-4.52-1.18-4.52-2.64V51c0-1.46 2-2.64 4.52-2.64h24.63c2.49 0 4.52 1.18 4.52 2.64z" fill="#373838"/><path d="M62.19 65.4c0 1.42-2 2.58-4.49 2.58H33.28c-2.47 0-4.47-1.16-4.47-2.58V51.33c0-1.43 2-2.58 4.47-2.58h24.43c2.47 0 4.48 1.15 4.48 2.58z" fill="#383838"/><path d="M62.05 65.37c0 1.39-2 2.52-4.45 2.52H33.39c-2.46 0-4.44-1.13-4.44-2.52V51.62c0-1.39 2-2.52 4.44-2.52H57.6c2.46 0 4.45 1.13 4.45 2.52z" fill="#383938"/><path d="M61.9 65.34c0 1.36-2 2.47-4.4 2.47h-24c-2.43 0-4.4-1.11-4.4-2.47V51.92c0-1.36 2-2.46 4.4-2.46h24c2.43 0 4.4 1.1 4.4 2.46z" fill="#383939"/><path d="M61.76 65.31c0 1.33-2 2.41-4.37 2.41H33.6c-2.42 0-4.37-1.08-4.37-2.41V52.22c0-1.33 2-2.41 4.37-2.41h23.79c2.41 0 4.37 1.08 4.37 2.41z" fill="#393939"/><path d="M61.62 65.29c0 1.29-1.94 2.34-4.33 2.34H33.7c-2.39 0-4.33-1-4.33-2.34V52.51c0-1.29 1.94-2.34 4.33-2.34h23.59c2.39 0 4.33 1 4.33 2.34z" fill="#393a3a"/><path d="M61.47 65.26c0 1.26-1.92 2.29-4.29 2.29H33.81c-2.37 0-4.29-1-4.29-2.29V52.81c0-1.27 1.92-2.29 4.29-2.29h23.37c2.37 0 4.29 1 4.29 2.29z" fill="#3a3a3a"/><path d="M61.33 65.23c0 1.23-1.9 2.23-4.25 2.23H33.91c-2.35 0-4.25-1-4.25-2.23V53.1c0-1.23 1.9-2.23 4.25-2.23h23.17c2.35 0 4.25 1 4.25 2.23z" fill="#3a3b3b"/><path d="M61.19 65.21c0 1.19-1.89 2.16-4.22 2.16H34c-2.33 0-4.22-1-4.22-2.16V53.4c0-1.2 1.89-2.17 4.22-2.17h23c2.33 0 4.22 1 4.22 2.17z" fill="#3b3b3b"/><path d="M61.05 65.18c0 1.16-1.87 2.11-4.18 2.11H34.12c-2.31 0-4.17-1-4.17-2.11V53.7c0-1.16 1.87-2.11 4.17-2.11h22.75c2.31 0 4.18.94 4.18 2.11z" fill="#3b3c3b"/><path d="M60.9 65.15c0 1.13-1.85 2-4.13 2H34.22c-2.28 0-4.13-.91-4.13-2V54c0-1.14 1.85-2.05 4.13-2.05h22.55c2.28 0 4.13.91 4.13 2.05z" fill="#3c3c3c"/><path d="M60.76 65.13c0 1.1-1.83 2-4.1 2H34.33c-2.26 0-4.1-.89-4.1-2V54.28c0-1.09 1.84-2 4.1-2h22.33c2.27 0 4.11.89 4.11 2z" fill="#3c3d3c"/><path d="M60.62 65.1c0 1.07-1.82 1.93-4.06 1.93H34.43c-2.24 0-4.06-.87-4.06-1.93V54.58c0-1.07 1.82-1.93 4.06-1.93h22.13c2.24 0 4.06.87 4.06 1.93z" fill="#3d3d3d"/><path d="M60.48 65.07c0 1-1.81 1.88-4 1.88H34.54c-2.22 0-4-.84-4-1.88v-10.2c0-1 1.8-1.87 4-1.87h21.91c2.22 0 4 .83 4 1.87z" fill="#3d3d3d"/><path d="M60.33 65.05c0 1-1.78 1.81-4 1.81H34.64c-2.2 0-4-.81-4-1.81v-9.88c0-1 1.79-1.81 4-1.81h21.71c2.2 0 4 .81 4 1.81z" fill="#3e3e3e"/><path d="M67.4 15.47H23.52a8.05 8.05 0 0 0-8.06 8v15.92a114.74 114.74 0 0 0 30 3.78 114.71 114.71 0 0 0 30-3.78V23.52a8 8 0 0 0-8-8z" fill="url(#d)" opacity=".3"/><path d="M23.53 17.84h43.86a8 8 0 0 1 8 8.05v-2.38a8 8 0 0 0-8-8H23.53a8.06 8.06 0 0 0-8 8.05v2.38a8.05 8.05 0 0 1 8-8.1z" style="isolation:isolate" opacity=".64" fill="url(#e)"/><path d="M23.07 76.4a8.52 8.52 0 0 1-8.52-8.51h0V23.11a8.52 8.52 0 0 1 8.52-8.51h44.78a8.51 8.51 0 0 1 8.51 8.51h0v44.78a8.51 8.51 0 0 1-8.52 8.51zm-7.91-53.29v44.78a7.91 7.91 0 0 0 7.91 7.91h44.78a7.93 7.93 0 0 0 7.91-7.91h0V23.11a7.93 7.93 0 0 0-7.92-7.91H23.07a7.91 7.91 0 0 0-7.91 7.91z" stroke="#010101" stroke-width=".055" fill="url(#f)" opacity=".7"/><path d="M65.87 52.51c-4.65-5.51-11.82 6.15-15.68 8.68a9.51 9.51 0 0 1-9.54.22c-3.89-2.29-2.7-7.75 1.4-9.11 3.65-1.21 10 2.63 12.35-1.21 2.86-4.74-6.9-5.85-9.78-5.74-5.2.21-10.21 1.89-13.3 5.83-3.32 4.24-2.57 9.37 1.1 13.21 3.73 3.62 9.14 5 14.52 4.56a15.43 15.43 0 0 0 5.48-1.67c3.58-1.94 14.4-13.65 13.45-14.77zm-34-4.15c1.8.36-1.69-9.71-1.92-11.1-.28-1.68-.89-4-2.56-4.29-1.93-.28-2.46 1.92-2.07 3.84S30.14 48 31.83 48.36zm14.91-5.2c2.8.39 2.6-13 2.61-14.83 0-1.64.64-6.18-1.57-6.6-3-.59-3.34 3.41-3.4 5.56.12 2.14-.56 15.45 2.37 15.86zm6.62 2.14c3.05 1.28 5.38-12.26 5.72-14s.4-5.53-2.64-4.34c-1.52.6-1.8 3.07-2 4.43-.41 1.73-3.48 12.93-1.08 13.91zm-14.68-1.14c3.44.26.2-13.36-.07-15.18s-1.52-5.56-4.09-3.4c-1.29 1.08-.71 3.6-.47 5 .23 1.84 1.98 13.42 4.63 13.58z" fill="#fff"/><path d="M77 13.43a1 1 0 1 0 1 1 1 1 0 0 0-1-1zm0 1.87a.89.89 0 1 1 .89-.88.89.89 0 0 1-.89.89zm.31-1c0-.17-.12-.26-.32-.26h-.31v.81h.19v-.29H77l.14.29h.21l-.16-.31a.23.23 0 0 0 .15-.24zm-.33.12h-.11v-.21H77c.09 0 .14 0 .14.1s-.06.08-.14.08z" fill="#666"/></svg>