<svg xmlns="http://www.w3.org/2000/svg" width="91" height="91"><defs><linearGradient id="a" x1="57.52" y1="68.58" x2="34.81" y2="76.85" gradientUnits="userSpaceOnUse"><stop offset="0" stop-color="#0e2b49"/><stop offset=".09" stop-color="#113251"/><stop offset=".24" stop-color="#184566"/><stop offset=".41" stop-color="#236489"/><stop offset=".61" stop-color="#348fb9"/><stop offset=".82" stop-color="#47c2f2"/><stop offset=".83" stop-color="#58c7f3"/><stop offset=".87" stop-color="#7fd3f6"/><stop offset=".9" stop-color="#98daf7"/><stop offset=".92" stop-color="#a1ddf8"/></linearGradient><linearGradient id="b" x1="45.32" y1="85.45" x2="45.32" y2="69.57" gradientUnits="userSpaceOnUse"><stop offset="0" stop-color="#1c3b56"/><stop offset=".14" stop-color="#1b3f5b"/><stop offset=".31" stop-color="#184969"/><stop offset=".49" stop-color="#145a81"/><stop offset=".68" stop-color="#0e72a2"/><stop offset=".87" stop-color="#0690cc"/><stop offset="1" stop-color="#00a8ec"/></linearGradient><linearGradient id="c" x1="24" y1="59.38" x2="66.44" y2="59.38" gradientUnits="userSpaceOnUse"><stop offset="0" stop-color="#ef5629"/><stop offset=".09" stop-color="#f06135"/><stop offset=".26" stop-color="#f37e54"/><stop offset=".48" stop-color="#f9ae86"/><stop offset=".71" stop-color="#ffe6c1"/><stop offset=".75" stop-color="#ffe2bb"/><stop offset=".8" stop-color="#fed7aa"/><stop offset=".86" stop-color="#fdc58e"/><stop offset=".93" stop-color="#fbad67"/><stop offset="1" stop-color="#f98f38"/></linearGradient><radialGradient id="d" cx="45.22" cy="61.74" fx="52.799" r="22.44" gradientUnits="userSpaceOnUse"><stop offset="0" stop-color="#ffe1b7"/><stop offset=".11" stop-color="#fed39c"/><stop offset=".39" stop-color="#fbb158"/><stop offset=".59" stop-color="#fa9c2d"/><stop offset=".69" stop-color="#f9941d"/></radialGradient><linearGradient id="e" x1="18.96" y1="48.79" x2="71.36" y2="48.79" gradientUnits="userSpaceOnUse"><stop offset=".02" stop-color="#10bfff"/><stop offset=".19" stop-color="#91d8f7"/><stop offset=".21" stop-color="#8acfee"/><stop offset=".33" stop-color="#659ebc"/><stop offset=".45" stop-color="#457593"/><stop offset=".57" stop-color="#2d5573"/><stop offset=".68" stop-color="#1c3e5c"/><stop offset=".78" stop-color="#12314f"/><stop offset=".87" stop-color="#0e2c4a"/></linearGradient><radialGradient id="f" cx="45.1" cy="48.24" fy="37.212" r="28.72" gradientUnits="userSpaceOnUse"><stop offset="0" stop-color="#b0e2f9"/><stop offset=".13" stop-color="#a4d9f4"/><stop offset=".37" stop-color="#85c3e7"/><stop offset=".69" stop-color="#539ed2"/><stop offset="1" stop-color="#1b75bb"/></radialGradient><radialGradient id="g" cx="46.26" cy="44.27" fx="11.298" fy="55.523" r="41.22" gradientUnits="userSpaceOnUse"><stop offset="0" stop-color="#8dd7f7"/><stop offset=".12" stop-color="#89d2f2"/><stop offset=".26" stop-color="#7fc4e4"/><stop offset=".4" stop-color="#6eadcd"/><stop offset=".56" stop-color="#558dac"/><stop offset=".72" stop-color="#366482"/><stop offset=".88" stop-color="#113250"/><stop offset=".89" stop-color="#0e2e4c"/></radialGradient><radialGradient id="h" cx="46.2" cy="37.05" fx="67.633" fy="24.041" r="42.39" gradientUnits="userSpaceOnUse"><stop offset="0" stop-color="#aee1f9"/><stop offset=".26" stop-color="#8cc8eb"/><stop offset=".82" stop-color="#3789c7"/><stop offset="1" stop-color="#1b75bb"/></radialGradient></defs><path d="M47.62 74.81c1.93-1.92 7.75-7.63 7.75-7.63l3.08 3.94L45 82.68 32.86 70.5l2.58-3.44s5.92 5.8 7.88 7.75a3.8 3.8 0 0 0 4.3 0z" fill="url(#a)"/><path d="M50.94 83.54c-2.43 2.43-8.14 2.68-10.88-.06C37.52 81 30 73.88 30 73.88l3.94-4.31s6.56 6.45 8.73 8.62a4.45 4.45 0 0 0 5.6-.06c2.13-2.14 8.62-8.49 8.62-8.49L60.67 74s-7.31 7.13-9.73 9.54z" fill="url(#b)"/><path fill="#202f60" d="M29.97 73.89l4.24-4 1.23-2.83-3.56 3.44-1.91 3.39z"/><path fill="#00aced" d="M60.66 73.95l-4.06-4.06-1.23-2.71 3.82 3.63 1.47 3.14z"/><path d="M51.43 52.42L65.09 66l1.35 2.21L45.29 53.4 24 68.41l1.48-2.33 13.78-13.66c2.74-2.76 9.4-2.76 12.17 0z" fill="url(#c)"/><path d="M51.07 52.92c-2.53-2.52-9-2.46-12.06.61-3.74 3.73-15 14.89-15 14.89l3.94 3.93S39.09 60.89 43 57.21a3.72 3.72 0 0 1 4.8 0C51.37 61 62.51 72 62.51 72l3.94-3.81S54.9 56.73 51.07 52.92z" fill="url(#d)"/><path d="M47.87 40.85l20.18 20.3 3.31 2.22L45 34.21 19 63.37l2.83-1.73L42.45 41a3.82 3.82 0 0 1 5.42-.15z" fill="url(#e)"/><path d="M52.79 36.55C47.55 31.33 41 33 38.52 35.44c-6 5.92-23.87 23.62-23.87 23.62L19 63.37s17.35-17.31 23.09-23.13a4.47 4.47 0 0 1 6 0C54 46 71.36 63.37 71.36 63.37l4.19-4.18z" fill="url(#f)"/><path d="M84.16 45.53L45.28 7 7 44.3l10.12 10.09 3.56-2.09-4.43-4.43a3.8 3.8 0 0 1 0-4.8l26.82-26.7a3.59 3.59 0 0 1 4.8-.12l26.57 26.57a3.51 3.51 0 0 1 .25 5c-1.15 1.16-4.56 4.67-4.56 4.67l3.7 2.58z" fill="url(#g)"/><path d="M82.93 51.68C81.46 53.14 77 57.46 77 57.46l-4.55-3.57s4.17-4.38 5.41-5.66 2.4-3.51-.24-6.15c-7.31-7.3-22-21.86-29.28-29.16a4.23 4.23 0 0 0-5.54-.12c-7.5 7.49-22.6 22.41-30.12 29.9-1 1-1.52 3.87-.12 5.29l5.66 5.78-4.68 3.57s-4.3-4.56-5.77-6A8.94 8.94 0 0 1 8.13 39c7.76-7.77 23.36-23.24 31.13-31a9.07 9.07 0 0 1 12.67.25l30.26 30.27c4.06 4.06 4.46 9.48.74 13.16z" fill="url(#h)"/><path fill="#072b44" d="M17.56 53.09l3.12-.8-3.69 3.82-3.45 1.23 4.02-4.25zm55.38.31l-2.8-.86 3.69 3.81 3.2 1.11-4.09-4.06z"/></svg>