<svg xmlns="http://www.w3.org/2000/svg" width="91" height="91"><path d="M44.55 78.35a33.1 33.1 0 0 1-24-10.5 32.5 32.5 0 0 1 20.7-55.06c.6 0 2.55-.2 4.3-.2.52 0 1 0 1.45.05a32.15 32.15 0 0 1 23.71 13.23c.15.21.32.44.51.68 1.66 2.19 4.16 5.49 3.58 8.7-.48 2.63-4 4.43-8.1 6.34-.62.28-1.14.53-1.5.71-3.84 2.06-7.47 3.93-11 5.75-3.84 2-7.81 4-12.06 6.32l-.71.4a10.22 10.22 0 0 1-5.14 1.72h-.37a7.11 7.11 0 0 1-5.22-2.65 7.64 7.64 0 0 1-1.56-6c.56-3.5 3.53-5 5.91-6.25l.76-.39c2.89-1.52 5.48-2.87 8.09-4.22 3-1.53 5.93-3.07 9.39-4.91l.32-.17c.24-.12.72-.37 1.12-.61a13.7 13.7 0 0 0-2.82-1.58 16.79 16.79 0 0 0-7.16-1.62 18.32 18.32 0 0 0-15.11 8.33 18.61 18.61 0 0 0-1.24 15.32 16.84 16.84 0 0 0 15.84 11 20.24 20.24 0 0 0 3.21-.26 16.82 16.82 0 0 0 12.65-9.6 25.86 25.86 0 0 0 1-2.92c.94-3.05 2.1-6.85 7-7.44a7.84 7.84 0 0 1 8.69 6.4c.44 2.69-.74 6.09-1.67 8.4A34.08 34.08 0 0 1 58.6 75.16a32.82 32.82 0 0 1-14.05 3.19z" fill="#fff"/><path d="M45.57 14.71h1.3A30.1 30.1 0 0 1 69 27.13c1.36 1.86 4.18 5.15 3.71 7.73-.41 2.23-6.65 4.58-8.51 5.57-8.05 4.3-14.92 7.71-23.06 12.07-1.47.8-3 1.87-4.85 1.87H36a5.23 5.23 0 0 1-4.8-6.19c.44-2.75 3.17-3.84 5.57-5.11 6.15-3.25 11-5.67 17.49-9.13.91-.48 2.85-1.39 2.94-2.32.15-1.76-3.23-3.28-4.49-3.87a19.17 19.17 0 0 0-8-1.78 20.35 20.35 0 0 0-16.92 9.37 20.79 20.79 0 0 0-1.34 17.16 19 19 0 0 0 17.81 12.36 22.14 22.14 0 0 0 3.54-.28A18.8 18.8 0 0 0 62 53.75c1.81-4 1.58-8.56 6.35-9.13h.71a5.77 5.77 0 0 1 5.63 4.69c.36 2.19-.75 5.3-1.55 7.27A31.83 31.83 0 0 1 57.7 73.24a30.71 30.71 0 0 1-13.15 3 31.11 31.11 0 0 1-30.79-32.87A30.59 30.59 0 0 1 30.32 18a31 31 0 0 1 11.14-3.1c.54-.05 2.44-.19 4.11-.19m0-4.24c-1.84 0-3.87.15-4.5.21a34.88 34.88 0 0 0-12.69 3.55 35.07 35.07 0 0 0 31.13 62.84 36.25 36.25 0 0 0 17.6-19c1.12-2.76 2.32-6.35 1.8-9.54A10 10 0 0 0 72.55 41c2.32-1.45 3.92-3.07 4.33-5.33.75-4.12-2.09-7.87-4-10.36-.18-.23-.35-.45-.49-.65a34.32 34.32 0 0 0-25.26-14.1h-1.59zm-15.88 32.1a14.62 14.62 0 0 1 1.78-5.06 16.1 16.1 0 0 1 13.29-7.31 14.75 14.75 0 0 1 5.49 1.08c-2.62 1.38-5 2.61-7.32 3.82-2.56 1.32-5.2 2.69-8.1 4.22l-.74.38a18.4 18.4 0 0 0-4.4 2.87zm7 16a12.43 12.43 0 0 0 5.74-2l.68-.37c4.23-2.27 8.19-4.33 12-6.31l4.48-2.32c-.22.61-.4 1.2-.56 1.72a20.77 20.77 0 0 1-.87 2.71 14.65 14.65 0 0 1-11 8.39 18.64 18.64 0 0 1-2.88.23 14.36 14.36 0 0 1-7.52-2z" fill="#4d4c4d"/><path d="M71.64 77.48a9.1 9.1 0 0 1-3.22-.6 8.16 8.16 0 0 1-5-8.67 8 8 0 0 1 6.63-7.35 10.73 10.73 0 0 1 1.79-.16 8 8 0 0 1 8 6.34 8.54 8.54 0 0 1-1.66 7.26 8.4 8.4 0 0 1-6.54 3.18z" fill="#6eceec"/><path d="M71.85 62.12a6.57 6.57 0 0 1 6.65 5.24 7.09 7.09 0 0 1-6.86 8.71 7.73 7.73 0 0 1-2.73-.51c-5.84-2.2-5.51-12.13 1.4-13.31a8.81 8.81 0 0 1 1.54-.13m0-2.83a11.49 11.49 0 0 0-2 .18A9.34 9.34 0 0 0 62 68.08a9.54 9.54 0 0 0 5.92 10.12 10.32 10.32 0 0 0 3.72.7 9.82 9.82 0 0 0 7.7-3.72 10 10 0 0 0 1.92-8.44 9.45 9.45 0 0 0-9.41-7.45z" fill="#4d4c4d"/></svg>