<svg xmlns="http://www.w3.org/2000/svg" width="91" height="91"><path d="M32.69 35.66c0-3.34 1.68-6 6.38-6 .43 0 .78.55.78 1.23s-.3 1.34-.67 1.34c-2.91 0-3.36 1.68-3.36 4.36a.51.51 0 0 0 .45.56h3.13c.49 0 .89.25.89.56V39c0 .37-.4.67-.89.67h-3.13a.44.44 0 0 0-.44.44v12.11a1 1 0 0 1-.9 1h-1.46a.92.92 0 0 1-.78-1zm14.55 1.23c-4.48 0-7.28 3.64-7.28 8.28s1.79 8.39 7.28 8.39c3.27 0 6.15-.89 5.93-1.45l-.45-1.79c0-.13-.22-.34-.56-.23a17.59 17.59 0 0 1-4.36.9c-2.54 0-4.59-1.46-4.59-5.71H53.5c.5-3.58-.56-8.39-6.26-8.39zm-3.7 6a3.4 3.4 0 0 1 3.7-3.58c2.34 0 3.24 1.6 3.24 3.58zm12.09-4.99v14.66a.67.67 0 0 0 .67.67h1.79a.67.67 0 0 0 .67-.67V45.5c0-3.46 2-6 4.37-6 1 0 2.46.56 2.46 2.8v10.14a.74.74 0 0 0 .67.79h1.9a.62.62 0 0 0 .56-.67V41.93c0-1.68-.78-5.26-4.92-5.15a6.19 6.19 0 0 0-5.27 2.8l.12-1.79a.62.62 0 0 0-.56-.67h-1.68a.78.78 0 0 0-.78.78z"/><path d="M75.55 53.23a4.22 4.22 0 0 0-2.24 3.13c0 1.57 1.57 2.46 4.14 2.46 3.24 0 5-1.23 5-3.13.03-2.8-4.45-2.13-6.9-2.46z" fill="none"/><path d="M78 50.65c-1.73 0-3.14-.44-3.14-1.12a1.51 1.51 0 0 1 .79-1.11 5.23 5.23 0 0 0 1.56.11c4.7 0 6.94-2.66 6.94-5.93a4.68 4.68 0 0 0-.79-2.91h.9c.22 0 .44-.45.44-.68v-1.22a.83.83 0 0 0-.67-.68h-3.67c-.9 0-1.79-.22-2.58-.22-4.14 0-6.71 2.64-6.71 6a5.2 5.2 0 0 0 2.12 4.59 3.27 3.27 0 0 0-1.57 2.68 2.08 2.08 0 0 0 1.24 2.24c-1.46 1-2.69 2.35-2.69 4.25 0 2.6 2.35 4.7 6.94 4.7 5.15 0 8.39-2.35 8.39-6.15 0-3.2-2.23-4.55-7.5-4.55zm-.45-11.3c2 0 3.58 1 3.58 3.25a3.27 3.27 0 0 1-3.58 3.46C75.66 46.06 74 45 74 42.82a3.39 3.39 0 0 1 3.58-3.47zm-.11 19.47c-2.58 0-4.14-.89-4.14-2.46a4.2 4.2 0 0 1 2.24-3.13c2.46.33 6.93-.34 6.93 2.46 0 1.9-1.79 3.13-5 3.13z"/><path d="M36.62 57.86a2 2 0 0 1-2.11 2.26 2 2 0 0 1-2-2.19 2.09 2.09 0 0 1 2.09-2.25 2 2 0 0 1 2.02 2.18zm-3.11 0c0 .85.4 1.44 1 1.44s1-.62 1-1.46-.37-1.43-1-1.43-1 .62-1 1.45zm5.1-2.1h2.63v.8h-1.65v1h1.55v.79h-1.55v1.73h-1zm4.56 0h2.63v.8h-1.65v1h1.54v.79h-1.54v1.73h-1zm5.48 0v4.29h-1v-4.29zM54 59.94a2.74 2.74 0 0 1-1.1.18A2 2 0 0 1 50.67 58 2.19 2.19 0 0 1 53 55.69a2.49 2.49 0 0 1 1 .19l-.19.77a1.94 1.94 0 0 0-.82-.16 1.41 1.41 0 0 0 0 2.82 2.28 2.28 0 0 0 .82-.14zm4.79-1.7h-1.58v1H59v.79h-2.77v-4.27h2.65v.8h-1.67v.89h1.58z" fill="#5c9f38"/><path d="M22.71 32.53a1.31 1.31 0 0 0-2-.81l-4.86 3c-1.53 1-.53 1.78-.06 2l7.17 2.85c1.14.46 1.5-.3 1.19-1.63z"/><path d="M22 35.28a2.49 2.49 0 0 0-2.84-1l-3.38 1.06c-1.22.36-.53 1.18.25 1.49l6.66 2.64c1.3.52 1.34-.49.92-1.26z" fill="#72bf44"/><path d="M11.91 54.28a1.31 1.31 0 0 0 2 .8l4.87-3c1.52-1 .52-1.78.05-2l-7.18-2.86c-1.14-.45-1.5.31-1.19 1.64z"/><path d="M12.58 51.52a2.53 2.53 0 0 0 2.85 1l3.37-1.07c1.23-.35.53-1.17-.25-1.48l-6.65-2.64c-1.3-.51-1.34.49-.93 1.26z" fill="#72bf44"/><path d="M6.53 37.93a1.31 1.31 0 0 0-.81 2l3 4.87c1 1.52 1.77.52 2 .05l2.85-7.17c.45-1.14-.31-1.51-1.64-1.19z"/><path d="M9.31 38.62a2.53 2.53 0 0 0-1 2.85l1.07 3.38c.35 1.22 1.17.52 1.48-.26l2.65-6.65c.49-1.3-.51-1.34-1.27-.94z" fill="#72bf44"/><path d="M28.08 48.86a1.31 1.31 0 0 0 .8-2l-3-4.87c-1-1.52-1.78-.52-2-.05l-2.86 7.17c-.46 1.15.3 1.51 1.63 1.19z"/><path d="M25.29 48.17a2.51 2.51 0 0 0 1-2.85l-1.06-3.38c-.36-1.22-1.18-.52-1.49.26l-2.64 6.65c-.52 1.3.49 1.34 1.26.92z" fill="#72bf44"/></svg>