<svg xmlns="http://www.w3.org/2000/svg" xmlns:xlink="http://www.w3.org/1999/xlink" width="91" height="91"><defs><linearGradient id="b" x1="12.81" y1="35.98" x2="12.81" y2="55.02" gradientUnits="userSpaceOnUse"><stop offset="0" stop-color="#507fb4"/><stop offset=".21" stop-color="#5081b6"/><stop offset=".33" stop-color="#5086be"/><stop offset=".36" stop-color="#5088c2"/><stop offset=".42" stop-color="#5085bd"/><stop offset=".57" stop-color="#5080b6"/><stop offset="1" stop-color="#507fb4"/></linearGradient><linearGradient id="c" x1="7.12" y1="37.71" x2="7.12" y2="53.28" gradientUnits="userSpaceOnUse"><stop offset="0" stop-color="#73a8db"/><stop offset=".01" stop-color="#71a6d9"/><stop offset=".02" stop-color="#6a9ed1"/><stop offset=".03" stop-color="#5f90c3"/><stop offset=".03" stop-color="#4f7cb0"/><stop offset=".04" stop-color="#3f689c"/><stop offset=".28" stop-color="#5685b9"/><stop offset=".56" stop-color="#6b9fd3"/><stop offset=".8" stop-color="#78afe3"/><stop offset="1" stop-color="#7cb4e8"/></linearGradient><linearGradient id="d" x1="18.42" y1="37.71" x2="18.42" y2="53.28" gradientUnits="userSpaceOnUse"><stop offset="0" stop-color="#4d7cad"/><stop offset=".03" stop-color="#4978a7"/><stop offset=".21" stop-color="#39648c"/><stop offset=".22" stop-color="#3a658d"/><stop offset=".5" stop-color="#4673a3"/><stop offset=".76" stop-color="#4d7cb0"/><stop offset="1" stop-color="#507fb4"/></linearGradient><linearGradient id="a" x1="30.11" y1="37.3" x2="30.11" y2="53.62" gradientUnits="userSpaceOnUse"><stop offset=".5" stop-color="#88bbec"/><stop offset=".7" stop-color="#6791c4"/></linearGradient><linearGradient id="e" x1="38.66" y1="37.3" x2="38.66" y2="53.62" xlink:href="#a"/><linearGradient id="f" x1="47.9" y1="42.06" x2="47.9" y2="53.87" xlink:href="#a"/><linearGradient id="g" x1="60.34" y1="41.97" x2="60.34" y2="53.62" xlink:href="#a"/></defs><path stroke="#000" stroke-miterlimit="10" stroke-width=".089" fill="url(#b)" d="M11.54 35.98h2.55v19.04h-2.55z"/><path d="M5.5 50.56c0 2.89 1.36 2.72 3.23 2.72v-2c-.59 0-.93.08-.93-.94v-9.9c0-.76.41-.68.93-.68v-2c-1.78 0-3.23-.26-3.23 2.63z" stroke="#000" stroke-miterlimit="10" stroke-width=".089" fill="url(#c)"/><path d="M20 50.56c0 2.89-1.36 2.72-3.23 2.72v-2c.59 0 .93.08.93-.94v-9.9c0-.76-.42-.68-.93-.68v-2c1.78 0 3.23-.26 3.23 2.63z" stroke="#000" stroke-miterlimit="10" stroke-width=".089" fill="url(#d)"/><path d="M35.26 39c0-.94-1.37-1.7-2.64-1.7H25c.17.51 1 1.1 1 2.46v13.86h2.2V45.8h5.61v-.94H28.2v-6.54h4.25a2.63 2.63 0 0 1 2 .68z" stroke="#000" stroke-miterlimit="10" stroke-width=".089" fill="url(#a)"/><path d="M38.92 37.3c.76 0 1.7.42 1.7 2.25v14.07H38.4V39.8c0-1.57-.76-2-1.7-2v-.5z" stroke="#000" stroke-miterlimit="10" stroke-width=".089" fill="url(#e)"/><path d="M50.56 52.6a4.55 4.55 0 0 1-3.4 1.27c-2.55 0-4.08-1.53-4.08-4.46v-7.35h2.29v7.44c0 1.83.85 3.27 2.55 3.27a3 3 0 0 0 2.55-1.31v-9.4h2.26v11.52h-1.27z" stroke="#000" stroke-miterlimit="10" stroke-width=".089" fill="url(#f)"/><path d="M61.44 52.08a3.69 3.69 0 0 0 2.21 1.54h2.55v-.51a3.33 3.33 0 0 1-2.55-1.7c-.58-.95-2.29-3.82-2.29-3.82L65.27 42h-1.19l-3.23 4.59-1.79-3.05A3.24 3.24 0 0 0 56.6 42h-2.13v.51a3.37 3.37 0 0 1 2.29 1.61c.58 1 2.38 4 2.38 4l-3.91 5.53h1.19L59.66 49s1.34 2.34 1.78 3.08z" stroke="#000" stroke-miterlimit="10" stroke-width=".089" fill="url(#g)"/><path d="M72.49 47.58A2.83 2.83 0 0 0 75 44.86c0-1.6-1.78-2.86-4-2.86h-5.31v.34c.89 0 1.62.17 1.62 1.45v9.82h4.25c2.21 0 4.08-1.24 4.08-3.19a3 3 0 0 0-3.15-2.84zm-3.65-4.84a3.71 3.71 0 0 1 1.27-.17c1.79 0 3.23 1 3.23 2.38a2.56 2.56 0 0 1-2.72 2.38h-1.78zM70.54 53a3.63 3.63 0 0 1-1.7-.26V48h1.78c2.21 0 3.23 1.06 3.23 2.38 0 1.87-1.48 2.55-3.31 2.55zm11.81-5.42a2.83 2.83 0 0 0 2.55-2.72c0-1.6-1.82-2.89-4.08-2.89h-5.27v.34c.89 0 1.62.17 1.62 1.45v9.82h4.25c2.21 0 4.08-1.24 4.08-3.19a3 3 0 0 0-3.15-2.81zm-3.65-4.84a3.71 3.71 0 0 1 1.3-.17c1.79 0 3.23 1 3.23 2.38a2.56 2.56 0 0 1-2.72 2.38H78.7zM80.4 53a3.63 3.63 0 0 1-1.7-.26V48h1.78c2.21 0 3.23 1.06 3.23 2.38 0 1.87-1.48 2.55-3.31 2.55z" fill="#fff" stroke="#000" stroke-miterlimit="10" stroke-width=".089"/></svg>