<svg xmlns="http://www.w3.org/2000/svg" width="91" height="91"><path d="M35.17 46.07a2.22 2.22 0 0 0 2.24 1.67c.66 0 .84-.06 2.31-.79a1.59 1.59 0 0 1 .61-.13A1.2 1.2 0 0 1 41.46 48c0 1.15-2.05 2.22-4.2 2.22a4.79 4.79 0 0 1-5.1-4.89A4.85 4.85 0 0 1 37 40.12 4.7 4.7 0 0 1 41.63 45c0 .78-.37 1.1-1.23 1.1zm3.69-1.9a3.08 3.08 0 0 0-.4-1 1.75 1.75 0 0 0-1.46-.76c-.94 0-1.55.53-2 1.76zm6.35 1.9a2.22 2.22 0 0 0 2.24 1.67c.67 0 .84-.06 2.31-.79a1.59 1.59 0 0 1 .61-.13A1.2 1.2 0 0 1 51.5 48c0 1.15-2 2.22-4.2 2.22a4.79 4.79 0 0 1-5.1-4.89 4.85 4.85 0 0 1 4.8-5.21A4.7 4.7 0 0 1 51.67 45c0 .78-.36 1.1-1.22 1.1zm3.69-1.9a3.08 3.08 0 0 0-.4-1 1.75 1.75 0 0 0-1.43-.73c-.94 0-1.55.53-2 1.76zm6.68 4.08a2 2 0 0 1-.19 1.16 1.39 1.39 0 0 1-1.2.72 1.35 1.35 0 0 1-1.19-.72 1.88 1.88 0 0 1-.2-1.16v-10.4a2 2 0 0 1 .2-1.17 1.4 1.4 0 0 1 2.42 0 2 2 0 0 1 .19 1.17v5.63l2.58-2.64c.55-.57.84-.72 1.28-.72a1.37 1.37 0 0 1 1.37 1.37c0 .42-.17.7-.76 1.26l-1.74 1.68 2.44 3c.48.6.61.86.61 1.25a1.41 1.41 0 0 1-1.42 1.39c-.52 0-.83-.21-1.36-.9l-3-3.83zm9.53 0a2 2 0 0 1-.19 1.16 1.4 1.4 0 0 1-1.21.72 1.38 1.38 0 0 1-1.22-.72 2 2 0 0 1-.19-1.16v-10.4a2 2 0 0 1 .19-1.15 1.39 1.39 0 0 1 1.22-.7 1.41 1.41 0 0 1 1.21.69 2 2 0 0 1 .19 1.17zm9.2-6.6a5.1 5.1 0 0 1 1.26 3.51 4.67 4.67 0 0 1-8.12 3.49 5.09 5.09 0 0 1-1.26-3.57 4.77 4.77 0 0 1 4.7-5 4.66 4.66 0 0 1 3.42 1.57zM69 45.12c0 1.41.8 2.44 1.87 2.44a2.46 2.46 0 0 0 0-4.82A2.15 2.15 0 0 0 69 45.12zm16.53 4.01c0 3-1.86 4.87-5 4.87a7.26 7.26 0 0 1-3.37-.8 1.43 1.43 0 0 1-.85-1.28 1.25 1.25 0 0 1 1.27-1.22c.23 0 .23 0 1.25.34a5.72 5.72 0 0 0 1.74.34 2 2 0 0 0 1.9-.93 3.26 3.26 0 0 0 .33-1.55 2.6 2.6 0 0 1-2.35 1.28c-2.5 0-4.29-2.06-4.29-4.94s1.86-5.12 4.33-5.12a2.82 2.82 0 0 1 2.31 1.11c.4-.77.76-1 1.35-1a1.39 1.39 0 0 1 1.36 1.54zm-6.54-4c0 1.43.76 2.42 1.89 2.42s1.88-1 1.88-2.4-.8-2.43-1.91-2.43-1.85.99-1.85 2.42z" fill="#7164a1"/><path d="M18.71 59.07l6.45-17.73c1.61-2.15-.81-8.34-3.49-10C16.29 34.35 9.84 38.65 5.54 43c5.92 5.86 11.56 12.85 13.17 16.07z"/><path d="M17.37 56.12c2.38 0 11.55-19.63 4.3-23.93-4.3 2.42-11.29 7.26-14.52 10.81a69.81 69.81 0 0 1 10.22 13.12z" fill="#fff"/><path d="M17.58 59.87a141.5 141.5 0 0 0-8.86-21.49 55.74 55.74 0 0 1 19.6-7.25 160.51 160.51 0 0 1 7 23.63 161.86 161.86 0 0 0-17.74 5.11z"/><path d="M17.94 58.79a132.39 132.39 0 0 0-8.15-20 50.84 50.84 0 0 1 18-6.76 151.58 151.58 0 0 1 6.42 22 149.38 149.38 0 0 0-16.27 4.76z" fill="#fff"/><path d="M18.61 56.16c-1.88-5.63-2.95-9.11-5.61-15.66 4.36-2.74 9.89-3.73 15-4.71a136.94 136.94 0 0 1 4.56 16.35 136.32 136.32 0 0 0-13.95 4.02z" fill="#7164a1"/><path d="M25.67 46.93a2.41 2.41 0 0 1-1.35.12 1.62 1.62 0 0 1-.68-2.7 2.31 2.31 0 0 1 1.24-.54l3.39-.81c1.31-.34 2 .18 2.42 1.73A7.6 7.6 0 0 1 30 50.3a6.58 6.58 0 0 1-4.45 3.3c-4.43 1.12-8.33-1.32-9.51-6s1.19-8.86 5.73-10c2.93-.74 6.06.08 6.47 1.7a1.64 1.64 0 0 1-1.15 1.93c-.48.12-.65.09-2.37-.46a4.77 4.77 0 0 0-2.32 0c-2.31.59-3.4 3-2.67 5.86s2.77 4.44 5.17 3.83a3 3 0 0 0 2.21-1.79 4.33 4.33 0 0 0 .25-2.17z" fill="#fff"/><path d="M24.64 47.54A1.81 1.81 0 0 1 23 46.26a1.47 1.47 0 0 1 .92-1.93c1.54-.55 4.33-1.46 6.38-2.13l1.43-.48A2.08 2.08 0 0 1 34.15 43a2.11 2.11 0 0 1-.88 2.81.5.5 0 1 1-.51-.85 1.15 1.15 0 0 0 .49-1.55 1.1 1.1 0 0 0-1.25-.74l-1.43.47c-2 .67-4.83 1.59-6.36 2.12a.49.49 0 0 0-.3.69.76.76 0 0 0 .88.57l3.57-1.14a.5.5 0 0 1 .31.95l-3.59 1.14a1.84 1.84 0 0 1-.44.07z" fill="none" stroke="#000" stroke-linecap="round" stroke-miterlimit="10" stroke-width=".595"/><path d="M33 45.37c1.87-1.14.33-3.66-1.13-3.18-2 .65-5.87 1.92-7.81 2.6-1.38.49-.41 2.6.89 2.2l3.58-1.14" fill="none" stroke="#ccc" stroke-linecap="round" stroke-miterlimit="10" stroke-width=".595"/></svg>