<svg xmlns="http://www.w3.org/2000/svg" width="91" height="91"><defs><radialGradient id="a" cx="45.5" cy="47.5" r="40" gradientTransform="matrix(1 0 0 -1 0 93)" gradientUnits="userSpaceOnUse"><stop offset=".25" stop-color="#9672b2"/><stop offset=".68" stop-color="#825ea4"/><stop offset="1" stop-color="#79549d"/></radialGradient></defs><circle cx="45.5" cy="45.5" r="40" fill="url(#a)"/><path d="M36.3 30.2c1.13 1.24 3.27 3.4 4.11 4.12s2.91 2.66 3.42 3.19a17.05 17.05 0 0 0 1.41 1.63c.28.13 3.8-.07 4.3 0s2.41.69 3.46.93 4.13 1 5.42.84a31.57 31.57 0 0 0 5.6-2.1c.88-.42 3.86-1.61 5.12-2.08a19.32 19.32 0 0 0 3.45-1.46A12.42 12.42 0 0 1 76 33.83a2.83 2.83 0 0 1 1.9.16c.35.27.33 1.08.28 1.57s-.39 1.1-.7 1.14-.65-.24-.49-.45-.06-.62-.58-.5-1.64.29-2.06.44-1.25 1-2 1.31a45.54 45.54 0 0 0-5.07 2.87c-1.39 1-4 2.63-4.62 3s-.77.29-1.81.92a22.42 22.42 0 0 1-3.07 1.8c-.91.34-2.36.73-2.36.73a6.13 6.13 0 0 0 1.83.42 19.81 19.81 0 0 1 4.36.76c1.11.39 3.2 2.79 4 2.91s.82.49 1.82 0A21.3 21.3 0 0 1 71 49.27c1.43-.46 3.29-1.24 3.59-1.27s1.43.82 2.67 1.15a18 18 0 0 0 2.39.63c.4 0 1.7.08 1.86.5s.5.69.14.82-.27.33-.63.23-.74-.28-1.17.28a2 2 0 0 1-1.49.73 2.82 2.82 0 0 1-1.58-.34c-.67-.31-1.76-.86-2.24-.68s-2.3 2.39-4.1 3.13a10 10 0 0 1-4.81 1A25.77 25.77 0 0 1 62.15 54a6.2 6.2 0 0 0-1.89-.17 33.21 33.21 0 0 0 4.09 2.61 13.7 13.7 0 0 0 4.77.61c1-.13 2.66-.77 3.28-.37s.82.49.94 1a4 4 0 0 0 1.06 1.76c.28.14 1.26.81 1 1.29s-1.32 1.13-1.9.87-1.1-1-1.6-1.48a1.33 1.33 0 0 0-1.64-.33 19.3 19.3 0 0 1-4.74 1.38c-1.28 0-4.13-.37-5-1.07s-3.77-2.58-4.67-3.52a20.07 20.07 0 0 1-2.15-2.79c-.53-.76-.32-1.48-.85-1.6s-4.47-.88-5.84-1.32a11.07 11.07 0 0 1-4.1-2.85c-.65-.89-1.18-1.24-1.56-1.18s-1.64.93-2.52.71-1.6-1.72-2.06-3.14-.56-1.94-.18-2.41 1.08-1.37 1.08-1.37-1.46-2.22-2.45-3.77-3.53-3.86-4.39-5.74a64 64 0 0 0-4.89-7.5 39.52 39.52 0 0 0-3.06-4.12c-.54-.36-2.07-.82-2.16-1.27s-.1-.92.18-1 1 .82 1.15.53-.9-1.35-1.21-1.54-1.65-2.25-1.49-2.47a2.35 2.35 0 0 1 .83-.56c.21-.08.56 0 .8 0s.82-.38.92-.1 1.36 2.13 1.55 2.61a15 15 0 0 0 1.8 2.3c.56.66.79 1.22 1.35 1.89s3.55 3.93 5 5.53 3.48 3.4 4.7 4.78zm-1.13 36.56v1.46c0 1.45-.12 2-.58 2.43s-1.18.68-3.18.68a5.52 5.52 0 0 1-2.17-.27c-1.08-.45-1.45-1.27-1.45-3.22a12.47 12.47 0 0 1 .21-3.33 2.21 2.21 0 0 1 1.6-1.64 8.11 8.11 0 0 1 2-.15c1.74 0 2.17.07 2.74.41s.79.94.82 2.2h-1.62c-.06-1.12-.26-1.25-2-1.25-1.22 0-1.65.14-1.88.61a5.72 5.72 0 0 0-.2 2.28 6.51 6.51 0 0 0 .19 2.39c.22.47.69.61 2 .61.92 0 1.39-.09 1.6-.31a2 2 0 0 0 .33-1.35v-.34h-2.13v-1.21zM37.46 64H36v-1.2h1.44zm0 7.24H36v-5.91h1.44zm1.15-8.45h1.44v3.39c.27-.67.79-.94 1.86-.94a2.28 2.28 0 0 1 1.64.51c.44.43.58 1.07.58 2.52s-.12 1.89-.51 2.39a2.12 2.12 0 0 1-1.83.65 1.66 1.66 0 0 1-1.81-1l.07.94H38.6v-8.46zm1.45 5.32c0 1.79.18 2.09 1.34 2.09s1.29-.31 1.29-1.91-.2-1.89-1.25-1.89-1.38.4-1.38 1.71zm5.03-5.32h1.43v3.39c.26-.67.78-.94 1.86-.94a2.27 2.27 0 0 1 1.63.51c.45.43.58 1.07.58 2.52s-.11 1.89-.51 2.39a2.09 2.09 0 0 1-1.82.65 1.68 1.68 0 0 1-1.82-1l.06.94h-1.41zm1.45 5.32c0 1.79.18 2.09 1.34 2.09s1.29-.31 1.29-1.91-.17-1.89-1.25-1.89-1.37.4-1.37 1.71zm9.79-2.36c.45.42.61 1 .61 2.39 0 2.63-.48 3.18-2.79 3.18-1.39 0-2.07-.21-2.42-.8a4.37 4.37 0 0 1-.38-2.46c0-1.29.18-1.93.63-2.33s1-.48 2.21-.48 1.75.13 2.14.5zm-3.52 2.49c0 1.73.17 2 1.32 2s1.35-.26 1.35-2c0-1.56-.18-1.8-1.35-1.8s-1.33.23-1.33 1.86zm6.53-2.91l-.06 1a1.69 1.69 0 0 1 1.84-1.08A2 2 0 0 1 63 66a2.28 2.28 0 0 1 .2 1.19v4h-1.41v-3.5c0-1.07-.18-1.28-1-1.28s-1.4.41-1.4 1.34v3.51h-1.5v-5.92h1.45zM32.21 76.87a1.05 1.05 0 0 1-.13.64c-.16.25-.47.36-1 .36s-.82-.09-.95-.33A1 1 0 0 1 30 77h.37c0 .46.11.53.69.53s.73-.14.73-.64v-.52a.42.42 0 0 1-.25.27 1.49 1.49 0 0 1-.59.09 1.1 1.1 0 0 1-.76-.23c-.2-.2-.28-.46-.28-1.07s.06-.92.25-1.14A1 1 0 0 1 31 74c.45 0 .68.11.82.4v-.35h.38v2.8zm-1.87-1.53c0 .92.1 1.07.73 1.07s.75-.2.75-1.09-.14-1-.75-1-.73.17-.73 1zm2.82-1.96h-.38v-.44h.38zm0 3.32h-.38v-2.63h.38zm.57-3.76h.38v1.47a.39.39 0 0 1 .23-.28A1.5 1.5 0 0 1 35 74c.77 0 1 .34 1 1.39s-.27 1.32-1.07 1.32a.84.84 0 0 1-.83-.36v.32h-.38v-3.73zm.39 2.36c0 1 .12 1.11.76 1.11s.72-.18.72-1-.13-1-.71-1-.77.2-.77 1zm2.38-2.36h.38v1.47a.37.37 0 0 1 .22-.28 1.54 1.54 0 0 1 .64-.11c.77 0 1 .34 1 1.39s-.27 1.32-1.07 1.32c-.45 0-.69-.11-.83-.36v.32h-.38v-3.75zm.4 2.36c0 1 .11 1.11.76 1.11s.71-.18.71-1-.13-1-.71-1-.76.21-.76 1zm4.63.1c0 1.12-.21 1.34-1.17 1.34s-1.16-.22-1.16-1.37.2-1.37 1.17-1.37 1.16.26 1.16 1.4zm-1.82-.87a1.8 1.8 0 0 0-.11.84c0 .95.07 1 .76 1s.77-.1.77-1-.08-1-.76-1c-.37-.01-.58.04-.66.16zm2.69-.46v.36c.12-.29.38-.41.88-.41a.92.92 0 0 1 .85.33 1.2 1.2 0 0 1 .1.63v1.72h-.38V75a1.06 1.06 0 0 0-.06-.46c-.07-.15-.24-.2-.56-.2-.59 0-.81.21-.81.76v1.6H42v-2.63zm4.6 1.84V76c0 .54-.3.73-1.14.73s-1.17-.25-1.17-1.36S44.94 74 45.9 74c.65 0 .91.13 1 .5a2.8 2.8 0 0 1 .08.93h-1.9c0 .83.1 1 .76 1s.75-.06.74-.51H47zm-.39-.75a1.73 1.73 0 0 0-.06-.56c-.06-.2-.23-.27-.66-.27-.66 0-.78.13-.78.83zm3.11 1.54h-.38v-.34c-.12.27-.38.38-.85.38a1.05 1.05 0 0 1-.8-.27 1.62 1.62 0 0 1-.25-1.12c0-1 .26-1.32 1-1.32a1.49 1.49 0 0 1 .66.12.4.4 0 0 1 .2.24v-1.46h.38v3.77zM48 74.5a1.27 1.27 0 0 0-.18.83c0 .89.12 1.08.73 1.08a.81.81 0 0 0 .58-.16 1.57 1.57 0 0 0 .17-.94c0-.75-.16-1-.76-1a.86.86 0 0 0-.54.14zm4.44 2.2h-.38v-.34c-.13.28-.42.4-.87.4-.64 0-.91-.28-.91-.92v-1.78h.38v1.76c0 .47.12.59.59.59s.79-.2.79-.83v-1.51h.38v2.63zm.98 0H53v-.51h.45zm2.82-1.3c0 1.12-.2 1.34-1.16 1.34s-1.16-.22-1.16-1.37.2-1.37 1.16-1.37 1.16.26 1.16 1.4zm-1.81-.87a1.8 1.8 0 0 0-.11.84c0 .95.07 1 .76 1s.77-.1.77-1-.08-1-.76-1c-.39-.01-.58.04-.66.16zm2.69-.46v.31a.76.76 0 0 1 .75-.38c.5 0 .72.24.72.75v.18h-.38v-.21c0-.27-.12-.39-.43-.39a.57.57 0 0 0-.56.27 1.17 1.17 0 0 0-.07.52v1.58h-.38v-2.62h.38zm4.01 2.8a1.05 1.05 0 0 1-.13.64c-.16.25-.47.36-1 .36s-.82-.09-.94-.33A.86.86 0 0 1 59 77h.37c0 .46.11.53.69.53s.73-.14.73-.64v-.52a.43.43 0 0 1-.26.27 1.41 1.41 0 0 1-.58.09 1.12 1.12 0 0 1-.77-.23c-.2-.2-.27-.46-.27-1.07s0-.92.24-1.14a1 1 0 0 1 .83-.27c.45 0 .69.11.83.4v-.35h.38v2.8zm-1.87-1.53c0 .92.11 1.07.73 1.07s.75-.2.75-1.09-.14-1-.75-1-.73.21-.73 1.02z" fill="#fff"/></svg>