<svg xmlns="http://www.w3.org/2000/svg" width="91" height="91"><defs><linearGradient id="a" x1="45.7" y1="1002.13" x2="45.7" y2="907.15" gradientTransform="translate(0 -909)" gradientUnits="userSpaceOnUse"><stop offset="0" stop-color="#2a4980"/><stop offset=".7" stop-color="#518df7"/></linearGradient></defs><path fill="url(#a)" d="M-1.81-1.85h95.02v94.98H-1.81z"/><ellipse cx="45.5" cy="14.05" rx="81.28" ry="31.85" style="isolation:isolate" fill="#fff" opacity=".25"/><text transform="translate(5.5 48.87)" style="isolation:isolate" font-size="11.322" fill="#ddd" font-family="VegaSB-Bold,VegaSB" font-weight="700" letter-spacing="-.049em">Help</text><text transform="translate(26.74 48.87)" style="isolation:isolate" font-size="11.322" fill="#fff" font-family="VegaSB-Bold,VegaSB" font-weight="700" letter-spacing="-.049em">Cen</text><text transform="translate(44.03 48.87)" style="isolation:isolate" font-size="11.322" fill="#fff" font-family="VegaSB-Bold,VegaSB" font-weight="700" letter-spacing="-.079em">t</text><text transform="translate(47.16 48.87)" style="isolation:isolate" font-size="11.322" fill="#fff" font-family="VegaSB-Bold,VegaSB" font-weight="700" letter-spacing="-.048em">er</text><text transform="translate(56.41 48.87)" style="isolation:isolate" font-size="11.322" fill="#ffdf70" font-family="VegaSB-Bold,VegaSB" font-weight="700" letter-spacing="-.048em">Li</text><text transform="translate(63.23 48.87)" style="isolation:isolate" font-size="11.322" fill="#ffdf70" font-family="VegaSB-Bold,VegaSB" font-weight="700" letter-spacing="-.059em">v</text><text transform="translate(67.9 48.87)" style="isolation:isolate" font-size="11.322" fill="#ffdf70" font-family="VegaSB-Bold,VegaSB" font-weight="700" letter-spacing="-.05em">e!</text><path d="M80.86 37.66a1.09 1.09 0 0 1 1.51 1.51l-2.91 2.91a1.1 1.1 0 0 1-1.52-1.51zm3.76 6.63c.51 0 .88.45.88 1.09a1 1 0 0 1-.88 1H80.5a.91.91 0 0 1-.86-1 1 1 0 0 1 .86-1.09zm-1.99 7.44a1.09 1.09 0 0 1-1.52 1.51l-2.91-2.91a1.1 1.1 0 0 1 .33-1.52 1.11 1.11 0 0 1 1.19 0z" fill="#faa61a"/></svg>