<svg xmlns="http://www.w3.org/2000/svg" width="91" height="91"><defs><linearGradient id="a" x1="46.06" y1="78.03" x2="46.06" y2="27.11" gradientUnits="userSpaceOnUse"><stop offset=".45" stop-color="#fff"/><stop offset="1" stop-color="#fff" stop-opacity="0"/></linearGradient></defs><path d="M44.17 51.61c2.49.19 4.08 1.82 4.89 4.14a9.49 9.49 0 0 1 .2 5.51 6.15 6.15 0 0 1-5.59 4.92c-2.55.18-5.12.06-7.68.07 0 0-.07-.06-.13-.1V51.56c2.81.01 5.58-.14 8.31.05zM39.73 63a21.76 21.76 0 0 0 2.8 0c1.85-.24 3-1.63 3.07-3.72a7.71 7.71 0 0 0-.15-1.92 3.12 3.12 0 0 0-3.35-2.76h-2.37zm33.2 3.25h3.18v-7.58c1 1 1.89 2 2.81 3a1.35 1.35 0 0 0 1.15.51h3.41l-4.13-3.75 4.66-7h-4c-.18 0-.4.27-.51.46-.8 1.28-1.58 2.56-2.37 3.85a2 2 0 0 1-1-2.08v-2.2h-3.2zm-16.51-3.78a5.58 5.58 0 0 1-6.49-5.23 5.42 5.42 0 0 1 5-6.08c3.15-.3 6 1.3 6.15 3.51h-2.53a1 1 0 0 1-1-.48 2.43 2.43 0 0 0-2.84-.59 2.18 2.18 0 0 0-1.2 2.4h7.83c.34 3.47-1.72 6.15-4.92 6.47zm-.89-2.35c1.37.07 2.16-.63 2.36-2.14h-4.37a2 2 0 0 0 2.01 2.14zm16.07-1.03h-3.11c-.62 1.12-1.31 1.48-2.45 1.13a1.2 1.2 0 0 1-.73-.76c0-.22.34-.66.62-.76a20.55 20.55 0 0 1 2.07-.51c.62-.16 1.26-.31 1.86-.52a2.74 2.74 0 0 0 2.06-2.4A3.34 3.34 0 0 0 70.51 52a8 8 0 0 0-7.36 0 3.58 3.58 0 0 0-1.59 3h3c.14 0 .31-.27.39-.44a2.2 2.2 0 0 1 3.18-.69.85.85 0 0 1-.33 1.52c-.72.25-1.49.38-2.23.58a20.54 20.54 0 0 0-2.07.61 2.58 2.58 0 0 0-1.75 2.52 2.72 2.72 0 0 0 1.49 2.7 7.28 7.28 0 0 0 4.72.64 6.94 6.94 0 0 0 2.17-.72 2.73 2.73 0 0 0 1.47-2.63z" fill="#313131"/><circle cx="12.48" cy="72.2" r="2.04" fill="#5f8b3c"/><path d="M7.25 51.35h10.66c-1.88 0-3.39.63-3.39 1.29v13.64l-7.16-.8c1.81 0 3.48-.34 3.48-.89v-12c-.01-.59-1.61-1.24-3.59-1.24z" fill="#5f8b3c"/><path d="M33.93 61.05c0-5.63-4.12-10.2-9.21-10.2s-9.21 4.57-9.21 10.2 4.12 10.21 9.21 10.21 9.21-4.57 9.21-10.21zm-3.88 0c0 5.45-2.36 9.86-5.27 9.86S19.5 66.45 19.5 61s2.36-9.85 5.28-9.85 5.27 4.41 5.27 9.85z" fill="#5f8b3c"/><path fill="url(#a)" d="M6.06 27.11h80v50.92h-80z"/><path d="M35.86 50.92V36.35c.06-.05.1-.1.13-.1 2.56 0 5.13-.11 7.68.07a6.14 6.14 0 0 1 5.59 4.92 9.49 9.49 0 0 1-.2 5.51c-.8 2.32-2.38 4-4.88 4.13-2.74.2-5.51.04-8.32.04zm3.87-3h2.37a3.13 3.13 0 0 0 3.35-2.75 7.74 7.74 0 0 0 .15-1.92c-.1-2.1-1.22-3.49-3.07-3.73a21.76 21.76 0 0 0-2.8 0zm33.2-11.67h3.18v7.58c1-1 1.89-2 2.81-3a1.34 1.34 0 0 1 1.15-.5h3.41L79.35 44l4.66 7h-4c-.18 0-.4-.27-.51-.46-.8-1.28-1.58-2.56-2.37-3.85a2 2 0 0 0-1 2.08v2.2h-3.2zM61.35 46.48h-7.83a2.18 2.18 0 0 0 1.2 2.35 2.43 2.43 0 0 0 2.84-.6 1.06 1.06 0 0 1 1-.47h2.38a.42.42 0 0 1 .15 0c-.21 2.2-3 3.8-6.15 3.5a5.41 5.41 0 0 1-5-6.07A5.57 5.57 0 0 1 56.43 40c3.19.35 5.25 3 4.92 6.48zm-7.83-2h4.37c-.2-1.5-1-2.21-2.36-2.13a2 2 0 0 0-2.01 2.16zM71.6 43.4h-3.11c-.62-1.12-1.31-1.48-2.45-1.13a1.21 1.21 0 0 0-.73.77c0 .21.34.65.62.75a20.58 20.58 0 0 0 2.09.52 17.09 17.09 0 0 1 1.86.52 2.71 2.71 0 0 1 2.06 2.39 3.34 3.34 0 0 1-1.43 3.24 8 8 0 0 1-7.36 0 3.58 3.58 0 0 1-1.59-3h3c.14 0 .31.26.39.43a2.19 2.19 0 0 0 3.18.69.84.84 0 0 0-.33-1.51c-.72-.26-1.49-.39-2.23-.59s-1.4-.35-2.07-.6a2.6 2.6 0 0 1-1.75-2.53 2.73 2.73 0 0 1 1.49-2.7 7.28 7.28 0 0 1 4.76-.54 6.67 6.67 0 0 1 2.17.71 2.75 2.75 0 0 1 1.43 2.58z" fill="#313131"/><circle cx="12.48" cy="30.29" r="2.04" fill="#5f8b3c"/><path d="M7.25 51.15h10.66c-1.88 0-3.39-.64-3.39-1.3V36.21L7.36 37c1.81 0 3.48.34 3.48.9v11.95c-.01.66-1.61 1.3-3.59 1.3z" fill="#5f8b3c"/><path d="M24.72 31.24c-5.08 0-9.21 4.56-9.21 10.2s4.13 10.2 9.21 10.2 9.22-4.56 9.22-10.2-4.13-10.2-9.22-10.2zm.06 20.11c-2.92 0-5.28-4.42-5.28-9.86s2.36-9.86 5.28-9.86 5.27 4.41 5.27 9.86-2.36 9.86-5.27 9.86z" fill="#5f8b3c"/><path d="M34.23 49.65c1 5-1.78 7.07-4 7.07a4.23 4.23 0 0 1-4.48-4.18c0-3.08 1-5.67-1.19-5.67-1.21 0-2.29 1.39-2.19 3.28-.7-2.69 1-3.78 2.29-3.78 2.68 0 3.88 3 4.18 4.38.35 1.65 1.69 4.18 3 4.18s2.39-2.59 2.39-5.28z" fill="#5f8b3c"/><ellipse cx="45.6" cy="14.58" rx="71.19" ry="31.4" style="isolation:isolate" fill="#fff" opacity=".25"/></svg>