<svg xmlns="http://www.w3.org/2000/svg" viewBox="0 0 80 80"><path fill="#d40101" d="M20.65 44.38l12.06 16.68h9.47L26.23 39l14.61-20.06h-8.95L20.65 34.38V18.94h-7.71v42.12h7.71V44.38z"/><path d="M43 61.06V18.94h12a11.53 11.53 0 0 1 5.85 1.28 8.52 8.52 0 0 1 3.71 3.69 14.14 14.14 0 0 1 1.33 5.81A12.85 12.85 0 0 1 64.57 35a9 9 0 0 1-3.51 3.67 8.59 8.59 0 0 1 4.45 3.82 12.64 12.64 0 0 1 1.55 6.38 16.66 16.66 0 0 1-.77 5.68 10 10 0 0 1-2.51 3.75 8.88 8.88 0 0 1-3.49 2.08 16.29 16.29 0 0 1-5.14.7zm4.22-24.42h6.89a10.59 10.59 0 0 0 4-.62 4.3 4.3 0 0 0 2.34-2 7.26 7.26 0 0 0 1-3.64 8.59 8.59 0 0 0-.76-3.69 4.18 4.18 0 0 0-2.18-2.18 13.7 13.7 0 0 0-4.84-.59h-6.45zm0 19.45h7.93a13.51 13.51 0 0 0 2.87-.2 5.84 5.84 0 0 0 2.43-1.15 5.72 5.72 0 0 0 1.61-2.34 9.3 9.3 0 0 0 .63-3.55 8.66 8.66 0 0 0-.91-4.09 5.18 5.18 0 0 0-2.53-2.45 12.1 12.1 0 0 0-4.66-.7h-7.37z"/></svg>