<svg xmlns="http://www.w3.org/2000/svg" width="91" height="91"><path d="M28.51 65.89c-2.92 6.58 2.3 12.24 6.38 12.24 5.09 0 8.91-4.85 8.91-9.69v-26s13.9 15.37 18.36 20.65c1.05 1.25 3.19 2.29 7.13 2.29A8.79 8.79 0 0 0 78 56.46a8.34 8.34 0 0 0-5.61-8.15c-6.39-2.45-25.53-9.44-25.53-9.44S62.9 35.1 68.28 34a7.14 7.14 0 0 0 5.35-6.63c0-3.1-3.31-5.61-7.4-5.61a7.71 7.71 0 0 0-5.86 2c-3.81 2.81-15 11.47-15 11.47s6.38-12.58 8.42-16.82c1.58-3.29-1.83-5.61-4.08-5.61-3.83 0-7.9 3.06-7.9 5.87 0 4.2-.26 16.82-.26 16.82s-7.39-8.67-10.2-11.47a3.33 3.33 0 0 0-2.55-.77c-3.06 0-7.13 3.08-7.13 6.88a3 3 0 0 0 1.78 3.06c3.82 1.53 15 5.61 15 5.61S23.92 42.7 18.82 44c-2.34.59-5.86 3.76-5.86 8.41a4.33 4.33 0 0 0 6.88 3.83c5-3.34 19.63-13.77 19.63-13.77S31.14 60 28.51 65.89z" fill="#fd850b"/></svg>