<svg xmlns="http://www.w3.org/2000/svg" width="91" height="91"><path d="M13.5 49.41c.51-2 1-3.86 1.48-5.74.44-1.7.88-3.41 1.3-5.12.06-.24.14-.35.43-.35h4.63v14.29h-3.22V41.77c-.11.5-.22 1-.35 1.49-.84 3-1.67 6-2.53 9a.39.39 0 0 1-.27.23h-3a.36.36 0 0 1-.28-.21c-.95-3.41-1.87-6.82-2.81-10.23 0-.09-.06-.2-.11-.37V52.5H5.53V38.62c0-.32.07-.43.42-.42h4.25a.46.46 0 0 1 .55.41c.88 3.48 1.77 6.94 2.67 10.41a1.6 1.6 0 0 0 .08.39zm51.91 3.11h-3.22v-6.77a4.29 4.29 0 0 0-.21-1.23 1.47 1.47 0 0 0-1.49-1.08 1.49 1.49 0 0 0-1.54 1 5.76 5.76 0 0 0-.41 2.53v5.6h-3.27v-11h3.2v1.55h.09a10.23 10.23 0 0 1 .56-.89 2 2 0 0 1 .6-.58 4.4 4.4 0 0 1 4.52.4 9.28 9.28 0 0 1 1 1.21 8 8 0 0 0 .55-.75 2.58 2.58 0 0 1 2-1.23 4.46 4.46 0 0 1 2.83.36 3 3 0 0 1 1.73 2.68c.06 1.19.06 2.4.07 3.59v4.6h-3.3v-.41c0-2.18 0-4.36-.06-6.54a3.59 3.59 0 0 0-.18-1 1.49 1.49 0 0 0-1.46-1.08 1.54 1.54 0 0 0-1.59.94 6.29 6.29 0 0 0-.42 2.58v5.11zM42.13 47a5.52 5.52 0 0 1 1.8-4.44A5.84 5.84 0 0 1 48 41.2a6 6 0 0 1 3.44 1 5.35 5.35 0 0 1 2.24 4.21 6.62 6.62 0 0 1-.63 3.59 5.06 5.06 0 0 1-3.42 2.6 6.84 6.84 0 0 1-4.24-.26 5.2 5.2 0 0 1-3.26-4.7c-.02-.21 0-.44 0-.64zm3.2 0a17.1 17.1 0 0 0 .45 2 2.12 2.12 0 0 0 1.95 1.56 2 2 0 0 0 2.18-1.26 5.51 5.51 0 0 0 0-4.6 2 2 0 0 0-2.06-1.28 2.07 2.07 0 0 0-2 1.4 15.43 15.43 0 0 0-.51 2.11zm28.55 0a5.59 5.59 0 0 1 1.8-4.45 5.81 5.81 0 0 1 4.1-1.34 5.91 5.91 0 0 1 3.44 1 5.32 5.32 0 0 1 2.26 4.19 6.6 6.6 0 0 1-.7 3.7 5 5 0 0 1-3.37 2.53 6.87 6.87 0 0 1-4.25-.24 5.19 5.19 0 0 1-3.28-4.72c-.01-.24 0-.46 0-.67zm8.36 0a17 17 0 0 0-.44-2 2.22 2.22 0 0 0-4.1-.34 5.47 5.47 0 0 0 0 4.66 2.23 2.23 0 0 0 4.1-.18 17.17 17.17 0 0 0 .47-2.1zm-43.08-5.43h2.35v2H39.2v5.23a8.12 8.12 0 0 0 .07.85.89.89 0 0 0 .85.87c.39.06.78.06 1.22.1v1.85a.26.26 0 0 1-.16.18 9.16 9.16 0 0 1-3.5 0A2 2 0 0 1 36 50.7c0-.58-.08-1.17-.08-1.76v-5.28h-1.63v-2.08h1.64v-2.77h3.24c-.01.89-.01 1.8-.01 2.76z" fill="#d4291f"/><path d="M27 48.14a3.82 3.82 0 0 1 2.14-.47 3.81 3.81 0 0 0-2.14.47 1.41 1.41 0 0 0-.39.38 1.41 1.41 0 0 1 .39-.38zm2.17-.47h.62a4.8 4.8 0 0 0-.62 0zm-2.69 1.15a1.08 1.08 0 0 1 .16-.3 1.08 1.08 0 0 0-.16.3zm3.32-.61a2.77 2.77 0 0 1-.28 1.41 2.63 2.63 0 0 0 .28-1.41z" fill="none"/><path d="M33 47.9c0-1 0-2.09-.06-3.13a3.3 3.3 0 0 0-2.54-3.31 7.36 7.36 0 0 0-3.7-.07 4.16 4.16 0 0 0-2.82 2 3.19 3.19 0 0 0-.44 1.76h3.05c.37-1.42 1-1.91 2.17-1.65.91.21 1.32 1.1 1.07 2.27-.65 0-1.3 0-1.94.09A6.76 6.76 0 0 0 24.34 47a3.21 3.21 0 0 0 .66 5.49 5 5 0 0 0 4-.18 1 1 0 0 0 .57-.61 6.35 6.35 0 0 1 .23-.7h.06c.07.49.14 1 .22 1.47h3.06c-.04-1.47-.07-3.05-.14-4.57zm-3.51 1.72a1.84 1.84 0 0 1-.92.82 1.89 1.89 0 0 1-.52.13 1.8 1.8 0 0 1-1-.17 1.1 1.1 0 0 1-.28-.2l-.11-.12a1.18 1.18 0 0 1-.16-.29.88.88 0 0 1-.05-.15 1.24 1.24 0 0 1 0-.33 1.38 1.38 0 0 1 .55-1.17 3.81 3.81 0 0 1 2.14-.47h.62v.51a2.86 2.86 0 0 1-.28 1.41z" fill="#d4291f"/><path d="M28.6 50.44a1.89 1.89 0 0 1-.52.13 1.89 1.89 0 0 0 .52-.13zm-1.96-.36a1.18 1.18 0 0 1-.16-.29 1.18 1.18 0 0 0 .16.29zm.36.32a1.1 1.1 0 0 1-.28-.2 1.1 1.1 0 0 0 .28.2 1.8 1.8 0 0 0 1 .17 1.8 1.8 0 0 1-1-.17zm2.79-2.69v.5c.01-.21.01-.33 0-.5zm-3.36 1.93a1.24 1.24 0 0 1 0-.33 1.24 1.24 0 0 0 0 .33z" fill="#d4291f"/></svg>