<svg xmlns="http://www.w3.org/2000/svg" width="91" height="91"><path d="M23.72 55.58V26h6.71v1.23c-3.66.31-3.81.55-3.81 3.21v20.77c0 2.63.08 2.84 3.81 3.15v1.23zm-10.66 0V26h6.71v1.23c-3.66.31-3.81.55-3.81 3.21V51.2c0 2.63.07 2.84 3.81 3.15v1.23zm46.15 0v-1.24C62.83 54 63 53.83 63 51.16V30.39c0-2.67-.18-2.87-3.81-3.18V26h6.71v29.6zm10.72 0v-1.24c3.63-.31 3.81-.51 3.81-3.18V30.39c0-2.67-.18-2.87-3.81-3.18V26h6.71v29.6z" fill="#006697"/><path d="M40.64 18.45a8.54 8.54 0 0 0-1.37 6.38.28.28 0 0 1 .17.2 19.51 19.51 0 0 0 3.61 7.33.35.35 0 0 1 .06.09c.23-.05.46-.09.7-.12a26.81 26.81 0 0 1 .2-7.92.34.34 0 0 1 .09-.15 11.45 11.45 0 0 0-3.45-5.79zm8.03 2.27c-2.19 0-3.56 1.63-4.22 3.52a.27.27 0 0 1 .1.29 26.74 26.74 0 0 0-.18 7.72h1.18a22.59 22.59 0 0 1 3.37-7.45 11 11 0 0 1 .18-4h-.45z" fill="#ffc200"/><path d="M38.28 21.85c-2.26.29-2.61 2.66-2 4.45a.23.23 0 0 1 .17.07c1.84 1.53 4.12 4.23 4.78 6.68a9.16 9.16 0 0 1 1.23-.47A19.81 19.81 0 0 1 39 25.33c-1.44-.5-1.07-2.33-.72-3.48zm14.59 1.28a5.42 5.42 0 0 0-3.48 1.77.3.3 0 0 1 0 .27 22.28 22.28 0 0 0-3.24 7.18 8.65 8.65 0 0 1 2.12.58.29.29 0 0 1 0-.31c1.33-1.72 2.84-3.71 4.33-5.33a.28.28 0 0 1 .18-.09 6.19 6.19 0 0 1 1.93-3.27 2.45 2.45 0 0 0-1.83-.8z" fill="#ffc200"/><path d="M33.49 24.43a7.28 7.28 0 0 0-.74 2.63.13.13 0 0 1 .07.06A27.18 27.18 0 0 0 36.2 30a6.16 6.16 0 0 1 1.55 2.4c.38.89.67 1.81.91 2.51a8.64 8.64 0 0 1 2.13-1.62.13.13 0 0 1 0-.09c-.59-2.22-2.83-4.93-4.61-6.4a.28.28 0 0 1-.09-.29l-2.57-2.07zm23.62 1.36a6 6 0 0 0-4.06 1.63.26.26 0 0 1-.07.25c-1.46 1.59-3 3.57-4.3 5.29a.25.25 0 0 1-.17.11 8.63 8.63 0 0 1 2.18 1.45 14.29 14.29 0 0 0 6.32-5.42.28.28 0 0 1 .29-.1 12.52 12.52 0 0 1 1.77-2.85 5.75 5.75 0 0 0-1.96-.36z" fill="#ffc200"/><path d="M32 26.47c-2 1.09-1.56 3.59-.63 5.33a.29.29 0 0 1 .22.13 20.26 20.26 0 0 0 5.54 5.22 8.55 8.55 0 0 1 1.17-1.82.27.27 0 0 1-.09-.12c-.25-.74-.55-1.7-.93-2.6a5.8 5.8 0 0 0-1.41-2.19 26 26 0 0 1-3.44-3 .27.27 0 0 1 0-.32 2.19 2.19 0 0 0-.39-.68zm27.53 2.22a4.64 4.64 0 0 0-2 .44.27.27 0 0 1 0 .25 14.84 14.84 0 0 1-6.39 5.56 8 8 0 0 1 1.21 1.63.36.36 0 0 1 .07-.17 15.65 15.65 0 0 1 6.08-4.27h.08c.45-2.07 2-1.76 3.55-1.63a2.57 2.57 0 0 0-2.59-1.79zm-32.24 2.13c-1 2 .33 4.41 2.05 5.67a.25.25 0 0 1 .16-.05.23.23 0 0 1 .14 0 35.59 35.59 0 0 0 6.86 2.36 8.07 8.07 0 0 1 .37-1.18 20.18 20.18 0 0 1-5.78-5.42 10.88 10.88 0 0 1-3.8-1.4z" fill="#ffc200"/><path d="M62.3 31.83a10.21 10.21 0 0 0-3.42.59.27.27 0 0 1-.19.23 15.18 15.18 0 0 0-5.85 4.12.27.27 0 0 1-.34.06q.21.41.39.84a.28.28 0 0 1 .22-.27 31.87 31.87 0 0 1 5.75-.74 16.79 16.79 0 0 1 1.88.07h.09c2.05-.86 4.24-2 5.26-4a8.81 8.81 0 0 0-3.8-.87zm-33.96 4.89a12.43 12.43 0 0 0-5.79 1.46 9 9 0 0 0 3.17 2.74v-.12c.38.07.5.26.92.26h.06a18.08 18.08 0 0 0 3.82.23 14.12 14.12 0 0 0 5.71-1.24c0-.22.06-.44.1-.66a35.69 35.69 0 0 1-7-2.42.32.32 0 0 1-.15-.21h-.88zm31.01.49a31.06 31.06 0 0 0-6.12.73.29.29 0 0 1-.26-.08 8.26 8.26 0 0 1 .37 1.29.26.26 0 0 1 .2-.08 19.15 19.15 0 0 1 7.16 2.58.27.27 0 0 1 .08.07 9.56 9.56 0 0 1 4-.3 4.18 4.18 0 0 0-2.59-3.79c-.47-.12-.89-.29-1.33-.43a.29.29 0 0 1-.22.07 11.42 11.42 0 0 0-1.34-.07z" fill="#ffc200"/><path d="M53.42 39.61a8.56 8.56 0 0 1-.08 3.07 49.41 49.41 0 0 1 6.66 3.2.29.29 0 0 1 .12.18 5.89 5.89 0 0 1 2.21 1.36c1-.81.14-3.19-.22-3.71a8.75 8.75 0 0 0-1.43-1.55.31.31 0 0 1-.23 0 18.8 18.8 0 0 0-6.95-2.5zm-17.17 1.07a15.39 15.39 0 0 1-5.68 1.17 18.5 18.5 0 0 1-3.93-.24 2.51 2.51 0 0 1-1-.26v-.13a5.81 5.81 0 0 0-1.77-.28c.06.11 1.74 2.65 4 3.16a.26.26 0 0 1 .17-.05c2.31.06 6-1 8.36-1.31a8.11 8.11 0 0 1-.21-1.84 1.48 1.48 0 0 1 0-.21zm16.95 2.53a8.79 8.79 0 0 1-1.2 2.63.24.24 0 0 1 .15.09 16.87 16.87 0 0 0 6 3.77.29.29 0 0 1 .18.22c1.08.33 2.17.65 3.22 1a5.66 5.66 0 0 0-1.62-4.57.29.29 0 0 1-.22 0 47.42 47.42 0 0 0-6.51-3.14z" fill="#ffc200"/><path d="M36.58 43.29c-2.12.3-5.42 1.22-7.87 1.31-.92.86-2.58.42-3.32-.39A2.38 2.38 0 0 0 27 46.94a15 15 0 0 0 5-.75c1.83-.52 3.64-1.18 5.09-1.57a7.93 7.93 0 0 1-.51-1.33zm.77 1.82a.13.13 0 0 1-.08 0c-1.41.38-3.25 1-5.12 1.58a16.86 16.86 0 0 1-4.82.8A13.24 13.24 0 0 0 26 48c.83 1.95 3 2.62 5 2.39a.24.24 0 0 1 .15-.13 35.25 35.25 0 0 0 7.1-3.9 9.77 9.77 0 0 1-.86-1.27zm14.31 1.13a8.29 8.29 0 0 1-1.41 1.43 20.63 20.63 0 0 1 5.25 4.65 2.73 2.73 0 0 1 2 .65 4.29 4.29 0 0 1 .68 2.33c2.16-1.12 1.36-3.63-.06-5.07a.31.31 0 0 1-.19 0 16.93 16.93 0 0 1-6.23-3.93.21.21 0 0 1 0-.06zm-13.08.55a35.27 35.27 0 0 1-7.07 3.92 10.66 10.66 0 0 0-3.24 5.72c.1.14.46.08.66.12a9.19 9.19 0 0 0 5.53-2.07.23.23 0 0 1 .08-.18 23.23 23.23 0 0 0 4.43-7 .47.47 0 0 1 .03-.1c-.14-.13-.28-.26-.41-.4z" fill="#ffc200"/><path d="M39.42 47.58a23.64 23.64 0 0 1-4.36 7c.2 1.38-1.5 2.05-2.7 2.23 1.28 1.8 3.51 1 4.74-.39a.33.33 0 0 1 0-.14 17.64 17.64 0 0 1 3.72-7.74 8.64 8.64 0 0 1-1.39-.93zm10.42.42a7 7 0 0 1-.82.51.25.25 0 0 1 0 .07 33.23 33.23 0 0 1 2.57 7.12.33.33 0 0 1 0 .14 10 10 0 0 0 5.16 3.89c.71-2.34-.15-4.9-1.48-6.91a.26.26 0 0 1-.21-.11A20.87 20.87 0 0 0 50 48.14a.25.25 0 0 1-.13-.18zm-1.3.71a8 8 0 0 1-1.34.51.26.26 0 0 1 0 .08 19.22 19.22 0 0 1-.52 7.59A10.12 10.12 0 0 1 48 60.72c2.25-.42 3.08-2.8 3.13-4.84a.3.3 0 0 1-.06-.14 33.73 33.73 0 0 0-2.52-7 .14.14 0 0 1 0-.06z" fill="#ffc200"/><path d="M41.31 48.76a.47.47 0 0 1-.06.09 17.4 17.4 0 0 0-3.62 7.51.3.3 0 0 1-.15.2c-.15 1-.31 2.1-.55 3.14a5.49 5.49 0 0 0 4.91-3.13.28.28 0 0 1 0-.25 63 63 0 0 0 1.81-6.79.16.16 0 0 1 0-.09 8.37 8.37 0 0 1-2.34-.68zm5.37.58a9 9 0 0 1-1.79.2h-.73a.24.24 0 0 1 0 .12 62 62 0 0 1-1.83 6.87.37.37 0 0 1-.07.12 6 6 0 0 1-.57 3.22 2.93 2.93 0 0 0 3.23-.54A8.92 8.92 0 0 0 46.24 57a.28.28 0 0 1-.05-.27 18.86 18.86 0 0 0 .5-7.34z" fill="#ffc200"/><path d="M45 64.79l-3.47 7.71h2.39l.64-1.57h3.35l.63 1.57h2.38l-3.39-7.71zm1.29 2l1.13 2.81H45.1zm-5.8 5.71h-2.32v-7.71h2.32zM28.8 64.79v7.72H33a3.72 3.72 0 0 0 2.32-.65 4 4 0 0 0 1-1.17 3.64 3.64 0 0 0 .43-1.9 4.15 4.15 0 0 0-.65-2.28 3.62 3.62 0 0 0-.7-.76 3.33 3.33 0 0 0-1.22-.68 6.84 6.84 0 0 0-.92-.21 10.16 10.16 0 0 0-1.26-.08zm2.32 1.55h1a3 3 0 0 1 1 .18 1.78 1.78 0 0 1 .87.71 2.5 2.5 0 0 1 .35 1.47 2 2 0 0 1-.66 1.79 2.75 2.75 0 0 1-1.58.43h-1zm-3.89 6.16h-5.81v-7.71h5.71v1.55h-3.39v1.42H27v1.55h-3.26V71h3.5zm-7.77 0h-2.32V68L15 70.62h-.18L12.75 68v4.5H10.5v-7.71h2.1l2.4 2.89 2.39-2.89h2.1zm61.04-.05h-2.32v-7.72h2.32zm-3.34 0h-2.84l-2.95-3.61v3.61h-2.32v-7.72h2.32v3.46l2.8-3.46h2.53l-2.88 3.61zm-10.07 0h-2.32v-7.72h2.32zm-3.4-7.72l-3.34 7.82H59L57 68l-2.06 4.55h-1.35l-3.28-7.82h2.41l1.6 4.27 1.85-4.28h1.65L59.63 69l1.67-4.28z"/><path d="M53.53 40.9a8.65 8.65 0 1 1-8.65-8.65h0a8.65 8.65 0 0 1 8.65 8.65z" fill="#8e7650" stroke="#fff" stroke-width=".292"/></svg>