<svg xmlns="http://www.w3.org/2000/svg" xmlns:xlink="http://www.w3.org/1999/xlink" width="91" height="91"><defs><linearGradient id="b" x1="67.73" y1="-30.84" x2="47.8" y2="-17.87" gradientTransform="matrix(1 0 0 -1 0 -5)" gradientUnits="userSpaceOnUse"><stop offset="0" stop-color="#80c3e6"/><stop offset="1" stop-color="#3380c2"/></linearGradient><linearGradient id="c" x1="71.22" y1="-60.81" x2="56.33" y2="-50.97" gradientTransform="matrix(1 0 0 -1 0 -5)" gradientUnits="userSpaceOnUse"><stop offset="0" stop-color="#f38649"/><stop offset=".18" stop-color="#f28147"/><stop offset=".41" stop-color="#ef7242"/><stop offset=".65" stop-color="#ea5a3a"/><stop offset=".91" stop-color="#e4382e"/><stop offset="1" stop-color="#e12a29"/></linearGradient><linearGradient id="a" x1="22.15" y1="-39.79" x2="50.64" y2="-21.99" gradientTransform="matrix(1 0 0 -1 0 -5)" gradientUnits="userSpaceOnUse"><stop offset="0" stop-color="#42ab4a"/><stop offset="1" stop-color="#add155"/></linearGradient><linearGradient id="d" x1="28.37" y1="-71.66" x2="51.53" y2="-34.6" xlink:href="#a"/></defs><path fill="url(#b)" d="M61.11 33.74l11.17-17.87H45.41l-3.7 5.96 19.4 11.91z"/><path style="isolation:isolate" opacity=".15" d="M41.71 21.83l1.9-3.05 17.5 14.96-19.4-11.91z"/><path fill="url(#c)" d="M67.02 66.14V39.28l-5.79-3.62-12.19 19.25 17.98 11.23z"/><path style="isolation:isolate" opacity=".15" d="M49.04 54.91l3.01 1.88 9.18-21.13-12.19 19.25z"/><path fill="url(#a)" d="M23.75 10.5v26.86l6.22 3.63 31.14-7.25L23.75 10.5z"/><path fill="url(#d)" d="M29.84 43.03L18.67 60.6h26.86l15.7-24.94-31.39 7.37z"/><path d="M17.36 78.82H19l.83-10.24h-1.66v-1.43h3.69l3.34 8c.11.31.21.62.29.94.08-.32.18-.63.29-.94l3.35-8h3.68v1.43h-1.62L32 78.82h1.62v1.44h-5v-1.45h1.58L29.61 71a9.77 9.77 0 0 1 .06-1.08h-.06a8.83 8.83 0 0 1-.3 1l-3 6.89H24.7l-3-6.89a8.83 8.83 0 0 1-.3-1h-.05a7.81 7.81 0 0 1 .06 1.08l-.59 7.84h1.57v1.45h-5zm23.99-11.89A6.59 6.59 0 0 1 48 73.44v.19a6.69 6.69 0 1 1-13.37 0 6.59 6.59 0 0 1 6.49-6.69h.19zm0 11.9a5 5 0 0 0 4.78-5.22 4.79 4.79 0 1 0-9.57 0 5 5 0 0 0 4.79 5.22zm7.93-.01h1.62V68.58h-1.63v-1.43h5.56a8.94 8.94 0 0 1 2.77.32c2.49.78 4.11 3 4.11 6.24s-1.58 5.38-4.11 6.2a8.53 8.53 0 0 1-2.75.36h-5.57zm5.46-.08a5.94 5.94 0 0 0 2.26-.33c1.75-.62 2.84-2.31 2.84-4.7S58.71 69.6 57 69a6 6 0 0 0-2.23-.3h-2v10.04zm7.62.08h1.22l3.36-5.19-3.31-5h-1.2v-1.48h4.12v1.43h-1l2.2 3.42a5.84 5.84 0 0 1 .33.53 4.07 4.07 0 0 1 .31-.53l2.09-3.43h-.93v-1.42h4v1.43h-1.18L69 73.8l3.32 5h1.24v1.44h-4.15v-1.43h1l-2.19-3.42a4.86 4.86 0 0 1-.33-.54s-.11.24-.3.54l-2.09 3.42h1v1.45h-4z"/></svg>