<svg xmlns="http://www.w3.org/2000/svg" xmlns:xlink="http://www.w3.org/1999/xlink" width="91" height="91"><defs><radialGradient id="a" cx="47.67" cy="-107.09" r="37.95" gradientTransform="matrix(1 0 0 -1 0 -57)" gradientUnits="userSpaceOnUse"><stop offset="0" stop-color="#faaf40"/><stop offset=".04" stop-color="#f9a538"/><stop offset=".11" stop-color="#f89d31"/><stop offset=".23" stop-color="#f89a2f"/><stop offset=".53" stop-color="#f7922d"/><stop offset="1" stop-color="#f37b28"/></radialGradient><radialGradient id="c" cx="47.67" cy="111.33" r="37.95" gradientTransform="translate(0 2)" xlink:href="#a"/><radialGradient id="d" cx="47.67" cy="111.33" r="37.95" gradientTransform="translate(0 2)" xlink:href="#a"/><linearGradient id="b" x1="9.93" y1="-102.1" x2="18.01" y2="-102.1" gradientTransform="matrix(1 0 0 -1 0 -57)" gradientUnits="userSpaceOnUse"><stop offset="0" stop-color="#929497"/><stop offset=".12" stop-color="#757578"/><stop offset=".28" stop-color="#575658"/><stop offset=".44" stop-color="#403e3f"/><stop offset=".61" stop-color="#302d2e"/><stop offset=".79" stop-color="#262223"/><stop offset="1" stop-color="#231f20"/></linearGradient><linearGradient id="e" x1="11.48" y1="-99.4" x2="14.84" y2="-104.19" gradientTransform="matrix(1 0 0 -1 0 -57)" gradientUnits="userSpaceOnUse"><stop offset="0" stop-color="#231f20"/><stop offset="1" stop-color="#231f20" stop-opacity="0"/></linearGradient><linearGradient id="f" x1="5.5" y1="-99.53" x2="20.27" y2="-99.53" xlink:href="#b"/></defs><path d="M24.33 55.35v-7c0-1.48-.62-2.22-1.81-2.22s-1.82.74-1.82 2.22v7h-3.6v-7c0-1.48-.58-2.22-1.78-2.22s-1.82.74-1.82 2.22v7H9.93V48a4 4 0 0 1 1.6-3.48 6.13 6.13 0 0 1 3.79-1 4.58 4.58 0 0 1 3.57 1.24c.64-.83 1.85-1.24 3.6-1.24a6 6 0 0 1 3.78 1 4 4 0 0 1 1.6 3.48v7.43h-3.54z" fill="url(#a)"/><path d="M34.67 55.66a6.23 6.23 0 0 1-4.49-1.72 5.94 5.94 0 0 1-1.79-4.43 5.82 5.82 0 0 1 1.79-4.43 6.24 6.24 0 0 1 4.49-1.73 6.19 6.19 0 0 1 4.49 1.73A5.93 5.93 0 0 1 41 49.51a5.83 5.83 0 0 1-1.79 4.43 6.29 6.29 0 0 1-4.54 1.72zm0-9.45a2.34 2.34 0 0 0-2 1 4.27 4.27 0 0 0-.06 4.61 2.49 2.49 0 0 0 3.47.59 2.36 2.36 0 0 0 .59-.59 3.69 3.69 0 0 0 .68-2.28 3.9 3.9 0 0 0-.65-2.27 2.31 2.31 0 0 0-2-1zm12.92 9.45a6.24 6.24 0 0 1-4.49-1.72 5.94 5.94 0 0 1-1.78-4.43 5.81 5.81 0 0 1 1.78-4.43 6.24 6.24 0 0 1 4.49-1.73 6.17 6.17 0 0 1 4.49 1.73 5.93 5.93 0 0 1 1.79 4.43 5.83 5.83 0 0 1-1.79 4.43 6.26 6.26 0 0 1-4.49 1.72zm0-9.45a2.34 2.34 0 0 0-2 1 4.25 4.25 0 0 0-.06 4.61 2.49 2.49 0 0 0 3.47.58 2.36 2.36 0 0 0 .59-.59 3.69 3.69 0 0 0 .68-2.28 3.91 3.91 0 0 0-.66-2.27 2.31 2.31 0 0 0-2-1zm15.94 9.11v-1.17a3.07 3.07 0 0 1-1.63 1 5.58 5.58 0 0 1-1.9.35 5.16 5.16 0 0 1-4.09-1.75 6.29 6.29 0 0 1-1.54-4.34 6.2 6.2 0 0 1 1.51-4.28 5.2 5.2 0 0 1 4-1.72c1.9 0 3.11.52 3.66 1.54v-9.67H67v20zm0-6.64a2.56 2.56 0 0 0-.92-1.85 2.75 2.75 0 0 0-1.88-.89A2.55 2.55 0 0 0 58.55 47a4.47 4.47 0 0 0 0 4.84A2.49 2.49 0 0 0 60.72 53a3.05 3.05 0 0 0 1.82-.77 2.18 2.18 0 0 0 1-1.6v-2z" fill="url(#c)"/><path d="M68.27 55.32v-20h3.56v20z" fill="url(#d)"/><path d="M76.12 50.58a3.47 3.47 0 0 0 1.07 1.88 2.78 2.78 0 0 0 1.91.8 4 4 0 0 0 1.6-.37c.71-.31 1-.64 1-1h3.75a5.82 5.82 0 0 1-2.71 2.93 8.19 8.19 0 0 1-3.94 1A6.5 6.5 0 0 1 74.3 54a5.8 5.8 0 0 1-1.82-4.46 5.92 5.92 0 0 1 1.82-4.52 6.51 6.51 0 0 1 4.7-1.64 6.06 6.06 0 0 1 4.89 2.06 7.65 7.65 0 0 1 1.63 5.14zM82 48.37a3.56 3.56 0 0 0-1-1.88 2.74 2.74 0 0 0-1.91-.8 2.54 2.54 0 0 0-1.88.77 4.07 4.07 0 0 0-1 1.91z" fill="url(#c)"/><path d="M10.27 45.2l-.37 1.85a6.65 6.65 0 0 0 8.28-2.92c-2.49-1.73-4.8 0-7.91 1.07" fill="#58595b"/><path d="M10.27 44.74c-.12.71-.21 1.38-.34 2.09 3.23 1.11 6.4.15 8.09-2.74-2.15-2.49-4.55-.43-7.76.65" fill="url(#b)"/><path d="M14.12 45.57a5.66 5.66 0 0 0-4.19 1.26c-.71-5.17 2.49-5 6.68-3.75a10.68 10.68 0 0 1-1.54 4 1.66 1.66 0 0 0-1-1.48" fill="url(#e)"/><path d="M5.5 44.74c5.42-3.26 8.46-3.88 14.77-4.53C13 46 12.76 44.74 5.5 44.74" fill="url(#f)"/><path fill="none" stroke="#4a4a4c" stroke-width=".103" d="M20.27 40.24l-5.82 4.22"/><path d="M13.35 42.49c.06.68-.09-.64 0 0" style="isolation:isolate" fill="#231f20" opacity=".23"/><path fill="none" stroke="#a8abad" stroke-width=".103" d="M5.5 44.74l8.95-.28"/><path d="M12.79 42.55c-1.54.43-6.58 1.54-6.65 2.19a21.37 21.37 0 0 0 0 3.11" fill="none" stroke="#f16922" stroke-width=".103"/><path d="M6.58 52.43C6 51 5.34 49.51 6.15 47.6a15.46 15.46 0 0 1 .43 4.83" fill="#f16922"/><ellipse cx="12.58" cy="42.46" rx=".25" ry=".12" transform="rotate(-19.61 12.566 42.456)" fill="#6d6e70"/></svg>