<svg xmlns="http://www.w3.org/2000/svg" width="91" height="91"><path d="M8.93 50.62a.64.64 0 0 0-.63.64v4.15H5.5v-6.14h2.8v.36a2 2 0 0 1 1.45-.36c1.45 0 2.62.89 2.62 2v4.15H9.66v-4.16a.69.69 0 0 0-.73-.64zm8.32 4.43c-.27.27-.73.36-1.63.36A2.4 2.4 0 0 1 13 53.34v-4.07h2.72v4.07a.77.77 0 0 0 .81.72.72.72 0 0 0 .72-.72v-4.07H20v6.14h-2.75zm7.23.36c-3.16 0-4.06-1.41-4.06-3.16s1-3 4.06-3c2.15 0 3.89 1 3.89 2.26h-3.25a.84.84 0 0 0-.73-.91.74.74 0 0 0-.81.64v2.17a.73.73 0 0 0 .81.63.84.84 0 0 0 .73-.9h3.25c0 1.26-1.74 2.27-3.89 2.27zm12.84-1.35c-.4 0-.72-.24-.72-.54v-.91h4.79c0-2.89-1.82-3.34-4.07-3.34-2.53 0-4 1-4 2.89 0 2.08 1.18 3.16 4 3.16 2.26 0 4-.9 4-2.08h-3.19a.82.82 0 0 1-.81.82zm.09-3.53c.72 0 .82.49.82 1.09H36.6c0-.6.09-1.09.81-1.09zM46.09 55c-.27.27-.73.36-1.63.36a2.39 2.39 0 0 1-2.62-2.08v-4.1h2.71v4.06a.77.77 0 0 0 .81.73.73.73 0 0 0 .73-.72v-4.07h2.71v6.14h-2.71zm3.16-1.57c0 1 1.78 1.89 4 1.89 2.44 0 3.89-.8 3.89-1.8 0-1.45-1.43-1.44-2.63-1.72s-2-.36-2-.81c0-.25.36-.46.81-.46a.68.68 0 0 1 .72.64h3.08c0-1.05-1.74-1.9-3.89-1.9s-3.89.81-3.89 1.81c0 .84.87 1.29 2 1.53 1.27.27 2.62.41 2.62.91 0 .3-.32.54-.72.54s-1-.28-1-.63z" fill="#353333"/><path d="M61.73 55.41c-3.26 0-4.07-1.41-4.07-3.16s.9-3 4.07-3c2.15 0 3.88 1 3.88 2.26h-3.25a.83.83 0 0 0-.72-.91.74.74 0 0 0-.82.64v2.17a.74.74 0 0 0 .82.63.83.83 0 0 0 .72-.9h3.25c0 1.26-1.73 2.27-3.88 2.27zm15.91-1.98c0 1 1.77 1.89 4 1.89 2.44 0 3.89-.8 3.89-1.8 0-1.45-1.42-1.44-2.62-1.72s-2-.36-2-.81c0-.25.36-.46.81-.46a.69.69 0 0 1 .73.64h3.05c0-1.05-1.74-1.9-3.89-1.9s-3.88.81-3.88 1.81c0 .84.87 1.29 2 1.53s2.62.41 2.62.91c0 .3-.33.54-.73.54s-1-.28-1-.63h-3m-.53-2.17a2.31 2.31 0 0 0-2.53-2 3 3 0 0 0-2.17.72 2.88 2.88 0 0 0-2.08-.72 2.08 2.08 0 0 0-1.53.45v-.36h-2.71v6h2.8v-4.09a.64.64 0 0 1 .63-.64.68.68 0 0 1 .72.64v4.06h2.71v-4.06a.64.64 0 0 1 .64-.64.74.74 0 0 1 .81.64v4.06h2.71z" fill="#868585"/><path d="M29.54 45.31l-1.08 10.1h4.88L32 45.31a2 2 0 0 1-2.44 0z" fill="#353333"/><path d="M30.5 41.88l-3.67-6.23L24 37.74l5 5.16a1.92 1.92 0 0 1 1.5-1.02zm1.98 1.01l5.09-5.11-2.74-2.19L31 41.87a1.92 1.92 0 0 1 1.48 1.02zm-.48 2.4l7.2 3.62 1.36-3.63-7.89-1.8a1.66 1.66 0 0 1 0 .32 1.94 1.94 0 0 1-.67 1.49zm-3.18-1.49a1.84 1.84 0 0 1 0-.33L21 45.26l1.26 3.66 7.22-3.63a1.94 1.94 0 0 1-.66-1.49z" fill="#ffe006"/></svg>