<svg xmlns="http://www.w3.org/2000/svg" width="91" height="91"><path d="M75.58 43.32C74.32 22.88 51.87 5.2 42.62 5S16.07 26.45 15.37 48.44C14.71 69.06 32.47 83.2 40.11 85c.21-9.7 1-45.42 1.13-49.59.27-8.51.7-21.75 2.13-22.19.82-.26 1.94 7.19 1.8 11.59v7.42c1.54-1.56 3.16-3.19 4.14-4.14 2.69-2.63 3.89-2.32 2.59 0-.79 1.43-4.21 6.22-6.72 9.69 0 7 0 15.8.07 24 3.56-4.12 7.9-9.07 10.18-11.26 4.8-4.6 5.31-4 3 .81-1.38 3-8.18 10.86-13.19 17.09 0 7.28 0 13.4.06 16.33 13.45-2.94 31.51-21.4 30.27-41.47" fill="#d96a31" fill-rule="evenodd"/></svg>