<svg xmlns="http://www.w3.org/2000/svg" width="91" height="91"><path d="M54.17 28.36c-.9-5.28-4.72-8-9.21-8-6.48 0-11.35 7.31-8.2 14a13.11 13.11 0 0 0-8.08 12.43 13.48 13.48 0 0 0 13.58 13.4c6.78 0 12-4.56 13.22-11.86a10.33 10.33 0 0 0 6.85-10c0-4.61-3.15-8.62-8.16-9.97zm.1 18.84C53.15 53.41 48.77 58 42 58a11.88 11.88 0 0 1-11.9-11.92c0-6 3.42-9.23 7.83-11.51-4.35-8.5 3.23-12.32 6.68-12.32 4.52 0 8.17 3.25 8.17 7.27a8.92 8.92 0 0 1 9 8.84c0 4.89-3.59 8.62-7.52 8.85z"/><path d="M56.25 70.52h-.93v-3.13a8.85 8.85 0 0 0 0-1.15A1.18 1.18 0 0 0 54 65.1a1.4 1.4 0 0 0-1.47 1.21c-.05 1-.05 2-.06 3 0 .4 0 .8.06 1.24h-1v-4.09a1.26 1.26 0 0 0-1.15-1.37 1.31 1.31 0 0 0-1.55 1.08c-.13 1.25-.07 2.52-.09 3.77v.56h-1.08v-5.87h1v1a2.17 2.17 0 0 1 1.94-1.16 1.94 1.94 0 0 1 1.79 1.21 2.49 2.49 0 0 1 1.78-1.19 1.76 1.76 0 0 1 2.15 1.7c.06.89 0 1.79 0 2.68zm-18.4.01h-1v-5.9h1v1a2.19 2.19 0 0 1 1.93-1.15 1.91 1.91 0 0 1 1.78 1.23 2.43 2.43 0 0 1 1.6-1.17 1.85 1.85 0 0 1 2.37 2v4h-1.07v-.39c0-1.26.06-2.52 0-3.78a1.17 1.17 0 0 0-1.24-1.24 1.4 1.4 0 0 0-1.51 1.22c-.05 1.11 0 2.23 0 3.35v.84h-1v-4.2a1.18 1.18 0 0 0-1.08-1.19 1.35 1.35 0 0 0-1.51.83 5.9 5.9 0 0 0-.24 1.56c-.06.97-.03 1.97-.03 2.99zm-13.71-1.68a3.89 3.89 0 0 1 .05-2.79 1.89 1.89 0 0 1 3.19-.59l.35.37c.11-.32.19-.58.27-.83a3.54 3.54 0 0 0-4.42.44 3.41 3.41 0 0 0 .1 4.42 3.24 3.24 0 0 0 4.28 0c0-.16 0-.34.06-.62-.21.18-.33.29-.46.39a2.15 2.15 0 0 1-3.42-.79z" fill="#202020"/><path d="M43.19 64.49a2.47 2.47 0 0 0-1.61 1.18 1.9 1.9 0 0 0-1.78-1.23 2.16 2.16 0 0 0-1.93 1.14v-1h-1v5.9h1v-3A5.9 5.9 0 0 1 38.1 66a1.33 1.33 0 0 1 1.51-.83 1.18 1.18 0 0 1 1.08 1.18c.05.59 0 1.17 0 1.76v2.45h1c0-.3-.05-.58-.05-.85 0-1.11 0-2.23.05-3.34a1.38 1.38 0 0 1 1.5-1.22 1.17 1.17 0 0 1 1.25 1.24v4.17h1.1v-4a1.84 1.84 0 0 0-2.35-2.07zm-22.68 2.8c-.37-.14-.76-.24-1.13-.4a1 1 0 0 1-.7-1 1 1 0 0 1 .63-.94 1.11 1.11 0 0 1 1.22.23c.14.14.25.3.41.49.08-.25.16-.45.23-.66a2 2 0 0 0 .06-.26 2.63 2.63 0 0 0-2.33-.18 1.73 1.73 0 0 0-1.07 1.7 1.4 1.4 0 0 0 1.1 1.46c.4.15.82.29 1.22.46a.87.87 0 0 1 .6 1 1 1 0 0 1-.81.91 1.49 1.49 0 0 1-1.51-.43 3.3 3.3 0 0 1-.36-.5l-.28 1a2.62 2.62 0 0 0 3.38-.38 1.54 1.54 0 0 0-.66-2.5zm52.76-1.78a3.09 3.09 0 0 1 .28.45c.15-.45.23-.7.3-.95a3.54 3.54 0 0 0-4.42.45 3.43 3.43 0 0 0 0 4.33 3.2 3.2 0 0 0 4.35.1v-.55c-.29.19-.51.37-.76.51a2.09 2.09 0 0 1-3.02-1.1 4 4 0 0 1 .1-2.69 1.89 1.89 0 0 1 3.17-.55zm-19.12-1.05a2.49 2.49 0 0 0-1.78 1.19 1.94 1.94 0 0 0-1.79-1.21 2.17 2.17 0 0 0-1.94 1.16v-1h-1v5.89h1.09v-.56c0-1.26 0-2.52.1-3.77a1.31 1.31 0 0 1 1.55-1.08 1.25 1.25 0 0 1 1.14 1.37v4.05h1c0-.44-.07-.84-.06-1.25v-3A1.41 1.41 0 0 1 54 65.09a1.19 1.19 0 0 1 1.29 1.15 10.87 10.87 0 0 1 0 1.14v3.14h.93v-1.68c0-.9.1-1.8 0-2.69a1.75 1.75 0 0 0-2.07-1.69zm11.78 1.27v-1.1H65v5.9h1c0-1.29-.07-2.53 0-3.76s.72-1.54 1.87-1.24c0-.34.06-.67.1-1-1.04-.25-1.49.47-2.04 1.2zm-52.39-1.3a2.91 2.91 0 0 0-3 3.14 2.87 2.87 0 0 0 3.05 3.12 2.87 2.87 0 0 0 3-3.12 2.93 2.93 0 0 0-3.05-3.14zM15.27 69a1.72 1.72 0 0 1-1.75 1.3 1.67 1.67 0 0 1-1.7-1.3 4.39 4.39 0 0 1 .12-3.15 1.63 1.63 0 0 1 1.56-1 1.6 1.6 0 0 1 1.62 1 4.69 4.69 0 0 1 .3 1.65 4.42 4.42 0 0 1-.15 1.5zm17-4.57a2.9 2.9 0 0 0-3.06 3.12 2.86 2.86 0 0 0 3 3.14 2.87 2.87 0 0 0 3.06-3.1 2.92 2.92 0 0 0-3-3.16zM34 69a1.8 1.8 0 0 1-3.45 0 4.48 4.48 0 0 1 0-2.85 1.68 1.68 0 0 1 1.6-1.27A1.63 1.63 0 0 1 33.9 66a4.34 4.34 0 0 1 .21 1.55A4.17 4.17 0 0 1 34 69zm25.58.44a2.39 2.39 0 0 1-.4-2 2.22 2.22 0 0 0 .4 2zm.32.31a1.57 1.57 0 0 1-.32-.31 1.57 1.57 0 0 0 .32.31z" fill="#202020"/><path d="M59.18 67.47h4.18a2.42 2.42 0 0 0-1.49-2.86 2.81 2.81 0 0 0-3.5 1.24 3.8 3.8 0 0 0-.3 2.67 3.06 3.06 0 0 0 5 1.37 2 2 0 0 0 0-.24 1.9 1.9 0 0 0 0-.33c-1.36.93-2.41 1.06-3.24.43a1.93 1.93 0 0 1-.33-.31 2.25 2.25 0 0 1-.32-1.97zm1.66-2.62c1 0 1.58.78 1.53 2.16h-3.19a1.88 1.88 0 0 1 1.66-2.16zm19.63 2.64A2.56 2.56 0 0 0 77 64.57c-1.64.49-2.48 2.8-1.65 4.5a3.14 3.14 0 0 0 4.85.83c0-.17 0-.36.09-.66-1.05.92-2.11 1.26-3.27.51a2.16 2.16 0 0 1-.78-2.26zm-2.7-2.64c1.07-.09 1.66.6 1.71 2.16h-3.17a1.92 1.92 0 0 1 1.46-2.16zm-56.54-.05a1.81 1.81 0 0 1-.06.27l-.23.65c-.16-.18-.27-.34-.41-.48a1.07 1.07 0 0 0-1.22-.24 1 1 0 0 0-.63.94 1 1 0 0 0 .7 1c.37.15.76.26 1.14.4a1.54 1.54 0 0 1 .65 2.59 2.64 2.64 0 0 1-3.38.38l.28-1a2.82 2.82 0 0 0 .37.51 1.47 1.47 0 0 0 1.5.43 1 1 0 0 0 .82-.92.88.88 0 0 0-.61-1c-.4-.17-.82-.3-1.22-.47-.79-.31-1.11-.72-1.1-1.45a1.71 1.71 0 0 1 1.07-1.7 2.63 2.63 0 0 1 2.33.09zM28 65l-.27.83-.35-.37a1.9 1.9 0 0 0-3.19.59 3.89 3.89 0 0 0-.05 2.79 2.15 2.15 0 0 0 3.42.8c.13-.1.25-.21.46-.39 0 .29 0 .47-.05.62a3.25 3.25 0 0 1-4.29 0 3.41 3.41 0 0 1-.1-4.42A3.53 3.53 0 0 1 28 65zm45.85 4.33v.56a3.22 3.22 0 0 1-4.35-.1 3.43 3.43 0 0 1 0-4.33 3.52 3.52 0 0 1 4.35-.46c-.08.25-.15.5-.3.95a3.33 3.33 0 0 0-.28-.46 1.89 1.89 0 0 0-3.22.56 3.92 3.92 0 0 0-.05 2.69 2.08 2.08 0 0 0 3.13 1.1 7.77 7.77 0 0 0 .72-.51zM66 70.53h-1v-5.9h1v1.1c.55-.73 1-1.45 2-1.24 0 .37-.06.7-.09 1-1.15-.3-1.78.06-1.87 1.24s-.04 2.51-.04 3.8z" fill="#202020"/></svg>