<svg xmlns="http://www.w3.org/2000/svg" width="91" height="91"><path d="M5.5 53.79a8.14 8.14 0 0 1 .85.08 7.06 7.06 0 0 0 1.89.13 3.08 3.08 0 0 0 1.84-.78 4.81 4.81 0 0 0 1-1.2 4.51 4.51 0 0 0 .53-1.64c.12-.76.22-1.52.33-2.29s.24-1.56.34-2.35c.08-.55.09-1.11.18-1.66a18.23 18.23 0 0 1 .47-2.08c.37-1.2.77-2.4 1.22-3.56a11.77 11.77 0 0 1 2.24-3.72 10 10 0 0 1 2.46-2 11.55 11.55 0 0 1 3.68-1.34c.69-.13 1.41-.18 2.11-.25a10.26 10.26 0 0 1 2.35.07 6.67 6.67 0 0 1 2.44.63 14.26 14.26 0 0 1 1.4.94c.42.28.83.6 1.27.85A3.09 3.09 0 0 0 34 34a7 7 0 0 0 .8-.14 1.76 1.76 0 0 0 1.13-1c.21-.39.43-.77.66-1.18v-.91a6.56 6.56 0 0 1 .2-1 1.25 1.25 0 0 1 .26-.41.54.54 0 0 1 .56-.19l.23.35c.3-.16.46-.11.57.23a2 2 0 0 1-.2 1.75l-.07.14c.22.07.45.13.67.22A2.26 2.26 0 0 1 39.88 33c.17.33.31.69.47 1a.83.83 0 0 0 .11.15c.33.34.66.67 1 1a.65.65 0 0 1 0 .93.68.68 0 0 1-.38.16h-.13v.28a.26.26 0 0 1-.35.08 4.5 4.5 0 0 1-.67-.39 1.17 1.17 0 0 0-.67-.25 2.89 2.89 0 0 1-1.32-.29c-.19.32-.36.65-.55 1a6.44 6.44 0 0 1-2.68 2.49.85.85 0 0 1-.26.11 1.34 1.34 0 0 0-.75.48c-.39.42-.81.82-1.19 1.24a11.93 11.93 0 0 0-.84 1 3 3 0 0 0-.28.63.45.45 0 0 1-.44.34 1.51 1.51 0 0 1-.3 0 1.7 1.7 0 0 0-.8.14.86.86 0 0 1-.57 0l-.68-.1a.37.37 0 0 1-.26-.45c0-.05.14-.08.23-.12h.13a.44.44 0 0 1 .53-.09c.21-.24.41-.13.61 0a.49.49 0 0 1 .6-.17A3.54 3.54 0 0 0 31.7 40v-.05l-.24.12a2.15 2.15 0 0 0-.78 1.18 1.39 1.39 0 0 1-.7.8.33.33 0 0 1-.19.06h-1a1.51 1.51 0 0 0-.37.07.62.62 0 0 1-.76-.41 1.56 1.56 0 0 1 0-.37h.48c.16-.46.49-.35.83-.2.21-.3.25-.31.78-.19l.68-1a13.69 13.69 0 0 1-3.87-.42c-.22.51-.44 1-.68 1.48a7.59 7.59 0 0 1-2.11 2.53c-1 .79-2.09 1.43-3.14 2.13a15.1 15.1 0 0 0-2.81 2.42 3.84 3.84 0 0 0-1 2.22c-.08.78-.18 1.56-.26 2.34-.05.47-.08.95-.1 1.43a1.3 1.3 0 0 1-.52 1 9.7 9.7 0 0 1-1 .61.77.77 0 0 1-.33.06.33.33 0 0 1-.35-.23.62.62 0 0 1 .16-.81.62.62 0 0 0 .27-.6 1.68 1.68 0 0 1 .36-1 1.57 1.57 0 0 0 .27-.91c0-.69.07-1.38.07-2.07 0-.44-.09-.87-.11-1.31a14 14 0 0 1 0-1.45 1.41 1.41 0 0 1 .65-1.09c.46-.36.92-.7 1.36-1.08a10.72 10.72 0 0 0 1.09-1 3.84 3.84 0 0 0 .79-1.74 14.12 14.12 0 0 0 .33-2.59v-.16a2.05 2.05 0 0 1-.5-2.54 2.74 2.74 0 0 0-.89.51 8.62 8.62 0 0 0-1.95 2.42 16.65 16.65 0 0 0-1.41 3.17c-.21.7-.34 1.43-.49 2.16a50.84 50.84 0 0 1-1.41 5.82 5.56 5.56 0 0 1-1 2A4.89 4.89 0 0 1 9 55a4.18 4.18 0 0 1-2.39-.38 3.42 3.42 0 0 1-1.09-.67z" fill="#f68d29"/><path d="M67.24 55.44L64.31 51l-.87 1v3.48h-2.58V40.57h2.58v9.1l3.3-4.44h3.14l-3.77 4.18c1.44 2 2.87 4 4.31 6z" fill="#252728"/><path d="M78.13 53.25c.13.59.25 1.18.39 1.8-.4.12-.79.25-1.19.35a9.58 9.58 0 0 1-3.11.23 4.66 4.66 0 0 1-4.48-4.15 6.49 6.49 0 0 1 .37-3.38 4.6 4.6 0 0 1 3.46-3 4.65 4.65 0 0 1 3.43.5 4.18 4.18 0 0 1 1.82 2.49A6.82 6.82 0 0 1 79 51v.11h-6.84a2.45 2.45 0 0 0 1.07 2.05 3.4 3.4 0 0 0 1.83.56 7.81 7.81 0 0 0 3-.43zm-1.48-4c0-.28-.06-.54-.12-.79a2 2 0 0 0-3-1.42 2.46 2.46 0 0 0-1.19 1.6c-.06.2-.09.4-.14.61zm-32.96 6.2v-12h-4v-2.13h8.16v2.16h-1.57v12zM85.5 45.23v1.94h-2.43v4.82a2.38 2.38 0 0 0 .11.7 1.11 1.11 0 0 0 1.24.86c.32 0 .63-.06 1-.1v2c-.29 0-.61.12-.92.16a5.16 5.16 0 0 1-1.71 0 2.53 2.53 0 0 1-2.09-2.14 7.18 7.18 0 0 1-.13-1.31V47.2h-1.51v-2h1.46v-2.28l2.54-.61v2.92zm-25.85 8c.12.63.23 1.27.36 1.94-.39.11-.76.24-1.15.32a8.33 8.33 0 0 1-2.49.14 4.74 4.74 0 0 1-4.44-4.07 6 6 0 0 1 .42-3.56 4.91 4.91 0 0 1 3.32-2.78 6.81 6.81 0 0 1 4.14.15l.22.09c-.15.65-.3 1.29-.45 1.9-.42-.1-.82-.24-1.23-.3a3.34 3.34 0 0 0-2.67.56 2.92 2.92 0 0 0-1.12 1.94 3.92 3.92 0 0 0 .25 2.32A2.79 2.79 0 0 0 57 53.56a4.73 4.73 0 0 0 2.47-.28l.13-.05zM29 54l.88.88a3.81 3.81 0 0 1-1.14.42 5.47 5.47 0 0 1-3.32-.26 4.79 4.79 0 0 1-2.75-3.2 7.07 7.07 0 0 1 .27-5 4.64 4.64 0 0 1 3.6-2.81 5 5 0 0 1 4.4 1.23 5.05 5.05 0 0 1 1.44 2.5 7.19 7.19 0 0 1-.27 4.69 4.59 4.59 0 0 1-.62 1.07l-.95-1a4.82 4.82 0 0 0 .68-1.9 5.4 5.4 0 0 0-1-4.26 3.32 3.32 0 0 0-3.12-1.3 3.38 3.38 0 0 0-2.84 2.09 5.65 5.65 0 0 0 .15 5.31 3.32 3.32 0 0 0 2.27 1.74A3.6 3.6 0 0 0 29 54zm21.78 1.45h-2.59V45.24h2.59z" fill="#252728"/><path d="M41.37 47.49H40c0-.17 0-.34-.07-.5a2.1 2.1 0 0 0-1.35-1.6 3.67 3.67 0 0 0-3.06.1 1.58 1.58 0 0 0-.86 1.89 1.49 1.49 0 0 0 .75.88 5.52 5.52 0 0 0 1.72.61c.75.17 1.5.31 2.23.51a3.18 3.18 0 0 1 2 1.37 3 3 0 0 1 .06 2.93c-.34-.35-.67-.68-1-1v-.71a1.41 1.41 0 0 0-.64-.94 4.43 4.43 0 0 0-1.55-.62c-.72-.18-1.44-.32-2.16-.51a5.27 5.27 0 0 1-1.48-.59A2.41 2.41 0 0 1 33.3 47a2.77 2.77 0 0 1 1.92-2.61 5.84 5.84 0 0 1 2.65-.39 4.06 4.06 0 0 1 2 .65A3.24 3.24 0 0 1 41.33 47c.02.15.03.31.04.49zm-2.48 6.64l.91.91c-.26.08-.5.17-.75.23a6.62 6.62 0 0 1-3.56-.08 3.42 3.42 0 0 1-2.5-3c0-.15-.05-.31-.07-.46v-.09h1.32a7.45 7.45 0 0 0 .17.82 2.55 2.55 0 0 0 1.83 1.71 4.38 4.38 0 0 0 2.61 0zm11.89-12.81v2.15h-2.59v-2.15z" fill="#252728"/><path d="M30.35 52.85l.93.93a4.25 4.25 0 0 1-1.17 1l-.88-.86c.4-.35.77-.72 1.12-1.07zm9.92.15l.94.95a3.35 3.35 0 0 1-1.15 1l-.92-.9A2.38 2.38 0 0 0 40.27 53z" fill="#f68d29"/><path d="M29.5 59.64a.83.83 0 0 0 .07.34.72.72 0 0 0 .19.24 1 1 0 0 0 .29.13 1.32 1.32 0 0 0 .34 0 1 1 0 0 0 .35 0 .57.57 0 0 0 .23-.12.45.45 0 0 0 .13-.17.63.63 0 0 0 0-.19.44.44 0 0 0-.08-.3.66.66 0 0 0-.2-.14l-.44-.13-.62-.16a1.4 1.4 0 0 1-.38-.16 1 1 0 0 1-.24-.21.79.79 0 0 1-.14-.27 1.18 1.18 0 0 1 0-.27 1 1 0 0 1 .11-.46 1.17 1.17 0 0 1 .71-.51 1.79 1.79 0 0 1 1 0 1.23 1.23 0 0 1 .43.21 1 1 0 0 1 .4.84H31a.62.62 0 0 0-.23-.48.92.92 0 0 0-.53-.14h-.23a.9.9 0 0 0-.21.08.4.4 0 0 0-.15.14.44.44 0 0 0 0 .52.92.92 0 0 0 .31.16h.15l.31.08.33.09.23.06a.85.85 0 0 1 .3.15.92.92 0 0 1 .22.22 1 1 0 0 1 .12.25.92.92 0 0 1 .05.28 1 1 0 0 1-.13.51 1 1 0 0 1-.31.35 1.44 1.44 0 0 1-.46.19 2.24 2.24 0 0 1-1.09 0 1.42 1.42 0 0 1-.46-.23 1.2 1.2 0 0 1-.32-.39 1.42 1.42 0 0 1-.12-.57zm4.98 1.18h-.56v-.36a.77.77 0 0 1-.31.31.84.84 0 0 1-.41.11 1 1 0 0 1-.74-.25 1.07 1.07 0 0 1-.22-.75v-1.63h.56v1.57a.67.67 0 0 0 .13.48.43.43 0 0 0 .36.14.8.8 0 0 0 .3-.06.52.52 0 0 0 .19-.14.65.65 0 0 0 .11-.22 1.33 1.33 0 0 0 0-.28v-1.49h.56zm.61-2.57h.53v.35a.73.73 0 0 1 .33-.32 1.06 1.06 0 0 1 .46-.1 1.4 1.4 0 0 1 .53.11 1.16 1.16 0 0 1 .37.29 1.42 1.42 0 0 1 .23.44 1.88 1.88 0 0 1 .07.53 1.68 1.68 0 0 1-.07.5 1.4 1.4 0 0 1-.2.43 1 1 0 0 1-.35.29 1 1 0 0 1-.49.12h-.24a1.13 1.13 0 0 1-.24-.08.72.72 0 0 1-.21-.12.69.69 0 0 1-.16-.18v1.27h-.57zm2 1.29a1.27 1.27 0 0 0-.09-.34 1.08 1.08 0 0 0-.13-.29.74.74 0 0 0-.23-.2.52.52 0 0 0-.3-.08.64.64 0 0 0-.54.25 1.08 1.08 0 0 0-.18.66 1.34 1.34 0 0 0 0 .35.78.78 0 0 0 .14.29.71.71 0 0 0 .23.19.73.73 0 0 0 .63 0 .63.63 0 0 0 .22-.21 1 1 0 0 0 .13-.29 1.66 1.66 0 0 0 .09-.33zm1.02-1.29h.54v.35a.68.68 0 0 1 .33-.32 1 1 0 0 1 .46-.1 1.4 1.4 0 0 1 .53.11 1.16 1.16 0 0 1 .37.29 1.22 1.22 0 0 1 .22.44 1.89 1.89 0 0 1 .08.53 2.08 2.08 0 0 1-.07.5 1.4 1.4 0 0 1-.2.43 1 1 0 0 1-.84.41h-.25a.88.88 0 0 1-.23-.07.72.72 0 0 1-.21-.12.73.73 0 0 1-.17-.18v1.27h-.56zm2 1.29a1.27 1.27 0 0 0 0-.34 1.08 1.08 0 0 0-.13-.29.74.74 0 0 0-.23-.2.54.54 0 0 0-.3-.08.62.62 0 0 0-.54.25 1.08 1.08 0 0 0-.18.66 1.34 1.34 0 0 0 .05.35.65.65 0 0 0 .14.29.71.71 0 0 0 .23.19.73.73 0 0 0 .63 0 .63.63 0 0 0 .22-.21.69.69 0 0 0 .12-.29.85.85 0 0 0-.04-.33zm2.19 1.34a1.31 1.31 0 0 1-.55-.1 1.12 1.12 0 0 1-.4-.28 1.23 1.23 0 0 1-.26-.42 1.7 1.7 0 0 1 0-1.09 1.14 1.14 0 0 1 .26-.42 1 1 0 0 1 .4-.28 1.49 1.49 0 0 1 1.1 0 1 1 0 0 1 .4.28 1.14 1.14 0 0 1 .26.42 1.7 1.7 0 0 1 0 1.09 1.23 1.23 0 0 1-.26.42 1.12 1.12 0 0 1-.4.28 1.31 1.31 0 0 1-.55.1zm0-.44a.64.64 0 0 0 .33-.08.66.66 0 0 0 .23-.21 1 1 0 0 0 .13-.29 1.15 1.15 0 0 0 0-.33 1.65 1.65 0 0 0 0-.32 1 1 0 0 0-.13-.29.66.66 0 0 0-.23-.21.74.74 0 0 0-.65 0 .58.58 0 0 0-.23.21.71.71 0 0 0-.14.29 1.43 1.43 0 0 0 0 .65 1 1 0 0 0 .14.29.58.58 0 0 0 .23.21.72.72 0 0 0 .32.08zm1.76-2.19h.54v.5a.75.75 0 0 1 .1-.2 1 1 0 0 1 .17-.18.76.76 0 0 1 .23-.13.58.58 0 0 1 .26-.05h.21v.54h-.24a.6.6 0 0 0-.27.06.62.62 0 0 0-.22.17.72.72 0 0 0-.15.27 1 1 0 0 0 0 .38v1.22h-.57z"/><path d="M45.55 58.25H46v-.76h.57v.76h.51v.42h-.51V60a.85.85 0 0 0 0 .16.36.36 0 0 0 0 .11.27.27 0 0 0 .08.07h.38v.44h-.36a1.47 1.47 0 0 1-.36 0 .46.46 0 0 1-.21-.13.44.44 0 0 1-.11-.2 1.41 1.41 0 0 1 0-.28v-1.5h-.43zm3.03-.97h2.86v.53h-1.12v3h-.63v-3h-1.11zm3.21 0h.56v.53h-.56zm0 1h.56v2.56h-.56zm2.91.83a.6.6 0 0 0-.19-.36.72.72 0 0 0-.4-.12.93.93 0 0 0-.23 0 .55.55 0 0 0-.23.14.84.84 0 0 0-.18.28 1.51 1.51 0 0 0-.07.48 1.65 1.65 0 0 0 0 .31.7.7 0 0 0 .12.28.6.6 0 0 0 .21.21.64.64 0 0 0 .31.07.56.56 0 0 0 .41-.15.78.78 0 0 0 .2-.43h.56a1.18 1.18 0 0 1-.38.76 1.14 1.14 0 0 1-.79.27 1.39 1.39 0 0 1-.53-.1 1.21 1.21 0 0 1-.39-.28 1.1 1.1 0 0 1-.24-.42 1.35 1.35 0 0 1-.08-.52 1.39 1.39 0 0 1 .08-.54 1.1 1.1 0 0 1 .23-.44 1 1 0 0 1 .4-.29 1.15 1.15 0 0 1 .55-.11 1.52 1.52 0 0 1 .42.06 1 1 0 0 1 .36.17.84.84 0 0 1 .25.28 1 1 0 0 1 .12.41zm1.03-1.83h.56v2l1-1H58l-1 .94 1.07 1.62h-.69l-.78-1.24-.33.32v.92h-.57zm3.09 2.4a1 1 0 0 0 0 .29.7.7 0 0 0 .13.24.68.68 0 0 0 .21.17.81.81 0 0 0 .31.06.71.71 0 0 0 .4-.11.62.62 0 0 0 .23-.32h.53a1.2 1.2 0 0 1-.15.37 1 1 0 0 1-.27.28 1.35 1.35 0 0 1-.34.17 1.33 1.33 0 0 1-.4.05 1.22 1.22 0 0 1-.53-.1 1.09 1.09 0 0 1-.4-.27 1.22 1.22 0 0 1-.24-.43 1.64 1.64 0 0 1-.08-.54 1.5 1.5 0 0 1 .09-.52 1 1 0 0 1 .25-.43 1.21 1.21 0 0 1 1.44-.28 1.16 1.16 0 0 1 .4.33 1.46 1.46 0 0 1 .27 1zm1.32-.37a1.1 1.1 0 0 0-.06-.26.71.71 0 0 0-.13-.22.62.62 0 0 0-.2-.15.7.7 0 0 0-.52 0 .6.6 0 0 0-.21.14.74.74 0 0 0-.14.22 1.1 1.1 0 0 0-.06.26zm.74-1.06h.42v-.76h.57v.76h.51v.42h-.51V60a.92.92 0 0 0 0 .16.2.2 0 0 0 0 .11.27.27 0 0 0 .08.07h.38v.44H62a1.34 1.34 0 0 1-.35 0 .42.42 0 0 1-.21-.13.4.4 0 0 1-.11-.2 1.41 1.41 0 0 1 0-.28v-1.5h-.43zm3.77 1.39a.69.69 0 0 0 .07.34.72.72 0 0 0 .19.24.9.9 0 0 0 .28.13 1.39 1.39 0 0 0 .35 0 1 1 0 0 0 .34 0 .51.51 0 0 0 .23-.12.37.37 0 0 0 .13-.17.43.43 0 0 0 0-.19.4.4 0 0 0-.09-.3.48.48 0 0 0-.2-.14l-.43-.13-.63-.16a1.22 1.22 0 0 1-.37-.16.85.85 0 0 1-.25-.21.77.77 0 0 1-.12-.26.8.8 0 0 1 0-.27.93.93 0 0 1 .12-.46.89.89 0 0 1 .29-.32 1.14 1.14 0 0 1 .42-.19 1.84 1.84 0 0 1 .47-.07 1.88 1.88 0 0 1 .52.08 1.15 1.15 0 0 1 .43.21 1.12 1.12 0 0 1 .29.36.93.93 0 0 1 .11.49h-.61a.62.62 0 0 0-.23-.49.92.92 0 0 0-.53-.14h-.23a.7.7 0 0 0-.2.08.36.36 0 0 0-.16.14.44.44 0 0 0 0 .52.83.83 0 0 0 .31.16h.15l.31.08.33.09.23.06a1.4 1.4 0 0 1 .3.15.88.88 0 0 1 .22.21.9.9 0 0 1 .17.54 1 1 0 0 1-.11.51 1 1 0 0 1-.32.34 1.3 1.3 0 0 1-.45.2 2.32 2.32 0 0 1-1.09 0 1.65 1.65 0 0 1-.46-.23 1.13 1.13 0 0 1-.32-.4 1.34 1.34 0 0 1-.12-.56zm2.44-1.39h.62l.67 1.92.62-1.92h.59l-1 2.7c0 .12-.09.23-.14.34a1.12 1.12 0 0 1-.16.28.88.88 0 0 1-.24.19.79.79 0 0 1-.37.07 2.56 2.56 0 0 1-.39 0v-.47h.43l.11-.08a.41.41 0 0 0 .07-.11L68 61l.06-.2zM70.37 60a.42.42 0 0 0 .19.34.76.76 0 0 0 .39.1h.37a.45.45 0 0 0 .14-.1.24.24 0 0 0 .05-.18.29.29 0 0 0-.07-.18.56.56 0 0 0-.2-.11 1.11 1.11 0 0 0-.26-.07l-.3-.07a1.58 1.58 0 0 1-.31-.09 1.11 1.11 0 0 1-.27-.13.65.65 0 0 1-.18-.22.56.56 0 0 1-.06-.31.53.53 0 0 1 .1-.35.79.79 0 0 1 .25-.23 1.12 1.12 0 0 1 .35-.12 2.2 2.2 0 0 1 .36 0 1.58 1.58 0 0 1 .38 0 1 1 0 0 1 .33.13.82.82 0 0 1 .24.25.77.77 0 0 1 .13.34h-.58a.38.38 0 0 0-.19-.27.77.77 0 0 0-.34-.07h-.29a.2.2 0 0 0-.12.08.15.15 0 0 0 0 .13.21.21 0 0 0 .07.17.72.72 0 0 0 .19.11l.27.07.3.06.31.09a.94.94 0 0 1 .26.14.64.64 0 0 1 .19.21.6.6 0 0 1 .07.32.64.64 0 0 1-.1.38.75.75 0 0 1-.27.26 1 1 0 0 1-.37.14 1.75 1.75 0 0 1-.4 0 1.61 1.61 0 0 1-.44-.06 1 1 0 0 1-.36-.16.81.81 0 0 1-.24-.28.89.89 0 0 1-.09-.39zm1.89-1.75h.42v-.76h.57v.76h.51v.42h-.51v1.53a.49.49 0 0 0 0 .11.27.27 0 0 0 .08.07h.38v.44h-.37a1.34 1.34 0 0 1-.35 0 .61.61 0 0 1-.22-.13.47.47 0 0 1-.1-.2 1.41 1.41 0 0 1 0-.28v-1.54h-.43zm2.34 1.43a.93.93 0 0 0 .05.29.68.68 0 0 0 .12.24.62.62 0 0 0 .22.17.77.77 0 0 0 .3.06.64.64 0 0 0 .4-.11.62.62 0 0 0 .23-.32h.53a1 1 0 0 1-.15.37 1.16 1.16 0 0 1-.26.28 1.42 1.42 0 0 1-.35.17 1.33 1.33 0 0 1-.4.05 1.22 1.22 0 0 1-.53-.1 1.05 1.05 0 0 1-.39-.27 1.24 1.24 0 0 1-.25-.43 2 2 0 0 1-.08-.54 1.54 1.54 0 0 1 .09-.52 1.31 1.31 0 0 1 .25-.43 1.22 1.22 0 0 1 1.45-.28 1.3 1.3 0 0 1 .4.34 1.35 1.35 0 0 1 .22.47 1.33 1.33 0 0 1 0 .56zm1.32-.37a.58.58 0 0 0-.06-.26.68.68 0 0 0-.12-.22 1 1 0 0 0-.2-.15.75.75 0 0 0-.26 0 .62.62 0 0 0-.27 0 .6.6 0 0 0-.21.14.73.73 0 0 0-.19.49zm1-1.06h.53v.37a.83.83 0 0 1 .13-.18l.17-.14.21-.08a.84.84 0 0 1 .27 0 .93.93 0 0 1 .44.11.61.61 0 0 1 .28.33 1.15 1.15 0 0 1 .34-.32.84.84 0 0 1 .47-.11.86.86 0 0 1 .63.2.84.84 0 0 1 .23.66v1.77h-.56v-1.53a2.35 2.35 0 0 0 0-.28.79.79 0 0 0-.06-.22.32.32 0 0 0-.14-.14.47.47 0 0 0-.26 0 .44.44 0 0 0-.41.18.8.8 0 0 0-.13.5v1.5h-.58v-1.7a.7.7 0 0 0-.09-.4.42.42 0 0 0-.36-.14.53.53 0 0 0-.39.18.55.55 0 0 0-.12.21.66.66 0 0 0 0 .28v1.52h-.56z"/></svg>