<svg xmlns="http://www.w3.org/2000/svg" width="91" height="91"><path d="M82 41.44a5.7 5.7 0 0 1 .72.29 5.16 5.16 0 0 1 2.56 3 3.88 3.88 0 0 1 .17 1.55 6 6 0 0 1-.62 2.39A5.88 5.88 0 0 1 82 51.36a7.69 7.69 0 0 1-2.9.64h-2.9a8.71 8.71 0 0 1-2.26-.34A4 4 0 0 1 71 48.32a10.83 10.83 0 0 1 0-1.27V33.11c0-.24 0-.25.22-.31a23.83 23.83 0 0 1 3.1-.68A28.66 28.66 0 0 1 79 32a7.43 7.43 0 0 1 3.34.79 4.75 4.75 0 0 1 2.75 3.74 4.83 4.83 0 0 1-.24 2.44 3.84 3.84 0 0 1-1.69 2 5.89 5.89 0 0 1-1 .45zm-7.11 3.78v1.91a1.06 1.06 0 0 0 .42.85 2 2 0 0 0 1.22.42h1.81a4.42 4.42 0 0 0 1.53-.25 2.13 2.13 0 0 0 1.49-1.6 3.66 3.66 0 0 0-.07-1.8 2.07 2.07 0 0 0-1.53-1.48 5.73 5.73 0 0 0-1.59-.2h-3.06c-.16 0-.19 0-.19.19.01.66 0 1.31 0 1.96zm0-7.49v2.06c0 .19 0 .19.19.19h2.64a6 6 0 0 0 1.34-.12 2.91 2.91 0 0 0 1.38-.63 2.1 2.1 0 0 0 .69-1.72 2 2 0 0 0-1.26-1.87 3.85 3.85 0 0 0-1.49-.33 14.83 14.83 0 0 0-3.33.16c-.12 0-.16.07-.16.2v2.06zm-8.95 3.71a6.13 6.13 0 0 1 .91.4 5.31 5.31 0 0 1 2 2 4.1 4.1 0 0 1 .55 2.22 5.83 5.83 0 0 1-1.91 4.23A6.94 6.94 0 0 1 64 51.92a7.73 7.73 0 0 1-1.52.12h-2a8.45 8.45 0 0 1-2.13-.18 4.64 4.64 0 0 1-2.08-.94A3.92 3.92 0 0 1 55 48.73a9.72 9.72 0 0 1-.15-2.22V33.06a.22.22 0 0 1 .18-.25 24.2 24.2 0 0 1 3.56-.74 30.82 30.82 0 0 1 4-.11 8.4 8.4 0 0 1 3 .51 5.3 5.3 0 0 1 2.82 2.24 4.72 4.72 0 0 1 .59 2.14 4.91 4.91 0 0 1-.35 2.27 3.84 3.84 0 0 1-1.94 2 7 7 0 0 1-.77.32zm-7.12 3.78v1.94a1 1 0 0 0 .28.7 1.86 1.86 0 0 0 1.35.54h1.95a3.92 3.92 0 0 0 1.65-.4 2.07 2.07 0 0 0 1.15-1.2 3.46 3.46 0 0 0 0-1.94 2 2 0 0 0-1.33-1.51 5.35 5.35 0 0 0-1.81-.28H59c-.16 0-.19.06-.19.2v2zm0-7.47v2c0 .19 0 .19.19.19h2.87a4.82 4.82 0 0 0 1.68-.28 2.36 2.36 0 0 0 1.17-.87 2.24 2.24 0 0 0 .27-1.5 1.83 1.83 0 0 0-.6-1.23 3 3 0 0 0-1.7-.71c-.6-.08-1.21 0-1.81-.06a11.72 11.72 0 0 0-2 .19c-.13 0-.17.07-.17.2v2.06z" fill="#4576ae"/><path d="M9.47 50.08a.3.3 0 0 0 0 .16v6.44c0 .23 0 .24-.23.23a11.18 11.18 0 0 1-1.42 0 2.62 2.62 0 0 1-2.29-2.49v-9.17A16.12 16.12 0 0 1 5.76 42a8.76 8.76 0 0 1 1.1-2.92 6.32 6.32 0 0 1 3.71-2.77 9.49 9.49 0 0 1 2.11-.31 7.06 7.06 0 0 1 2.42.21 6.65 6.65 0 0 1 2.72 1.48 8 8 0 0 1 2.52 4.53 9.09 9.09 0 0 1 .11 2.44 11.38 11.38 0 0 1-.45 2.42 7.75 7.75 0 0 1-1.69 3.19A6.1 6.1 0 0 1 15.6 52a7.13 7.13 0 0 1-2.15.31 4.67 4.67 0 0 1-3.92-2.21s-.02-.02-.06-.02zm7-5.54c0-.38 0-.76-.05-1.14a6.65 6.65 0 0 0-.51-2.11 3 3 0 0 0-1.52-1.59 4 4 0 0 0-1.91-.29A2.91 2.91 0 0 0 10 41.07a5.75 5.75 0 0 0-.61 2.61 6.68 6.68 0 0 0 .53 3 3.54 3.54 0 0 0 1.52 1.7 3.65 3.65 0 0 0 2 .43 2.72 2.72 0 0 0 1.45-.52 3.4 3.4 0 0 0 1.21-1.68 5.78 5.78 0 0 0 .33-2.07zM42.26 50v6.7c0 .21 0 .22-.22.21a14.29 14.29 0 0 1-1.46 0 2.63 2.63 0 0 1-2.27-2.52V44.05a10.1 10.1 0 0 1 1-4.25 6.33 6.33 0 0 1 3.6-3.31 9 9 0 0 1 2.53-.49 7.39 7.39 0 0 1 2.43.2 6.65 6.65 0 0 1 2.69 1.45 8 8 0 0 1 2.66 5.12 9.64 9.64 0 0 1 0 2.08 11.11 11.11 0 0 1-.41 2.36 7.64 7.64 0 0 1-2 3.42 6 6 0 0 1-2.66 1.49 7.07 7.07 0 0 1-2.1.25 4.42 4.42 0 0 1-2.73-1 4.65 4.65 0 0 1-1-1.13zm7-5.6a10.58 10.58 0 0 0-.06-1.06 6.27 6.27 0 0 0-.52-2.17 2.91 2.91 0 0 0-1.74-1.61 4.06 4.06 0 0 0-1.7-.19 2.78 2.78 0 0 0-1.74.77 4 4 0 0 0-1.08 2 7.93 7.93 0 0 0-.18 2 6.64 6.64 0 0 0 .4 2.21 3.8 3.8 0 0 0 1.16 1.66 3.45 3.45 0 0 0 2 .77 2.87 2.87 0 0 0 2-.61 3.51 3.51 0 0 0 1.07-1.57 6.09 6.09 0 0 0 .38-2.16zm-23.02-6.47a6.23 6.23 0 0 1 .51-.62 4 4 0 0 1 3.06-1.41 7.38 7.38 0 0 1 2.93.63 5.14 5.14 0 0 1 2.36 2.18 7.45 7.45 0 0 1 .89 3.2c.07.91 0 1.82 0 2.72v7.1c0 .22 0 .22-.21.22h-1.57a2.28 2.28 0 0 1-2.15-2.06 6.53 6.53 0 0 1-.05-.78v-6.47a3.57 3.57 0 0 0-.61-2 2.59 2.59 0 0 0-1.63-1.08 2.89 2.89 0 0 0-1.57 0 2.71 2.71 0 0 0-1.71 1.61 5.07 5.07 0 0 0-.35 2v8.69c0 .1-.05.13-.14.13h-1.13a3.94 3.94 0 0 1-.77-.07 2.22 2.22 0 0 1-1.89-2 4.42 4.42 0 0 1 0-.63v-18c0-.22 0-.22.22-.22a11.89 11.89 0 0 1 1.69 0 2.45 2.45 0 0 1 1.69 1 2.43 2.43 0 0 1 .4 1.39v4.28a.29.29 0 0 0 .03.19zm30.09 19.75v1.08c0 .12 0 .17-.16.16h-.1a.54.54 0 0 1-.59-.59v-1.28a1.54 1.54 0 0 0 0-.37.58.58 0 0 0-.62-.46.54.54 0 0 0-.5.56v1.91c0 .23 0 .23-.23.23a.55.55 0 0 1-.63-.57 1.21 1.21 0 0 1 0-.19v-1.23a.86.86 0 0 0-.09-.39.55.55 0 0 0-.72-.28.54.54 0 0 0-.29.32 1.19 1.19 0 0 0-.06.37v1.77c0 .18 0 .19-.19.2a.58.58 0 0 1-.66-.66v-1.42a1.35 1.35 0 0 1 .48-1.07 1.46 1.46 0 0 1 1.93.1c.06.06.09.11.18 0a1.32 1.32 0 0 1 2.26.65 7.61 7.61 0 0 1-.01 1.16zm5.72.08v1c0 .18 0 .19-.19.19h-.11a.53.53 0 0 1-.55-.56v-1.38a1 1 0 0 0-.1-.46.56.56 0 0 0-.6-.29.53.53 0 0 0-.45.48v2.04c0 .12 0 .17-.16.17-.48 0-.69-.19-.69-.68V57a1.15 1.15 0 0 0-.08-.41.57.57 0 0 0-.56-.36.54.54 0 0 0-.49.42.93.93 0 0 0-.07.35v1.76c0 .18 0 .19-.2.19a.58.58 0 0 1-.67-.64 11.92 11.92 0 0 1 0-1.58 1.24 1.24 0 0 1 .87-1.17 1.37 1.37 0 0 1 1.54.3c.07.08.11.1.19 0a1.33 1.33 0 0 1 2.24.59 2 2 0 0 1 0 .49zm-26.73.38a1.17 1.17 0 0 1-1.38.31 1.23 1.23 0 0 1-.87-1.13 1.66 1.66 0 0 1 2.18-1.8 1.29 1.29 0 0 1 .92 1.22v1.58a1.6 1.6 0 0 1-1.7 1.68 1.49 1.49 0 0 1-.82-.22.76.76 0 0 1-.32-.82c0-.11.08-.05.12 0a1.68 1.68 0 0 0 1.27.27.67.67 0 0 0 .6-.69zM35.26 57a1.18 1.18 0 0 0 0-.26.58.58 0 0 0-.44-.5.66.66 0 0 0-.71.27.94.94 0 0 0-.13.86.63.63 0 0 0 .77.44.61.61 0 0 0 .14-.07.75.75 0 0 0 .39-.74zm13.93-1.55a1.55 1.55 0 0 1 1.57 1.44 2.2 2.2 0 0 1-.23 1.33 1.59 1.59 0 0 1-1.65.76 1.57 1.57 0 0 1-1.37-1.59 2.32 2.32 0 0 1 .17-1 1.55 1.55 0 0 1 1.51-.94zm-.78 1.75a1.27 1.27 0 0 0 .15.71.67.67 0 0 0 .63.32.56.56 0 0 0 .55-.32 1.5 1.5 0 0 0 0-1.34.63.63 0 0 0-.63-.36.62.62 0 0 0-.59.39 1.09 1.09 0 0 0-.11.59zm-29.09.35h-.48c-.16 0-.18 0-.11.18a.8.8 0 0 0 .66.5 1.65 1.65 0 0 0 1.2-.24c.08-.05.11 0 .12.07a.7.7 0 0 1-.58.84 1.85 1.85 0 0 1-1.67-.27 1.71 1.71 0 0 1-.65-1.6 1.83 1.83 0 0 1 .45-1.11 1.51 1.51 0 0 1 2.43.25 1.25 1.25 0 0 1 .09.74.66.66 0 0 1-.56.55 2.73 2.73 0 0 1-.9.09zm-.15-.55a1.64 1.64 0 0 0 .66-.07.21.21 0 0 0 .17-.23.4.4 0 0 0-.14-.39.7.7 0 0 0-.75-.09.7.7 0 0 0-.41.61c0 .09 0 .14.14.13zm59.32.55H78c-.11 0-.13.05-.09.14a.82.82 0 0 0 .66.54 1.64 1.64 0 0 0 1.2-.23c.09-.06.13 0 .14.07a.71.71 0 0 1-.63.84 1.88 1.88 0 0 1-1.65-.3 1.71 1.71 0 0 1-.63-1.53 2 2 0 0 1 .45-1.15 1.53 1.53 0 0 1 2.34.07 1.15 1.15 0 0 1 .2.9.63.63 0 0 1-.4.5 2.64 2.64 0 0 1-1.1.15zm-.13-.55h.33a.87.87 0 0 0 .31-.1.24.24 0 0 0 .18-.24c0-.26-.14-.42-.44-.48a.72.72 0 0 0-.85.54v.1c0 .03 0 .16.14.15h.33zm-54.24.36v.48a1.16 1.16 0 0 1-1 1.11 2 2 0 0 1-1.15-.11 1 1 0 0 1-.51-1.45 1 1 0 0 1 .64-.45 3.52 3.52 0 0 1 1-.12c.19 0 .21 0 .17-.21a.5.5 0 0 0-.53-.42 1.57 1.57 0 0 0-1.18.33h-.08c-.03 0 0 0 0-.08a.75.75 0 0 1 .41-.81 1.69 1.69 0 0 1 1.63 0 1.22 1.22 0 0 1 .61 1 5 5 0 0 1-.01.73zm-.87.36v-.18a.07.07 0 0 0-.08-.08 1.86 1.86 0 0 0-.81.08.36.36 0 0 0-.16.47l.09.11a.71.71 0 0 0 .73.08c.22-.08.24-.28.23-.48zM65 56.63v-.93c0-.12 0-.18.17-.16a2.23 2.23 0 0 1 .27 0 .47.47 0 0 1 .43.46 11.23 11.23 0 0 1 0 1.74A1.32 1.32 0 0 1 64.16 59a1.41 1.41 0 0 1-1.3-1.5v-1.81c0-.11 0-.16.16-.16.4 0 .65.17.7.48a2.46 2.46 0 0 1 0 .28 12.34 12.34 0 0 0 0 1.36.62.62 0 0 0 .67.6.48.48 0 0 0 .45-.29 1 1 0 0 0 .09-.41v-.9zm2.52 1.18v.94c0 .13 0 .18-.17.17a1 1 0 0 1-.38-.05.5.5 0 0 1-.32-.46v-1.68A1.35 1.35 0 0 1 68 55.46a1.54 1.54 0 0 1 1.22.35 1.38 1.38 0 0 1 .44.89c.06.7 0 1.39 0 2.09 0 .1 0 .12-.13.13-.49 0-.73-.2-.73-.69V57a1.5 1.5 0 0 0 0-.22.62.62 0 0 0-1.23.09v.95zm-35.15-.05v1c0 .11 0 .16-.15.16h-.3a.53.53 0 0 1-.41-.52v-1.2a1.63 1.63 0 0 0-.05-.49.61.61 0 0 0-1.18 0 .93.93 0 0 0 0 .33v1.73c0 .18 0 .19-.2.19h-.14a.54.54 0 0 1-.52-.54v-1.56a1.39 1.39 0 0 1 1.3-1.4 1.5 1.5 0 0 1 1.29.42 1.42 1.42 0 0 1 .39.93v1zm49.43-2.31a1.32 1.32 0 0 1 1 .31.76.76 0 0 1 .17.67c0 .09-.07 0-.11 0a1.63 1.63 0 0 0-1-.26 1 1 0 0 0-.34.07.3.3 0 0 0-.19.3c0 .14.1.19.21.22l.57.13a2.77 2.77 0 0 1 .41.12.85.85 0 0 1 .56.75 1 1 0 0 1-.43.95 1.69 1.69 0 0 1-1.7.1c-.39-.19-.4-.41-.39-.79 0-.09.06-.09.12 0a1.89 1.89 0 0 0 .87.27 1.09 1.09 0 0 0 .44 0 .3.3 0 0 0 .24-.3.26.26 0 0 0-.22-.27 3.5 3.5 0 0 0-.56-.13l-.3-.07a.89.89 0 0 1-.41-1.51 1.45 1.45 0 0 1 1.06-.56zM13.91 59a1.67 1.67 0 0 1-1.73-1.66 1.73 1.73 0 0 1 2.06-1.8.82.82 0 0 1 .71 1v.07c0 .01-.07 0-.1 0a1.15 1.15 0 0 0-1.35-.12 1 1 0 0 0-.23 1.34.83.83 0 0 0 .74.4 1.21 1.21 0 0 0 .85-.27.07.07 0 0 1 .06 0v.1a.83.83 0 0 1-.9 1zM46 59a1.71 1.71 0 0 1-1.73-1.53 1.74 1.74 0 0 1 1.47-1.93 1.51 1.51 0 0 1 .76 0 .74.74 0 0 1 .53.75v.29c0 .03-.1-.05-.14-.09a1.18 1.18 0 0 0-1.46.07 1 1 0 0 0-.1 1.16.92.92 0 0 0 1 .45 1.06 1.06 0 0 0 .63-.25h.07c.07 0 0 .05 0 .08.08.69-.26.93-.87 1zm-21.21-2.33v-1a.9.9 0 0 1 .39-.75l.11-.07c.25-.1.35 0 .35.22v.37c0 .09 0 .13.13.13h.89c.12 0 .17 0 .17.16 0 .41-.15.58-.56.58h-.51c-.08 0-.12 0-.12.1v1.35a.45.45 0 0 0 .5.45 1.2 1.2 0 0 0 .53-.08c.1 0 .13 0 .14.09a.62.62 0 0 1-.62.76 1.38 1.38 0 0 1-.89-.17 1 1 0 0 1-.5-.82 4.64 4.64 0 0 1 0-.65v-.64zm47.78.03v-1.1a.85.85 0 0 1 .44-.75.31.31 0 0 1 .12-.05c.23-.06.29 0 .29.22v.36c0 .12 0 .16.16.16h.84c.12 0 .17 0 .17.16a.5.5 0 0 1-.56.58h-.47c-.09 0-.14 0-.14.13v1.27a.46.46 0 0 0 .52.51 1.75 1.75 0 0 0 .51-.08c.09 0 .13 0 .13.09a2.25 2.25 0 0 0 0 .26.46.46 0 0 1-.27.4 1.2 1.2 0 0 1-1.74-1v-1.18zm-56.19 1.11v.93c0 .14-.05.19-.19.18H16a.5.5 0 0 1-.5-.54v-1.67a1.3 1.3 0 0 1 .31-.82 1.24 1.24 0 0 1 1.28-.34.6.6 0 0 1 .37.74c0 .07-.07.05-.12 0a1.14 1.14 0 0 0-.45 0 .47.47 0 0 0-.5.41 3.94 3.94 0 0 0 0 .84zm11.03-.96v-1.08c0-.12 0-.17.17-.17.5 0 .7.19.7.7v1.43c0 .38.1.48.47.48.19 0 .22 0 .18.23-.08.46-.2.55-.67.51a.89.89 0 0 1-.83-.81 4.75 4.75 0 0 1 0-.65c-.03-.22-.02-.43-.02-.64zm43.14.04v-1.12c0-.13 0-.2.18-.17h.13a.52.52 0 0 1 .56.56v1.47a1.94 1.94 0 0 0 0 .24.33.33 0 0 0 .37.34c.3 0 .3 0 .26.32a.47.47 0 0 1-.57.43 1.13 1.13 0 0 1-.59-.2.92.92 0 0 1-.34-.72v-1.15zM76 57v.89a.33.33 0 0 0 .36.33c.32 0 .32 0 .27.33a.44.44 0 0 1-.51.42.93.93 0 0 1-1-1v-2.21c0-.12 0-.17.17-.17.49 0 .69.19.69.67.02.23.02.46.02.74zm-48.66-2.21a.49.49 0 0 1 .48-.5.5.5 0 1 1 0 1 .48.48 0 0 1-.49-.47zm48.24.5a.5.5 0 0 1-.5-.5.5.5 0 0 1 .5-.5.5.5 0 0 1 .5.5.51.51 0 0 1-.5.5zm-4.12-.5a.5.5 0 0 1-.5.5.5.5 0 0 1 0-1 .51.51 0 0 1 .5.5z" fill="#5691ce"/></svg>