<svg xmlns="http://www.w3.org/2000/svg" width="91" height="91"><path fill="#ebb62f" d="M-1-1h93v93H-1z"/><path d="M12.63 39.92c1.85 0 2.59.21 3.3 1 1 1 1.35 2.67 1 4.81a7 7 0 0 1-1.91 4 4.91 4.91 0 0 1-3.77 1.45H8.87l-.66 4.21H5.5l2.39-15.47zm-3.39 8.81h1.66c1.87 0 3-1.08 3.3-3.27.32-2-.44-3.15-2.1-3.15h-1.87zm12.81-8.81h2.78c2.87-.07 3.83 1.15 3.4 4.21l-1.09 7h-2.71l1-6.37c.33-1.91 0-2.44-1.55-2.44h-2.2l-1.37 8.81H17.6L20 35.78h2.71zm13.62 0c1.84 0 2.58.21 3.29 1 1 1 1.35 2.67 1 4.81a7 7 0 0 1-1.92 4 4.87 4.87 0 0 1-3.77 1.45H31.9l-.65 4.21h-2.72L30.93 40zm-3.4 8.81h1.67c1.86 0 3-1.08 3.3-3.27.31-2-.45-3.15-2.1-3.15h-1.87zm18.65 2.39h-4.69c-2.23 0-3.25-.34-4.15-1.38-1.06-1.24-1.39-3.43-.95-6.26.53-3.37 1.95-5.88 3.92-6.94a8.61 8.61 0 0 1 3.68-.76h4.58l-.42 2.74h-4.24a3.88 3.88 0 0 0-3 1.17 7.21 7.21 0 0 0-1.27 3.5c-.34 2.16-.18 3.77.46 4.46a3.26 3.26 0 0 0 2.4.74h4.13zm14.4-13.22a9.43 9.43 0 0 1 .5 5.77 9.75 9.75 0 0 1-2.92 6 7.29 7.29 0 0 1-4.71 1.52c-2.53 0-4.42-.92-5.22-2.55a8.74 8.74 0 0 1-.45-5.13c.44-2.85 1.45-5.06 2.89-6.25a7.65 7.65 0 0 1 5-1.61c2.32.02 4.12.82 4.91 2.25zm-8.39 1.84a8.61 8.61 0 0 0-1.24 3.68c-.56 3.58.28 5.22 2.71 5.22s3.74-1.64 4.29-5.18-.27-5.2-2.68-5.2a3.76 3.76 0 0 0-3.08 1.48zm11.65-3.96h2.88l-2.38 15.34H66.2zm5.48 15.34h-2.73l2.38-15.34h3.67L81 47.21l1.78-11.43h2.72l-2.38 15.34h-3.53l-3.78-11.25z" style="isolation:isolate" fill="#fff" opacity=".98"/></svg>