<svg xmlns="http://www.w3.org/2000/svg" width="91" height="91"><path d="M17.9 33.28A12.48 12.48 0 0 0 7.82 38.4l8.11 8.06 3-2.93-1.7-1.67a2.87 2.87 0 0 1-.57-1.76 3.15 3.15 0 0 1 6.29 0 3 3 0 0 1-.75 2l-1.5 1.47 8.07 7.91a12.16 12.16 0 0 0 1.6-6 12.29 12.29 0 0 0-12.4-12.19zm1.88 4.88a1.92 1.92 0 0 0-1.94 1.9 1.71 1.71 0 0 0 .31 1l1.63 1.6 1.48-1.45a1.71 1.71 0 0 0 .44-1.18 1.91 1.91 0 0 0-1.93-1.9zM7.14 39.43a12 12 0 0 0-1.64 6 12.3 12.3 0 0 0 12.4 12.23 12.46 12.46 0 0 0 10.16-5.2l-8.27-8.09-3 2.94 1.6 1.6a3 3 0 0 1 .61 1.86 3.15 3.15 0 0 1-6.29 0 3 3 0 0 1 .46-1.61v-.06L15 47.31zm8.79 8.71l-1.73 1.69a1.91 1.91 0 0 0-.24.94 1.94 1.94 0 0 0 3.88 0 1.8 1.8 0 0 0-.38-1.12zm22.55-5.24c1.42 0 2.21 1.4 2.21 3s-.81 3-2.21 3c-3.27-.01-3.27-6 0-6zm-2.35-1.07h-1.42V52.9h1.43v-3.74a2.93 2.93 0 0 0 2.34 1c2.43 0 3.72-2.24 3.72-4.35s-1.27-4.24-3.72-4.24a2.89 2.89 0 0 0-2.34 1.15zm9.01-3.5h-1.43v11.5h1.43V45a2.1 2.1 0 0 1 2.3-2.2c1.22 0 1.62 1 1.62 2.2v4.87h1.44V45c0-1.87-.78-3.49-3.06-3.49a2.43 2.43 0 0 0-2.3 1.27zm10.98 4.57c1.41 0 2.21 1.4 2.21 3s-.81 3-2.21 3c-3.27-.01-3.27-6 0-6zm-2.35-1.07h-1.43V52.9h1.44v-3.74a2.9 2.9 0 0 0 2.34 1c2.42 0 3.71-2.24 3.71-4.35s-1.26-4.24-3.71-4.24a2.92 2.92 0 0 0-2.35 1.15zm15.23 8v-1.37h-5.81V38.33h-1.51v11.5zm2.69 0v-8.14h-1.44v8.14zm.08-9.89v-1.61h-1.6v1.61zm4.72 10.13c1.56 0 3.35-.71 3.35-2.56 0-1.69-1.47-2.16-2.73-2.47l-.92-.22a3.52 3.52 0 0 1-.78-.24c-.44-.17-.65-.38-.65-.71 0-.7.75-1 1.56-1a1.55 1.55 0 0 1 1.74 1.73h1.51c0-2.31-1.67-3-3.25-3s-3.07.5-3.07 2.28c0 2 2.16 2.16 3.64 2.52a6.91 6.91 0 0 1 .77.25.93.93 0 0 1 .64.87c0 .86-.9 1.29-1.84 1.29A1.68 1.68 0 0 1 74.7 47h-1.49a3 3 0 0 0 3.28 3.07zm7.8 0a4.49 4.49 0 0 0 1.21-.19v-1.17a6.46 6.46 0 0 0-.75.11 3.71 3.71 0 0 1-.44 0c-.75 0-.74-.72-.74-1.29V43h1.93v-1.15h-1.93v-2.12h-1.43v2.12h-1.59V43h1.59v4.54c0 1.46.16 2.53 2.15 2.53z"/></svg>