<svg xmlns="http://www.w3.org/2000/svg" width="91" height="91"><path d="M6.67 50.33v2.91H5.51v-9.06h1.16v.53a2.17 2.17 0 0 1 1.58-.65 2.78 2.78 0 0 1 2.16.86 3.62 3.62 0 0 1 .77 2.53 3.71 3.71 0 0 1-.77 2.42 2.75 2.75 0 0 1-2.25.94 2.64 2.64 0 0 1-.89-.15 1.12 1.12 0 0 1-.6-.33zm0-4.75v3.79a1 1 0 0 0 .46.32 2 2 0 0 0 .69.15C9.25 49.84 10 49 10 47.4a2.65 2.65 0 0 0-.51-1.8 2.1 2.1 0 0 0-1.67-.6 1.34 1.34 0 0 0-.59.17 1.79 1.79 0 0 0-.56.38zm9.79 5.11V46.6a1.7 1.7 0 0 0-.36-1.15 1.24 1.24 0 0 0-1-.42 1.61 1.61 0 0 0-.84.25 2.08 2.08 0 0 0-.65.57v4.84h-1.17v-9.18h1.16v3.38a1.68 1.68 0 0 1 .74-.6 2.64 2.64 0 0 1 1.06-.24 2 2 0 0 1 1.62.68 2.73 2.73 0 0 1 .59 1.86v4.09zm3.94-.36v2.91h-1.15v-9.06h1.15v.53a2.2 2.2 0 0 1 1.6-.65 2.78 2.78 0 0 1 2.16.86 3.72 3.72 0 0 1 .77 2.53 3.66 3.66 0 0 1-.78 2.42 3 3 0 0 1-3.14.79 1.16 1.16 0 0 1-.61-.33zm0-4.75v3.79a1.09 1.09 0 0 0 .47.32 2 2 0 0 0 .69.15c1.43 0 2.15-.81 2.15-2.44a2.65 2.65 0 0 0-.51-1.8 2.1 2.1 0 0 0-1.64-.6 1.34 1.34 0 0 0-.59.17 2 2 0 0 0-.57.38z" fill="#75abc6"/><path d="M38.34 50.69l-1.81-9.75-3.31 10h-.52l-3.4-10-1.76 9.75h-2l2.84-15.17h.94L33 46.59l3.3-11.07h.93l3.08 15.17zM46 52.57a3.35 3.35 0 0 1-1.61 1.76 5.36 5.36 0 0 1-2.74.71v-1.76a3.84 3.84 0 0 0 2.12-.58 1.67 1.67 0 0 0 .88-1.4 5.5 5.5 0 0 0-.32-1.8c-.22-.59-.49-1.32-.83-2.19l-3-7.72h2l3.26 8.58 2.94-8.58h2zm8.49-15.19v4.22h5.34v1.75h-5.34v7.34h-2.07V35.52h9.37v1.86zm15.43 13.31l-1-3.2h-5.69l-1.12 3.2h-2.32L66 35.31h.55l5.72 15.38zm-3.79-11.4L63.78 46h4.5zm5.87.78c-1.48 5.82 1.67 10.35 6.11 10.35l-.59-1.18c-1.8 0-3.45-2.86-3.25-6.21z" fill="#30307c"/><path d="M78.7 48.94c2.47-1.38 4.64-3.45 4.64-5.72 0-2.61-1.86-4.73-4.14-4.73-2.47 0-3.85 1.28-5 3.26l-1.41-3.85a10.76 10.76 0 0 1 6.8-2.9c3.85 0 5.92 2.86 5.92 6.61s-2.67 7.3-5.92 9.17zm6.02 2.96c0 1-1.28 2-2.57 2a1.78 1.78 0 0 1-1.87-1.68c0-1.08 1.38-2.07 2.57-2.07a1.82 1.82 0 0 1 1.87 1.75z" fill="#75abc6"/><path d="M49.89 52v3h-.46v-3h-1.08v-.41H51V52zm2.89 3v-1.54a.65.65 0 0 0-.14-.44.47.47 0 0 0-.38-.16.67.67 0 0 0-.32.1.88.88 0 0 0-.25.22V55h-.44v-3.47h.44v1.28a.7.7 0 0 1 .28-.23 1 1 0 0 1 .41-.09.78.78 0 0 1 .61.26 1.08 1.08 0 0 1 .23.71V55zm3.02-1.18H54a.9.9 0 0 0 .24.67.71.71 0 0 0 .54.2.92.92 0 0 0 .63-.22l.18.32a.87.87 0 0 1-.31.18 1.69 1.69 0 0 1-.59.09 1.11 1.11 0 0 1-.79-.31 1.3 1.3 0 0 1-.36-.94 1.35 1.35 0 0 1 .37-1 1.13 1.13 0 0 1 .79-.33 1.11 1.11 0 0 1 .83.3 1 1 0 0 1 .3.76.86.86 0 0 1-.03.28zm-1.06-1a.69.69 0 0 0-.71.64h1.37a.6.6 0 0 0-.16-.44.63.63 0 0 0-.5-.2zm4.09-.91a.69.69 0 0 0-.25 0 .39.39 0 0 0-.33.15.56.56 0 0 0-.13.39.62.62 0 0 0 0 .13h.51v.37h-.51V55h-.44v-2.1h-.36v-.37h.36a1.13 1.13 0 0 1 .24-.75.75.75 0 0 1 .61-.26 1.4 1.4 0 0 1 .41.06zm1.69 2.82a1 1 0 0 1-.8.33.72.72 0 0 1-.72-.74.76.76 0 0 1 .33-.63 1.26 1.26 0 0 1 .84-.26.85.85 0 0 1 .31.06c0-.4-.18-.6-.53-.6a.84.84 0 0 0-.64.22l-.18-.37a1.11 1.11 0 0 1 .34-.18 1.25 1.25 0 0 1 .43-.07 1.09 1.09 0 0 1 .78.24 1.1 1.1 0 0 1 .24.78v.89a.47.47 0 0 0 .2.44v.22a.92.92 0 0 1-.4-.08.39.39 0 0 1-.2-.25zm0-.93a1.35 1.35 0 0 0-.29 0 .79.79 0 0 0-.54.17.52.52 0 0 0-.21.41c0 .25.15.38.45.38a.72.72 0 0 0 .59-.31zm2.56 2.2v-1.13a.88.88 0 0 1-.64.19 1 1 0 0 1-.8-.34 1.41 1.41 0 0 1-.29-.94 1.3 1.3 0 0 1 .33-.94 1.13 1.13 0 0 1 .85-.35.89.89 0 0 1 .6.24l.12-.19h.27V56zm0-2.94a.7.7 0 0 0-.47-.19.73.73 0 0 0-.59.25 1 1 0 0 0-.2.67 1 1 0 0 0 .2.67.81.81 0 0 0 1.06.08zm2.08 1.81l.15-.42a1.23 1.23 0 0 0 .6.24c.26 0 .4-.11.4-.34s-.13-.3-.39-.42a3.17 3.17 0 0 1-.41-.21.93.93 0 0 1-.18-.16.82.82 0 0 1-.12-.2.57.57 0 0 1 0-.22.58.58 0 0 1 .22-.48.94.94 0 0 1 .58-.17 1.84 1.84 0 0 1 .69.17l-.13.41a.83.83 0 0 0-.52-.21.5.5 0 0 0-.27.07.21.21 0 0 0-.11.19.39.39 0 0 0 .27.36l.31.15a.91.91 0 0 1 .42.3.65.65 0 0 1 .14.42.63.63 0 0 1-.24.52 1 1 0 0 1-.64.19 1.53 1.53 0 0 1-.77-.19zm2.9.57a.71.71 0 0 1-.35.39 1.21 1.21 0 0 1-.61.16v-.4a.8.8 0 0 0 .47-.13.37.37 0 0 0 .2-.31 1.1 1.1 0 0 0-.08-.4c0-.13-.1-.3-.18-.49l-.68-1.72h.46l.71 1.91.66-1.91h.44zm1.11-.57l.16-.42a1.17 1.17 0 0 0 .59.24c.27 0 .41-.11.41-.34s-.13-.3-.4-.42a4 4 0 0 1-.41-.21 1.29 1.29 0 0 1-.17-.16.82.82 0 0 1-.12-.2.57.57 0 0 1 0-.22.58.58 0 0 1 .22-.48.94.94 0 0 1 .58-.17 1.84 1.84 0 0 1 .69.17l-.13.41a.86.86 0 0 0-.53-.21.52.52 0 0 0-.27.07.23.23 0 0 0-.1.19.39.39 0 0 0 .26.36l.32.15a1 1 0 0 1 .42.3.64.64 0 0 1 .13.42.65.65 0 0 1-.23.52 1 1 0 0 1-.65.19 1.59 1.59 0 0 1-.77-.19zm2.12-1.98H71v-.35h.29V52l.44-.17v.69h.68v.35h-.68v1.23a.74.74 0 0 0 .11.45.42.42 0 0 0 .34.13 1 1 0 0 0 .34-.09l.07.38a2.46 2.46 0 0 1-.6.07.64.64 0 0 1-.49-.22.75.75 0 0 1-.2-.55zm3.71.93h-1.81a.9.9 0 0 0 .24.67.73.73 0 0 0 .54.2.9.9 0 0 0 .63-.22l.18.32a.79.79 0 0 1-.31.18 1.6 1.6 0 0 1-.58.09 1.09 1.09 0 0 1-.79-.31 1.27 1.27 0 0 1-.37-.94 1.36 1.36 0 0 1 .38-1 1.1 1.1 0 0 1 .79-.33 1.13 1.13 0 0 1 .83.3 1 1 0 0 1 .29.76 1.26 1.26 0 0 1-.02.28zm-1.07-1a.69.69 0 0 0-.71.64h1.38a.66.66 0 0 0-.17-.44.63.63 0 0 0-.5-.2zM78.22 55v-1.55c0-.4-.17-.59-.51-.59a.51.51 0 0 0-.29.1.5.5 0 0 0-.19.22V55h-.44v-1.74a.36.36 0 0 0-.14-.29.59.59 0 0 0-.36-.11.53.53 0 0 0-.29.14.61.61 0 0 0-.22.23V55h-.44v-2.46h.29l.15.28a.76.76 0 0 1 .63-.33.82.82 0 0 1 .75.33.57.57 0 0 1 .27-.24 1 1 0 0 1 .42-.09.77.77 0 0 1 .59.22.93.93 0 0 1 .21.64V55z" fill="#fdb749"/></svg>