<svg xmlns="http://www.w3.org/2000/svg" width="91" height="91"><path d="M36.78 45.78a4.53 4.53 0 0 1-1.05 3 3.79 3.79 0 0 1-5.32.44v4.89h-2.18V41.72l1.2 1.05a3.71 3.71 0 0 1 2.88-1.23 4.34 4.34 0 0 1 3.39 1.25 4.27 4.27 0 0 1 1.08 2.99zm-2.14 0A2.44 2.44 0 0 0 34 44.1a2.11 2.11 0 0 0-1.62-.66 1.86 1.86 0 0 0-1.51.69 2.55 2.55 0 0 0-.57 1.65 2.6 2.6 0 0 0 .53 1.66 1.88 1.88 0 0 0 1.51.75l.55-.06a1.37 1.37 0 0 0 .72-.28 2.33 2.33 0 0 0 1-2.07zm9.93 3.84h-2.18v-5a1.53 1.53 0 0 0-.33-1.13 1.65 1.65 0 0 0-1.16-.31c-1 0-1.46.68-1.46 2v4.44h-2.17V36.95h2.2v4.91a3.17 3.17 0 0 1 2.07-.62q3 0 3 3.36zm8.87-3.84a4.53 4.53 0 0 1-1 3 3.79 3.79 0 0 1-5.32.44v4.89h-2.23V41.72l1.2 1.05A3.72 3.72 0 0 1 49 41.53a4.37 4.37 0 0 1 3.39 1.25 4.32 4.32 0 0 1 1.05 3zm-2.15 0a2.44 2.44 0 0 0-.6-1.68 2.11 2.11 0 0 0-1.62-.66 1.86 1.86 0 0 0-1.51.69 2.49 2.49 0 0 0-.56 1.65 2.54 2.54 0 0 0 .53 1.66 1.85 1.85 0 0 0 1.51.75l.55-.06a1.3 1.3 0 0 0 .71-.28 2.33 2.33 0 0 0 .99-2.07zm9.83 3.84H59v-4.7a2.1 2.1 0 0 0-.24-1.18 1.45 1.45 0 0 0-1.13-.35c-1 0-1.58.65-1.58 2v4.28h-2.22v-7.96l1.14 1a3.44 3.44 0 0 1 2.54-1.16c2.4 0 3.61 1.14 3.61 3.42zm7.79.38l-1-.89a3.48 3.48 0 0 1-2.6.92 3.6 3.6 0 0 1-2.64-1 3.47 3.47 0 0 1-1-2.6v-4.69h2.17v4.44a2.17 2.17 0 0 0 .36 1.28 1.3 1.3 0 0 0 1.15.58c.93 0 1.4-.62 1.4-1.87v-4.43h2.18zm8.44-.38h-2.86l-2.65-3.24-.14.13v3.11h-2.17v-12.6h2.2v6.81l2.45-2.4h2.93l-3.66 3.5z" fill="#83a301"/><path d="M85 48a5.48 5.48 0 0 1-1.47 1.37 4.58 4.58 0 0 1-2.64.48 4.59 4.59 0 0 1-3.73-1.23 3.58 3.58 0 0 1-1.1-3 3.33 3.33 0 0 1 1.2-2.74 4.6 4.6 0 0 1 3.42-1.37 4.26 4.26 0 0 1 3.47 1.4 4.89 4.89 0 0 1 1.33 3.39h-7.37c.27 1.19 1.21 1.83 2.8 1.92a2.69 2.69 0 0 0 2.33-1zm-1.71-3.08a2.78 2.78 0 0 0-2.53-1.64A3 3 0 0 0 78 44.89zM14.4 47.33l-5.02-2.51 3.2-1.94 1.14-3.99-8.22 4.33v2.97l7.99 4.45.91-3.31zm4.34-.68l-.68 3.99 8.1-4.45v-2.97l-7.65-4.33h-1.82l-2.51 11.75h1.48l1.94-8.56 4.68 2.63-3.54 1.94z" fill="#83a301"/></svg>