<svg xmlns="http://www.w3.org/2000/svg" width="91" height="91"><circle cx="45.5" cy="45.5" r="40" fill="#18b99b"/><path d="M15 40.17v-.3h5.16a4 4 0 0 1 2.35.63 2.1 2.1 0 0 1 .93 1.87 2.8 2.8 0 0 1-1.18 2.39 4.59 4.59 0 0 1-2.77.86h-1.24v3.54a.76.76 0 0 0 .47.72 4.83 4.83 0 0 0 1.25.17v.34H15v-.34a3.43 3.43 0 0 0 1.1-.18.76.76 0 0 0 .49-.76v-7.93a.73.73 0 0 0-.49-.79 4.65 4.65 0 0 0-1.1-.22zm3.3 4.93h.7a3.18 3.18 0 0 0 1.11-.17 1.88 1.88 0 0 0 1.17-1.07 3.45 3.45 0 0 0 .2-.62 4.9 4.9 0 0 0 0-.54A3 3 0 0 0 21 41a2 2 0 0 0-1.72-.71h-1zm5.33-5.76V39l2.74-.15.11.1v5.51l.3-.29.33-.3a2.26 2.26 0 0 1 .37-.26 2.1 2.1 0 0 1 .42-.22 3.8 3.8 0 0 1 .51-.15 4.21 4.21 0 0 1 .62-.05 1.81 1.81 0 0 1 1.54.63 2.77 2.77 0 0 1 .51 1.78v3.62a.7.7 0 0 0 .4.7 2.1 2.1 0 0 0 .7.16v.32h-3.67v-.31a4.57 4.57 0 0 0 .74-.12.65.65 0 0 0 .43-.7v-3.72a1.84 1.84 0 0 0-.38-1.21 1.19 1.19 0 0 0-.91-.45 2.15 2.15 0 0 0-1.25.36 2 2 0 0 0-.68.72v4.22a.69.69 0 0 0 .42.7 2 2 0 0 0 .73.19v.31H24v-.31a3.11 3.11 0 0 0 .68-.11.63.63 0 0 0 .42-.69V40.5a1.15 1.15 0 0 0-.42-.9 2.11 2.11 0 0 0-1.05-.26zm8.74 14.25a4.17 4.17 0 0 0 .86-.14c.26-.08.4-.32.4-.73v-7.89a1 1 0 0 0-.4-.77 1.65 1.65 0 0 0-.86-.27v-.25l2.54-.21.11.09v.79h.07a2.77 2.77 0 0 1 2.08-1 3 3 0 0 1 2.33 1 3.84 3.84 0 0 1 .94 2.79 3.6 3.6 0 0 1-3.56 3.63 2.87 2.87 0 0 1-1.78-.48H35v2.5a.72.72 0 0 0 .44.73 3.53 3.53 0 0 0 1.07.23v.31h-4.14zM35 49a2 2 0 0 0 .62.85 1.67 1.67 0 0 0 1.13.38 1.69 1.69 0 0 0 1.48-.88 4.47 4.47 0 0 0 .6-2.35 4.73 4.73 0 0 0-.21-1.5 2.48 2.48 0 0 0-.71-1.14 1.75 1.75 0 0 0-1.25-.46 2 2 0 0 0-1.6.77zm6-5.21v-.31l2.5-.16.11.09v1.08a2.71 2.71 0 0 1 2.09-1.25 1 1 0 0 1 .67.28.93.93 0 0 1 .3.66 1.18 1.18 0 0 1-.21.7.74.74 0 0 1-.62.28q-.84 0-.84-.75a.86.86 0 0 1 .06-.23.7.7 0 0 0 .05-.25 1.5 1.5 0 0 0-1 .33 1.93 1.93 0 0 0-.62.68v4.26a.6.6 0 0 0 .41.69 3.22 3.22 0 0 0 1 .19v.31h-3.84v-.31a2.67 2.67 0 0 0 .69-.09.62.62 0 0 0 .41-.69v-4.42a1.06 1.06 0 0 0-.41-.84 1.53 1.53 0 0 0-.75-.25zm6.89 5.82a3.53 3.53 0 0 1-1-2.66 3.7 3.7 0 0 1 1-2.7 3.56 3.56 0 0 1 2.64-1 3.49 3.49 0 0 1 2.63 1 3.57 3.57 0 0 1 1 2.59 3.66 3.66 0 0 1-6.23 2.79zm.62-2.79a5.52 5.52 0 0 0 .5 2.5 1.63 1.63 0 0 0 1.49 1 1.58 1.58 0 0 0 1.47-1 6.13 6.13 0 0 0 0-4.8 1.57 1.57 0 0 0-1.51-1 1.65 1.65 0 0 0-1 .29 1.84 1.84 0 0 0-.62.79 4.24 4.24 0 0 0-.32 1 7.3 7.3 0 0 0-.09 1.14z" fill="#fff"/><path d="M52.79 52.74a.84.84 0 0 1 .21-.55.76.76 0 0 1 .58-.27.92.92 0 0 1 .58.19.67.67 0 0 1 .25.57 1.55 1.55 0 0 1-.07.43 1.84 1.84 0 0 0-.06.4.76.76 0 0 0 .3.05 1 1 0 0 0 1-.75 8.28 8.28 0 0 0 .27-2.57v-5.32a1.07 1.07 0 0 0-.41-.83 2.57 2.57 0 0 0-.59-.2 4.16 4.16 0 0 0-.69-.12v-.27l3-.18.11.11v6.34a4.49 4.49 0 0 1-1 3.17 2.76 2.76 0 0 1-2 1 1.68 1.68 0 0 1-1.1-.33 1 1 0 0 1-.38-.87zm2.6-12.44a.92.92 0 0 1 .3-.69 1 1 0 0 1 .71-.29 1 1 0 0 1 .69.27.87.87 0 0 1 .28.62 1 1 0 0 1-.28.71.91.91 0 0 1-.69.31 1 1 0 0 1-.71-.29.89.89 0 0 1-.3-.65zm3.44 6.55a3.84 3.84 0 0 1 .91-2.55 3 3 0 0 1 2.43-1.08 2.57 2.57 0 0 1 2.12.83 3.28 3.28 0 0 1 .71 2.13v.14h-4.5v.18A4.83 4.83 0 0 0 61 49a1.87 1.87 0 0 0 1.74.91 2 2 0 0 0 1.25-.3 3.85 3.85 0 0 0 .87-1.06l.28.18A3.47 3.47 0 0 1 64 50.1a2.89 2.89 0 0 1-1.64.51 3.25 3.25 0 0 1-2.62-1.07 3.94 3.94 0 0 1-.91-2.69zm1.63-.85h3.13c0-1.59-.47-2.39-1.4-2.39a1.39 1.39 0 0 0-1.22.66 3.15 3.15 0 0 0-.51 1.73zm5.1.87a3.72 3.72 0 0 1 1-2.56 3.21 3.21 0 0 1 2.53-1.08 2.66 2.66 0 0 1 1.75.51 1.64 1.64 0 0 1 .59 1.26 1 1 0 0 1-.21.63.74.74 0 0 1-.58.23 1 1 0 0 1-.58-.18.71.71 0 0 1-.28-.6 1.87 1.87 0 0 1 .1-.62.88.88 0 0 0 .1-.35.63.63 0 0 0-.27-.45 1.35 1.35 0 0 0-.62-.12 1.62 1.62 0 0 0-1.32.77 4.12 4.12 0 0 0-.57 2.45 4.19 4.19 0 0 0 .58 2.24 1.8 1.8 0 0 0 1.58.89 2.35 2.35 0 0 0 1.29-.33 2.91 2.91 0 0 0 .9-1l.29.21a3.77 3.77 0 0 1-1.21 1.33 2.86 2.86 0 0 1-1.65.52 3.16 3.16 0 0 1-2.54-1 4 4 0 0 1-.88-2.75zm6.06-2.76v-.66h1.5v-2.39h1.36v2.39h2.1v.66h-2.09v4.13a1.85 1.85 0 0 0 .26 1.08 1.09 1.09 0 0 0 .93.38.8.8 0 0 0 .58-.22.85.85 0 0 0 .25-.39c0-.12.07-.33.11-.62H77a2.45 2.45 0 0 1-.63 1.47 1.76 1.76 0 0 1-1.35.6c-1.25 0-1.88-.71-1.88-2.14v-4.29z" fill="#fff"/></svg>