<svg xmlns="http://www.w3.org/2000/svg" width="91" height="91"><path d="M8 29.22a2.1 2.1 0 0 1 2.1-2.1h32l1-3.67a2.1 2.1 0 0 1 1.57-1.57h25.75A2.1 2.1 0 0 1 72 23.45l1 3.67h7.9a2.11 2.11 0 0 1 2.1 2.1V67a2.1 2.1 0 0 1-2.1 2.1H10.1A2.1 2.1 0 0 1 8 67V29.22" fill="#f70"/><path d="M48.07 24.4a.53.53 0 0 1 .52-.53h17.84a.52.52 0 0 1 .52.53v5.46a.52.52 0 0 1-.52.52H48.59a.52.52 0 0 1-.52-.52V24.4" fill="#4e4e4e"/><path d="M48.86 25a.52.52 0 0 1 .52-.53h16.26a.52.52 0 0 1 .52.53v4.19a.52.52 0 0 1-.52.53H49.38a.52.52 0 0 1-.52-.53V25" fill="#fff"/><circle cx="28.98" cy="48.1" r="15.74" fill="#fff"/><circle cx="28.98" cy="48.1" r="12.9" fill="#4e4e4e"/><circle cx="28.98" cy="48.1" r="10.49" fill="#fff"/><circle cx="27.93" cy="49.15" r="10.49" fill="#4e4e4e"/></svg>