<svg xmlns="http://www.w3.org/2000/svg" xmlns:xlink="http://www.w3.org/1999/xlink" width="91" height="91"><defs><linearGradient id="a" x1="48.54" y1="46.52" x2="82.27" y2="46.52" gradientTransform="rotate(.57 79.054 130.284)" gradientUnits="userSpaceOnUse"><stop offset="0" stop-color="#5391c4"/><stop offset="1" stop-color="#004c66"/></linearGradient><linearGradient id="b" x1="48.54" y1="55.09" x2="82.27" y2="55.09" xlink:href="#a"/><linearGradient id="c" x1="48.54" y1="32.88" x2="82.27" y2="32.88" xlink:href="#a"/><linearGradient id="d" x1="48.54" y1="37.56" x2="82.27" y2="37.56" xlink:href="#a"/><linearGradient id="e" x1="48.54" y1="58.78" x2="82.27" y2="58.78" xlink:href="#a"/></defs><path d="M77.22 46.23l5.21 8.12A25.82 25.82 0 0 1 83 38.77z" fill="url(#a)"/><path d="M59.92 60.76l.06.09v-9l-8.06-3 .22.33a25.81 25.81 0 0 1 7.78 11.58z" fill="url(#b)"/><path d="M79.9 34.18h-.15a25.64 25.64 0 0 1-14.22-5.19l-.19-.07 5.34 7.81z" fill="url(#c)"/><path d="M60 31.4A25.77 25.77 0 0 1 50.88 43l-.18.21 9.3-3.32z" fill="url(#d)"/><path d="M78.54 58.17l-8.38-3-6.15 7a25.58 25.58 0 0 1 13.78-4z" fill="url(#e)"/><path d="M8 37.36a23.07 23.07 0 0 1 3.8-.28 6.1 6.1 0 0 1 4 1.11 3.83 3.83 0 0 1 1.33 3A4.18 4.18 0 0 1 16 44.27a6 6 0 0 1-4.29 1.46 6.21 6.21 0 0 1-1.22-.09v5.12H8zm2.46 6.33a5 5 0 0 0 1.22.11c1.85 0 3-.92 3-2.51S13.61 39 11.9 39a7 7 0 0 0-1.44.12zm8.05-7.23H21v14.3h-2.49zm7.19 1.75a1.39 1.39 0 0 1-2.77 0 1.33 1.33 0 0 1 1.39-1.34 1.31 1.31 0 0 1 1.38 1.34zm-2.62 12.55V41h2.48v9.8zM36.58 41c0 .65-.08 1.47-.08 2.81v5.57c0 2-.42 3.51-1.45 4.44A5.65 5.65 0 0 1 31.26 55a7.17 7.17 0 0 1-3.42-.77l.53-1.9a5.77 5.77 0 0 0 2.86.76 2.61 2.61 0 0 0 2.82-3v-.84a3.28 3.28 0 0 1-2.85 1.44c-2.43 0-4.16-2-4.16-4.78 0-3.24 2.09-5.18 4.43-5.18a3.06 3.06 0 0 1 2.85 1.53l.1-1.26zM34 44.89a2.2 2.2 0 0 0-.08-.67 2.06 2.06 0 0 0-2-1.59c-1.38 0-2.41 1.2-2.41 3.21 0 1.66.84 3 2.4 3a2.09 2.09 0 0 0 2-1.5 3.72 3.72 0 0 0 .11-.88zM47.52 41c0 .65-.08 1.47-.08 2.81v5.57c0 2-.42 3.51-1.45 4.44A5.62 5.62 0 0 1 42.2 55a7.2 7.2 0 0 1-3.42-.77l.54-1.89a5.84 5.84 0 0 0 2.86.75 2.61 2.61 0 0 0 2.82-3v-.84a3.28 3.28 0 0 1-2.9 1.45c-2.43 0-4.16-2-4.16-4.78 0-3.24 2.09-5.18 4.43-5.18a3.06 3.06 0 0 1 2.85 1.53l.13-1.27zM45 44.89a2.55 2.55 0 0 0-.07-.67 2.07 2.07 0 0 0-2-1.59c-1.37 0-2.4 1.2-2.4 3.21 0 1.66.84 3 2.39 3a2.08 2.08 0 0 0 2-1.5 2.85 2.85 0 0 0 .11-.87z" fill="#25699a"/></svg>