<svg xmlns="http://www.w3.org/2000/svg" width="91" height="91"><defs><linearGradient id="a" x1="45.5" y1="27.47" x2="45.5" y2="63.58" gradientUnits="userSpaceOnUse"><stop offset="0" stop-color="#1d2e3e"/><stop offset="1" stop-color="#15212d"/></linearGradient><linearGradient id="b" x1="33.95" y1="23.76" x2="57.29" y2="64.18" gradientUnits="userSpaceOnUse"><stop offset=".17" stop-color="#feffbf"/><stop offset=".28" stop-color="#feffb9"/><stop offset=".43" stop-color="#feffa8"/><stop offset=".6" stop-color="#ffff8d"/><stop offset=".78" stop-color="#ffff69"/></linearGradient><linearGradient id="c" x1="22.47" y1="31.42" x2="29.53" y2="43.64" gradientUnits="userSpaceOnUse"><stop offset="0" stop-color="#91b4c8"/><stop offset="1" stop-color="#456689"/></linearGradient><linearGradient id="d" x1="36.92" y1="34.02" x2="47.43" y2="52.21" gradientUnits="userSpaceOnUse"><stop offset="0" stop-color="#ea0"/><stop offset="1" stop-color="#c23a00"/></linearGradient><linearGradient id="e" x1="58.91" y1="31.69" x2="70.94" y2="52.53" gradientUnits="userSpaceOnUse"><stop offset="0" stop-color="#466989"/><stop offset="1" stop-color="#162333"/></linearGradient></defs><path d="M20.42 54.5C10 56 5.5 51.35 5.5 47.47c0-3.24 2.27-5.41 5.51-7.24-.43-6.49 6.49-8.55 14.92-8.87 1.41-1.73 4.76-3.35 10-3.35 3.88 0 5.29.32 7 1 1-.75 3.1-1.51 6.92-1.51 4.76 0 8.32.76 10 2.6a9.33 9.33 0 0 1 3-.33c5.51 0 12.1 1.51 13.29 6.16 5.09 1.41 9.41 3.68 9.41 8.22S81 50.71 78 50.71a6.87 6.87 0 0 1 .22 1.62c0 5.84-6.05 9-13.51 9C56.1 61.31 51 57.63 51 57.09c0 .76-5.09 6.49-15.79 6.49-10.03 0-14.79-4.98-14.79-9.08z" fill="url(#a)"/><path d="M49.93 51c-.75 11.25-31.13 11.25-26.38-1.29-17.73 3.6-19.35-7.1-9.08-10.03-4.32-5.18 6-8 12.76-7.45 1-3.68 10.81-4.76 15.78-2.17 1.73-2.16 13-3.13 15.9.87 5.29-.76 14.91-.65 15 5.4 3.68.54 9.19 2.66 9.19 6 0 2.57-3 4.54-8.65 4.65 4.54 7.67-4.2 10-9.4 10C57.72 57 52.63 54.6 49.93 51z" fill="url(#b)"/><path d="M23.18 39.09c3.82 0 6.91 1.26 6.91 2.81 0 2.38-5.8 5.19-13 5.19-3.88 0-7-1.26-7-2.81 0-2.16 5.91-5.19 13.09-5.19zm-7.68-3c0 1.14 2.66 2.06 5.94 2.06 5.26 0 9.52-1.84 9.52-3.35 0-1-2.57-1.84-5.73-1.84-5.38 0-9.73 1.84-9.73 3.13zm13.84-4.54c0 .89 2.56 1.63 5.73 1.63 3.94 0 7.13-.92 7.13-2.06 0-.84-2.56-1.51-5.73-1.51-3.94-.03-7.13 1.05-7.13 1.91z" fill="url(#c)"/><path d="M38 44.39c5.55 0 10 2.27 10 5.08C48 53.05 42.14 56 34.85 56c-5.38 0-9.73-2.37-9.73-5.3s5.76-6.31 12.88-6.31zm-5.73-6.27c0 2.75 5.94 5 13.29 5 7.77 0 14.06-2.22 14.06-5s-6-5-13.3-5c-7.78.03-14.06 2.25-14.06 5zM50.42 29c-3.35 0-6.06.67-6.06 1.51 0 1 2.57 1.84 5.73 1.84 5.3 0 6.82-.68 6.82-1.52 0-.97-2.91-1.83-6.49-1.83z" fill="url(#d)"/><path d="M63 31.42c4.43 0 8.76 1.15 8.76 2.59 0 1-2.62 1.73-5.84 1.73-4.11 0-8.76-1.16-8.76-2.59-.04-.96 2.57-1.73 5.84-1.73zm11.46 12.1c3.6 0 6.54-1.11 6.54-2.52 0-2.39-6.81-4.32-12-4.32-3.52 0-6.38 1.07-6.38 2.38.02 2.48 6.38 4.46 11.8 4.46zm-14-.43c-5 0-9.08 1.79-9.08 4 0 3.65 6.49 6.6 13.08 6.6 5.2 0 9.3-1.94 9.3-4.33 0-3.46-6.49-6.27-13.3-6.27z" fill="url(#e)"/></svg>