<svg xmlns="http://www.w3.org/2000/svg" width="91" height="91"><path d="M11.27 64.07a2.14 2.14 0 0 0 2.1 1.67 2.06 2.06 0 0 0 1.53-.63 2.13 2.13 0 0 0 0-3 2 2 0 0 0-1-.57l-1.15-.3a2.41 2.41 0 0 1-1.37-.9 2.56 2.56 0 0 1 2-4.11 2.41 2.41 0 0 1 1.28.34 2.54 2.54 0 0 1 .94.93l-.71.4a1.63 1.63 0 0 0-1.45-.9 1.65 1.65 0 0 0-1.23.52 1.73 1.73 0 0 0-.14 2.29 1.58 1.58 0 0 0 .91.61l1.15.29a2.85 2.85 0 0 1 1.58 1 2.89 2.89 0 0 1 .61 1.81 2.82 2.82 0 0 1-.87 2.1 2.85 2.85 0 0 1-2.08.85 2.8 2.8 0 0 1-1.82-.63 3 3 0 0 1-1.05-1.63zM17 58h.81v.88H17zm0 2.36h.81v6H17zm10.26 6.04h-.81v-3.85a1.43 1.43 0 0 0-.45-1.12 1.59 1.59 0 0 0-2.15 0 1.43 1.43 0 0 0-.46 1.12v3.85h-.82v-3.85a1.43 1.43 0 0 0-.46-1.12 1.59 1.59 0 0 0-2.15 0 1.43 1.43 0 0 0-.46 1.12v3.85h-.81v-6l.68.53a2.37 2.37 0 0 1 2.79-.41 2.11 2.11 0 0 1 .83.74 2.23 2.23 0 0 1 1.93-1 2.2 2.2 0 0 1 .94.19 2.52 2.52 0 0 1 .72.5 2.55 2.55 0 0 1 .49.72 2.14 2.14 0 0 1 .19.94zm4.08.18A3.13 3.13 0 0 1 29 65.52v4.9h-.81V60.36l.88.83a3.1 3.1 0 0 1 2.31-1 3.19 3.19 0 1 1 0 6.38zm0-.81a2.37 2.37 0 1 0-1.69-.7 2.33 2.33 0 0 0 1.69.7zm3.85.63v-10H36v10zM42 64.5l.71.4a3.19 3.19 0 0 1-5.55.1 3.25 3.25 0 0 1-.45-1.61 3.07 3.07 0 0 1 .95-2.26 3.21 3.21 0 0 1 4.53 0 3.72 3.72 0 0 1 .4.49l-4.16 3.68a2.37 2.37 0 0 0 3.57-.8zm-4.08.22l3.53-3.14a2.38 2.38 0 0 0-3.53 3.14z" fill="#f36712"/><path d="M43.34 66.4v-10h.82v10zm1.66 0v-6l.7.56a2.29 2.29 0 0 1 1.71-.72 2.37 2.37 0 0 1 2.4 2.33v3.83H49v-3.79a1.49 1.49 0 0 0-.46-1.15 1.55 1.55 0 0 0-1.09-.46 1.6 1.6 0 0 0-1.6 1.59v3.81zm9.73-6.04h.88L53 66.59l-2.66-6.23h.89L53 64.5zM59 60.2a3.21 3.21 0 1 1-2.24.93A3.1 3.1 0 0 1 59 60.2zm0 .8a2.37 2.37 0 1 0 1.68.69A2.3 2.3 0 0 0 59 61zm3.88-3h.82v.88h-.82zm0 2.36h.82v6h-.82zm7.12.99l-.63.5a2.39 2.39 0 1 0-1.82 3.91 2.23 2.23 0 0 0 1.77-.76l.65.5a3.13 3.13 0 0 1-2.42 1.11 3.19 3.19 0 0 1 0-6.38 3 3 0 0 1 1.38.3 3.15 3.15 0 0 1 1.07.82zm5.73 3.15l.71.4a3.19 3.19 0 0 1-5.55.1 3.25 3.25 0 0 1-.45-1.61 3.07 3.07 0 0 1 1-2.26 3.21 3.21 0 0 1 4.54 0 4.54 4.54 0 0 1 .39.48L72.2 65.3a2.39 2.39 0 0 0 2.66.13 2.43 2.43 0 0 0 .87-.93zm-4.08.22l3.53-3.14a2.39 2.39 0 0 0-3.53 3.14zm5.96.4a1 1 0 0 0 1 .59 1.06 1.06 0 0 0 1.08-1 1.05 1.05 0 0 0-.22-.66 1 1 0 0 0-.53-.37l-.71-.21a1.7 1.7 0 0 1-.86-.58 1.55 1.55 0 0 1-.32-1 1.59 1.59 0 0 1 1.58-1.6 1.61 1.61 0 0 1 1.47 1l-.74.31a.69.69 0 0 0-.72-.47.77.77 0 0 0-.78.77.72.72 0 0 0 .57.76l.71.2a1.81 1.81 0 0 1 1 .67 1.88 1.88 0 0 1-1.51 3 1.7 1.7 0 0 1-1-.28 1.9 1.9 0 0 1-.71-.75z" fill="#777"/><path fill="#fff" stroke="#777" stroke-miterlimit="10" stroke-width=".641" d="M30.591 25.758l14.727-5.206 7.726 21.854-14.726 5.206z"/><path fill="#fff" stroke="#777" stroke-miterlimit="10" stroke-width=".641" d="M36.372 24.963l15.602-.76 1.128 23.153-15.602.76z"/><path fill="#fff" stroke="#777" stroke-miterlimit="10" stroke-width=".641" d="M37.458 48.984l3.526-22.91 15.438 2.376-3.526 22.91z"/></svg>