<svg xmlns="http://www.w3.org/2000/svg" width="91" height="91"><path d="M50.1 55.51c-2.6-3.07-4.91-6-4.91-9.19 0-1.73 1.43-3.17 1.43-6.39a11.39 11.39 0 1 0-11.39 11.39c3.63 0 3.85-1 5.37-1 3.27-.02 5.57 1.86 9.5 5.19z" fill="#829d25"/><path d="M58.17 29.76a5.62 5.62 0 0 0-11.24 0 6.61 6.61 0 0 0 1.43 3.89 6.83 6.83 0 0 1 .82 5.92c1.63-2.86 2.59-3.75 4.09-4.19 2.73-.8 4.9-2.71 4.9-5.62z" fill="#3096c3"/><path d="M64.91 46.62a8.28 8.28 0 0 0-16.55 0c0 3.36 2.09 5.8 4.7 7.57 1.92 1.29 3.26 4 3.58 7.86 1-4.52 2.23-6.65 4-7.86a9.15 9.15 0 0 0 4.27-7.57z" fill="#8e181b"/><circle cx="35.23" cy="39.93" r="6.49" fill="#fff"/><circle cx="52.55" cy="29.76" r="2.76" fill="#fff"/><circle cx="56.79" cy="46.57" r="4.65" fill="#fff"/><path d="M14.64 58.68a6 6 0 0 0-3.06-.82c-1.95 0-3.17 1.13-3.17 2.66a2.12 2.12 0 0 0 1.84 2.35c1.63.31 2.35.51 2.35 1.23 0 .51-.41.92-1.13.92a6.84 6.84 0 0 1-2.65-.92L8 65.63a7.75 7.75 0 0 0 3.37 1c2 0 3.58-1.28 3.58-2.86s-1.12-2.06-2.35-2.45c-1-.32-1.84-.31-1.84-1a.93.93 0 0 1 1-.82 3.5 3.5 0 0 1 2 .71zm6.23 6.23l.31 1.23c-1.63.72-4.09.92-4.09-2.15V59.6h-.81v-1.53h.81v-1.74l2.15-.71v2.45h1.94l-.71 1.53h-1.23v4.29c0 1.33.61 1.23 1.63 1.02zm8.38-.2v-4.8c0-1.13-1-1.94-2.76-1.94a6.13 6.13 0 0 0-3.57 1.12l.92 1.63a3.52 3.52 0 0 1 2.35-1c.56 0 1 .32 1 .72v.92h-1.62A2.56 2.56 0 0 0 22.71 64c0 1.64.82 2.66 2.76 2.66a3 3 0 0 0 2.25-.82l1 1 1.33-1.33zm-2.14-.31c0 .31-.45.72-1.13.72A1.08 1.08 0 0 1 25 64a1.17 1.17 0 0 1 1.23-1.22h.92zm8.79.51l.3 1.23c-1.63.72-4.09.92-4.09-2.15V59.6h-.81v-1.53h.81v-1.74l2.15-.71v2.45h1.94l-.71 1.53h-1.23v4.29c0 1.33.61 1.23 1.64 1.02zm17.26-6.23a5.94 5.94 0 0 0-3.06-.82c-1.94 0-3.17 1.13-3.17 2.66a2.12 2.12 0 0 0 1.84 2.35c1.63.31 2.35.51 2.35 1.23 0 .51-.41.92-1.12.92a6.82 6.82 0 0 1-2.66-.92l-.82 1.53a7.75 7.75 0 0 0 3.37 1c2 0 3.58-1.28 3.58-2.86s-1.12-2.06-2.35-2.45c-1-.32-1.84-.31-1.84-1a.93.93 0 0 1 1-.82 3.55 3.55 0 0 1 2.05.71zm-10.32 7.15a2.8 2.8 0 0 1-2.14.72 2.35 2.35 0 0 1-2.7-2.66v-5.52l2.25-.51v5.73c0 .73.1 1.32.92 1.32s1.22-.51 1.22-1.53v-5l2.15-.51v5.62c0 1.33 0 1.43.51 2.25l-1.53.92z"/><circle cx="56.79" cy="65.17" r="1.48"/><path d="M82.69 64.91l.31 1.23c-1.63.72-4.09.92-4.09-2.15V59.6h-.81v-1.53h.81v-1.74l2.15-.71v2.45H83l-.72 1.53h-1.22v4.29c0 1.33.61 1.23 1.63 1.02zm-17.57-3.78v5.21h2.14v-6.13A2 2 0 0 0 65.12 58a3.84 3.84 0 0 0-2.45.92 4 4 0 0 0-.31-1l-1.94.62a4.81 4.81 0 0 1 .3 2v5.82H63v-5.84a2.11 2.11 0 0 1 1.43-.82c.69 0 .69.72.69 1.43zM73.7 65c-1.22 0-1.84-1-1.84-2.15h4.91c0-2.55-.62-5-3.58-5-2 0-3.68 1.64-3.68 4.4a4.11 4.11 0 0 0 4 4.39 4.73 4.73 0 0 0 3.16-1.22l-.91-1.33a2.79 2.79 0 0 1-2.06.91zm-.41-5.52c.92 0 1.23.82 1.23 1.84h-2.66c0-1 .51-1.82 1.43-1.82z"/></svg>