<svg xmlns="http://www.w3.org/2000/svg" width="91" height="91"><defs><linearGradient id="a" x1="45.5" y1="35.55" x2="45.5" y2="55.46" gradientUnits="userSpaceOnUse"><stop offset="0" stop-color="#003781"/><stop offset="1" stop-color="#002151"/></linearGradient></defs><path fill="url(#a)" d="M5.5 35.55h80v19.92h-80z"/><path fill="#fc0" d="M55.63 45.51v-.34h.33v-.33h.33v-.33h.33v-.33h.33v-.33h.34v-.34h.33v-.33h.33v-.33h.33v-.33h.33v-1.66h-1.66v.33h-.33v.33h-.33v.33h-.33v.34h-.33v.33h-.34v.33h-.33v.33h-.33v.33h-.33v.34h-.33v.33h-.67v-.34h-.33v-.33h-.33v-.33h-.33v-.33h-.33v-.33h-.34v-.33h-.33v-.34h-.33v-.33h-.33v-.33h-.34v-.33h-1.66v1.66h.34v.33h.33v.33h.33v.33h.33v.33h.33v.34h.34v.33h.33v.33h.33v.33h.33v.34h.34v.66h-.34v.33h-.33v.33h-.33v.33h-.33v.34h-.34v.33h-.33v.33h-.33v.33h-.33v.34h-.33v.33h-.33v1.66h1.65v-.34h.34v-.33h.33v-.33h.33v-.33h.33v-.33h.34v-.33h.33v-.34h.33v-.33h.33v-.33h.33v-.33h.67v.33h.33v.33h.33v.33h.33v.33h.33v.34h.33v.33h.34v.33h.33v.33h.33v.33h.33v.33h1.66v-1.66h-.33v-.33h-.33v-.33h-.33v-.33h-.34v-.33h-.33v-.34h-.33v-.33h-.33v-.33h-.33v-.33h-.34v-.33h-.33v-.66h.34zm18.92-1.33h.33v.33h.33v.33h.33v.33h.34v.34h.33v.33h.33v.33h.33v.33h.33v.33h.67v-.33h.33v-.33h.33v-.33h.33v-.33h.34v-.34h.33v-.33h.33v-.33h.33v-.33h.33v6.64h1.99v-9.96h-1.99v.33h-.33v.33h-.33v.33h-.33v.34h-.33v.33h-.34v.33h-.33v.33h-.33v.33h-.33v.33h-.67v-.33h-.33v-.33h-.33v-.33h-.33v-.33h-.33v-.33h-.34v-.34h-.33v-.33h-.33v-.33h-.33v-.33h-1.99v9.96h1.99M36.7 40.86h9.96v1.99H36.7zm0 3.98h9.96v1.99H36.7zm0 3.99h9.96v1.99H36.7zm23.91-7.97v10h2v-4h6v4h2v-10zm8 4h-6v-2h6zM8.82 38.87v13.94h25.89V38.87zm12 4h-4v8h-2v-8h-4v-2h10zm12 0h-8v6h8v2h-10v-10h10z"/></svg>