<svg xmlns="http://www.w3.org/2000/svg" width="91" height="91"><defs><linearGradient id="a" x1="23.27" y1="23.7" x2="31.98" y2="32.4" gradientTransform="translate(0 -.42)" gradientUnits="userSpaceOnUse"><stop offset="0" stop-color="#fff"/><stop offset=".5"/></linearGradient></defs><path d="M75.25 75.26c-2.27 2.26-4.62 3.32-5.54 2.4-.17-.17-6.08-6.68-12.78-13.39-6.08-6.08-13.2-12.27-17.6-16.64S27.65 35.06 27.64 35.05l-.48-.55 3.54-3.85 3.79-3.48.55.48s8.2 7.35 12.59 11.69 10.55 11.52 16.63 17.6C71 63.65 77.41 69.47 77.7 69.76c.79.8-.07 3.11-2.45 5.49z"/><path d="M47.05 39.92C42.7 35.56 34.5 28.26 34.5 28.26l-3.26 3-3 3.26s7.31 8.2 11.66 12.55 11.5 10.52 17.6 16.62C64.21 70.41 70.17 77 70.28 77.08s1.36.63 4.4-2.4 2.5-4.3 2.43-4.37-6.71-6.09-13.42-12.81c-6.11-6.1-12.28-13.23-16.63-17.59z" fill="#c6b56f"/><path d="M74.05 75.28a1.41 1.41 0 0 1-.71-.48c-.31-.31-6.55-6.65-13.26-13.36C57.59 59 52.66 54.4 52 53.8a2.24 2.24 0 0 1-.46-3.19 5.7 5.7 0 0 1 3.29-2.47l-3-3.22C48.89 46.54 45.52 48.5 45 48L34.24 37.23a2.65 2.65 0 0 1-.33-3.45 7.14 7.14 0 0 1 3.46-3c-1.69-1.53-2.86-2.57-2.86-2.57l-3.26 3-3 3.26s7.31 8.2 11.65 12.55 11.5 10.57 17.61 16.67c6.7 6.72 12.67 13.31 12.77 13.39s1.19.56 3.77-1.81z" fill="#42361a"/><path d="M62.18 58.61s-.84-1-1.85-2-2.12-2.05-2.12-2.05 1.23 1.4 1.88 2.05 2.09 2 2.09 2zM46.85 42.67l-2.52-2.52s1.44 1.85 2.32 2.73 1.16.76.2-.2zm-2.17 3.79c-1.54-1.54-4-3.9-8.06-7.93q-3.13-3.14-6.39-6.16l-.19.19c1.09 1 5.74 5.5 8.29 8 2.9 2.9 7.82 7.51 9.13 8.57s3.83 3.27 5.75 5.19 3.95 3.7 3.95 3.7-3.29-3.38-4.75-4.84-5.95-5-7.73-6.77zm-1-6.81l-5.07-5.07-5.24-5.28c.62.7 3 3.35 5.12 5.48q2.51 2.52 5.22 4.87zM37.52 36l2.31 2.29c.8.81 2.5 2.64 2.92 3.06 1.68 1.68 2.83 2.72 4.81 4.71s6.87 7.06 7.85 8c1.65 1.65 3.92 4 5.08 5.19s3.78 3.67 5.11 5 3.1 3 4.27 4.2 4.37 3.89 4.37 3.89-5.07-5-6.89-6.82-4.11-3.86-5.24-5c-1.57-1.52-4.11-4.27-5.49-5.6s-1.73-1.57-2-1.86-3.06-3.2-3.8-3.94-7.21-7.32-8.41-8.52-2.45-2.42-3-2.92-1.38-1.55-1.91-2.09-1.46-1.34-2.09-2-2.25-2.18-3.27-3.2l-.35.33c1.74 1.69 2.82 2.41 3.48 3.07s1.83 1.78 2.23 2.19zm3.95 6.81c1.23 1.24 6.39 5.89 6.39 5.89s-3.53-3.36-5.31-5.15-4-4.08-6.12-6.21c-1.78-1.78-4.68-4.72-5.59-5.63l-.27.28c1.2 1.14 5.14 4.89 6.29 6 1.36 1.36 3.37 3.56 4.61 4.79zM67.63 67c-1.28-1.28-2.54-2.4-3.67-3.53s-4.38-4.51-4.38-4.51 3.32 3.78 4.54 5 2.11 1.83 3.57 3.3 3.68 3.77 4.55 4.65c.71.7 2.27 1.94 2.84 2.38 0-.06.11-.11.16-.16-.73-.64-3-2.66-4-3.67-1.24-1.25-2.33-2.22-3.61-3.46zM72 68.24l-3.49-3.51c-.48-.47-2.17-1.79-2.17-1.79s1.17 1.27 1.49 1.59 2.11 1.8 3.44 3.13c1.14 1.14 4.18 4.24 5 5.09a4.17 4.17 0 0 0 .29-.44c-.86-.76-3.9-3.4-4.58-4.08zM40.16 39.71c-1.39-1.43-3.08-3.3-3.68-3.91-1.38-1.38-4.1-3.74-5.08-4.7l-.16.15c1 1 4 3.77 5.85 5.64 1.21 1.21 3.1 2.79 3.1 2.79zM39 39.17C40.54 40.68 51.69 51.59 53.12 53s3.06 3.2 3.9 4l3.16 3.23s-3.13-3.54-4.94-5.35-6.24-6.36-8.33-8.42C45.41 45 39 39.16 39 39.16z" fill="#261e0f"/><path d="M57.13 61.76c-2.07-2.07-6.07-5.85-7.81-7.59-.28-.29-3.79-3.72-4.54-4.46s-7.21-6.61-8.4-7.81-2.54-2.82-3.05-3.32-1.46-1.63-2-2.17-1.33-1.41-2-2.07a1.91 1.91 0 0 0-.47-.38l-.08.07a2.6 2.6 0 0 0 .42.52c.69.69 1.58 1.78 2 2.19l2.56 2.52c.81.81 2.34 2.57 2.75 3 1.69 1.68 3 2.56 5 4.55l7.68 7.7c1.66 1.65 4.08 3.72 5.24 4.88s3.79 3.92 5.12 5.24 3.08 3.16 4.26 4.34 4.38 4.17 4.38 4.17c-4.88-5-4.73-5.12-6.43-6.82s-3.48-3.42-4.6-4.55zm10.81 8.68c-1.66-1.66-2.9-3-4.66-4.74s-3.74-3.6-5.28-5.15-6-5.84-6-5.84 4.41 4.63 6.1 6.3 3 3.06 5.05 5.06 5.06 5.15 6.26 6.34c1 1 3.84 3.57 3.84 3.57l.45-.37s-3.25-2.69-5.74-5.17zM34.46 38.89c1.44 1.55 10.59 10 11.9 11.39s7.21 6.9 7.21 6.9-4-4-5.88-6-9.14-8.37-11.41-10.8S30 34 30 34l-.35.28s3.36 3.09 4.8 4.64zm36.35 36.8a27.17 27.17 0 0 0-2.21-2.08 24.62 24.62 0 0 0 1.92 2.24c.4.36.86.83 1.14 1.1l.34-.16a8.87 8.87 0 0 1-1.19-1.1zM46.89 47.76l1 .92-1-.94zm4.18 4.56a1.9 1.9 0 0 1 0-.34c-1.38-1.18-3.25-2.72-4.74-4h-.19c.57.52 1 .92 1.32 1.16.86.7 2.23 1.88 3.62 3.15zm.26-1.32l-3.52-3.59a1.94 1.94 0 0 1-.3.13l3.73 3.67.09-.2zM35.78 31.71l-2.41-2.41c.35.38 1.22 1.35 2.29 2.51l.13-.11zm16 18.46l-1-1.05L48.67 47l-.14.06 3.2 3.29.1-.14zM33.6 34.49l-2.73-2.76-.24.31 2.89 2.75c0-.1 0-.2.08-.3zm1-1.69l-2.45-2.39-.34.31c1.11 1.09 2 1.77 2.6 2.3l.19-.23zm-1.18 2.59c-1.48-1.43-2.59-2.46-3.11-3l-.16.22 3.31 3.19a2.28 2.28 0 0 1 0-.45zm.48-1.61c0-.08.1-.17.15-.25-1.07-1-2.12-1.91-2.65-2.43l-.11.1-.07.08c.51.5 1.53 1.46 2.66 2.54z" fill="none"/><path d="M33.91 13a38.83 38.83 0 0 1 4.42 3.92 39.94 39.94 0 0 1 3.92 4.42v1.52L22.86 42.25h-1.52a54.76 54.76 0 0 1-4.42-3.92A38.6 38.6 0 0 1 13 33.91V32.4L32.4 13z"/><path d="M33.66 13.82h-.92L13.81 32.74v.92a37.14 37.14 0 0 0 3.68 4.09 36.56 36.56 0 0 0 4.11 3.69h.91l18.93-18.92v-.92a37.25 37.25 0 0 0-3.69-4.1 37.14 37.14 0 0 0-4.09-3.68z" fill="none"/><path d="M33.66 13.82h-.92L13.81 32.74v.92a37.14 37.14 0 0 0 3.68 4.09 36.56 36.56 0 0 0 4.11 3.69h.91l18.93-18.92v-.92a37.25 37.25 0 0 0-3.69-4.1 37.14 37.14 0 0 0-4.09-3.68z" fill="url(#a)"/><path d="M40.74 22.27s-5.31 5.66-9.06 9.41-9.41 9.06-9.41 9.06a20.06 20.06 0 0 1-4.37-3.38A20 20 0 0 1 14.52 33s5.31-5.66 9.06-9.41 9.4-9 9.4-9a23.35 23.35 0 0 1 4.3 3.41 23.13 23.13 0 0 1 3.46 4.27z" fill="#181818"/><path d="M22.27 40.74a20.06 20.06 0 0 1-4.37-3.38A20 20 0 0 1 14.52 33l-.7-.25v.91a35.78 35.78 0 0 0 3.68 4.11 38.36 38.36 0 0 0 4.11 3.68h.91zm19.17-18.22v-.92a37.25 37.25 0 0 0-3.69-4.1 36.44 36.44 0 0 0-4.1-3.68h-.91l.24.7a23 23 0 0 1 4.3 3.48 23.67 23.67 0 0 1 3.46 4.29l.7.25z" fill="none"/><path d="M26.6 28.31l-.22.22-.18-.18.63-.63.18.18-.22.22 1.14 1.14-.19.19-1.14-1.14zm1.15-.25l-.87-.38.2-.2.53.25-.25-.54.2-.2.39.88 1 .42-.2.21-.62-.29.29.61-.2.2-.43-1zm-.08-1.18l.33-.28a.46.46 0 0 1 .34-.16c.13 0 .24.07.39.23a.58.58 0 0 1 .21.32.4.4 0 0 1-.13.41l-.09.1.51.52-.19.19-1.32-1.32zm.82.43l.1-.08c.15-.16.06-.25-.08-.38s-.22-.23-.38-.08l-.09.1.45.45z"/><path d="M26.6 28.15l-.22.22-.18-.18.63-.63.18.18-.22.22 1.14 1.15-.19.19zm1.15-.25l-.87-.38.2-.2.53.25-.25-.57.21-.2.37.88 1 .42-.2.2-.64-.3.28.61-.2.2-.42-1zm-.08-1.19l.29-.28a.45.45 0 0 1 .34-.15.6.6 0 0 1 .4.22.72.72 0 0 1 .21.33.43.43 0 0 1-.14.41l-.09.09.51.52L29 28zm.82.45l.09-.1c.16-.15.07-.24-.07-.38s-.23-.23-.38-.07l-.13.09z"/><path d="M26.6 28.23l-.22.22-.18-.18.63-.63.18.18-.22.22 1.14 1.15-.19.18-1.14-1.13zm1.16-.23l-.88-.38.2-.2.54.25-.25-.54.2-.21.38.89 1 .42-.2.2-.62-.28.29.61-.2.2zm-.08-1.18l.28-.28a.46.46 0 0 1 .34-.16c.13 0 .24.07.4.23a.64.64 0 0 1 .21.32.4.4 0 0 1-.14.41l-.09.1.51.51-.19.19-1.32-1.34zm.82.44l.09-.09c.15-.16.06-.25-.08-.38s-.22-.23-.38-.08l-.09.1zM19.46 74.6a26.34 26.34 0 0 1-3.2-4L18 68.83a7.73 7.73 0 0 0 3-1.62l36.08-36.12c2.3-2.3 4.7-7.37 4.7-7.37l6.35-6.35 1.66-1.12L78 24.46l-1.12 1.66-6.35 6.34s-5.07 2.41-7.37 4.71L27 73.29a7.65 7.65 0 0 0-1.61 2.95L23.67 78a32.8 32.8 0 0 1-4.21-3.4z"/><path d="M68.65 18l-6.12 6.12s-1.45 6.32-3.77 8.65L57.53 34l2.71 2.71 1.24-1.22c2.32-2.33 8.64-3.78 8.64-3.78l6.13-6.11-7.6-7.6z" fill="#cfcece"/><path d="M60.25 36.71l1.11 1.11 1.23-1.23c2.32-2.33 7.54-4.88 7.54-4.88s-6.32 1.45-8.65 3.77z" fill="#6b6b6b"/><path d="M56.43 32.88L57.54 34l1.22-1.23c2.33-2.33 3.77-8.64 3.77-8.64s-2.55 5.2-4.87 7.54z" fill="#fff"/><path d="M57.62 33.91l-35 35a10.26 10.26 0 0 1-2.88 2l3.61 3.6a10.23 10.23 0 0 1 2-2.88l35-35-2.71-2.72z" fill="#ffe038"/><path d="M17.32 70.67A30.44 30.44 0 0 0 20 74a38.11 38.11 0 0 0 3.54 2.91l-6.26-6.26z"/><path d="M76.25 25.6l.7-1-7.27-7.3-1 .7" fill="#fff"/><path d="M25.57 68.09l-.17.17-.13-.14.47-.47.14.13-.17.17.87.87-.15.14-.87-.86zm.32-.59l.43-.43.13.13-.28.29.29.29.25-.25.13.13-.24.25.29.3.29-.29.14.15-.43.42-1-1zm1.22-.27l-.67-.23.15-.15.41.15-.19-.41.15-.16.28.68.74.32-.16.15-.46-.21.22.46-.16.15-.33-.73zm.25-.94l-.16.18-.14-.14.48-.47.13.13-.16.17.86.86-.14.15-.87-.87zm.32-.59l.22-.21a.34.34 0 0 1 .26-.12c.1 0 .18 0 .3.17a.49.49 0 0 1 .16.24.35.35 0 0 1-.11.32l-.07.07.39.39-.14.15-1-1zm.63.33l.07-.07c.12-.11.05-.19-.05-.28s-.17-.18-.28-.06l-.08.07zm.14-1.1l.12-.11 1.23.78-.14.14-.27-.17-.19.19.17.26-.15.15-.78-1.24zm.35.23l.29.44.14-.15-.43-.29zm.3-.6l-.16.16-.14-.13.48-.48.13.14-.16.16.87.87-.14.14-.88-.86zm.56-.56l-.17.17-.13-.17.47-.47.13.13-.16.17.86.87-.14.14zm.32-.6l.43-.42.13.13-.29.29.3.29.25-.24.13.13-.25.25.3.29.28-.29.15.15-.44.43-1-1zm.61-.6l.23-.23a.35.35 0 0 1 .55 0 .37.37 0 0 1 .13.38l.61.3-.15.16-.57-.29-.08.08.43.44-.15.14-1-1zm.59.3l.08-.08c.1-.1.06-.17 0-.27s-.18-.15-.29 0l-.08.08.32.31zm.09-1l.14-.14.82.39-.61-.61.15-.14 1 1-.13.14-.83-.39.6.61-.14.14-1-1z" fill="#ffd531"/><path d="M25.57 68.22l-.17.17-.13-.13.47-.48.14.14-.17.16.87.87-.15.14-.87-.86zm.32-.59l.43-.44.13.14-.28.29.29.29.25-.25.13.13-.24.21.29.3.29-.29.14.15-.43.42-1-1zm1.22-.26l-.67-.29.16-.15.4.19-.19-.42.15-.15.29.67.73.32-.14.16-.47-.21.22.46-.16.16-.33-.74zm.25-.94l-.16.16-.14-.13.48-.47.13.13-.16.17.86.86-.14.15-.87-.87zm.32-.59l.22-.22a.34.34 0 0 1 .26-.12c.1 0 .18 0 .3.17a.47.47 0 0 1 .16.25.3.3 0 0 1-.11.31l-.07.07.4.39-.15.15-1-1zm.63.32l.07-.07c.12-.11.05-.19-.05-.28s-.17-.17-.28-.06l-.08.08zm.14-1.1l.12-.11 1.23.78-.14.14-.27-.17-.19.2.17.26-.14.14-.78-1.23zm.35.23l.29.44.14-.15-.43-.29zm.3-.6l-.16.16-.14-.14.48-.47.13.13-.16.17.87.87-.15.14-.87-.86zm.56-.56l-.17.17-.13-.13.47-.48.13.14-.16.17.87.87-.15.14zm.32-.59l.43-.43.13.13-.28.28.29.3.25-.25.13.13-.25.25.29.3.29-.29.14.15-.43.43-1-1zm.61-.61l.23-.23c.17-.17.36-.16.55 0a.34.34 0 0 1 .12.38l.62.3-.15.15-.57-.29-.08.08.43.43-.15.15-1-1zm.59.3l.08-.08c.1-.1.06-.17 0-.27s-.17-.14-.28 0l-.08.08zm.08-1l.14-.14.82.38-.6-.6.14-.14 1 1-.13.14-.83-.38.6.6-.14.14-1-1z" fill="#ffd531"/><path d="M25.57 68.16l-.17.16-.14-.13.48-.48.13.14-.16.17.87.87-.15.14-.87-.86zm.32-.6l.43-.43.13.13-.28.29.29.3.25-.25.13.14-.24.26.29.29.29-.29.14.15-.42.43-1-1zm1.22-.26l-.67-.3.16-.15.4.19-.19-.41.15-.15.29.67.73.32-.15.15-.47-.21.22.46-.16.15-.33-.73zm.25-.94l-.16.17-.14-.13.48-.48.13.13-.17.17.87.87-.14.14-.87-.87zm.32-.59l.22-.21a.34.34 0 0 1 .26-.12c.1 0 .18 0 .3.17a.49.49 0 0 1 .16.24.31.31 0 0 1-.11.32l-.06.07.39.39-.14.14-1-1zm.63.33l.07-.07c.12-.12.05-.19-.05-.28s-.17-.18-.28-.06l-.08.07zm.14-1.1l.12-.12 1.23.78-.14.14-.27-.17-.19.19.17.26-.15.14-.77-1.22zm.35.23l.29.44.14-.15zm.3-.61l-.16.16-.14-.13.48-.48.13.13-.16.17.86.86-.14.15-.87-.87zm.56-.56l-.17.17-.13-.14.47-.48.13.14-.16.16.87.87-.15.14-.86-.86zm.32-.59l.43-.43.13.13-.28.29.29.29.25-.25.13.14-.25.25.3.29.28-.28.15.14-.43.44-1-1zm.61-.61l.23-.23c.17-.17.36-.15.55 0a.36.36 0 0 1 .13.38l.61.3-.15.15-.56-.29-.09.09.43.42-.15.15-1-1zm.59.31l.08-.09c.1-.1.06-.17 0-.27s-.18-.14-.29 0l-.08.08.32.31zm.09-1l.14-.14.82.39-.61-.61.15-.14 1 1-.13.14-.82-.38.6.6-.15.15z" fill="#ffd531"/><path d="M22.25 75.6l1.11-1.11 1.33 1.33-1.11 1.11z" fill="#432c14"/><path d="M18.65 72l-1.33-1.32 1.11-1.11 1.33 1.32z" fill="#f9efbd"/><path d="M23.36 74.49l-1.11 1.11-3.6-3.6 1.11-1.11z" fill="#ffd637"/><path d="M61.44 37.74l-1.11-1.11-35 35a10.26 10.26 0 0 0-2 2.88l1.33 1.33a7.47 7.47 0 0 1 1.78-3.11l35-35z" fill="#4e3517"/><path d="M56.51 32.8l-35 35a7.54 7.54 0 0 1-3.11 1.78l1.33 1.33a10.52 10.52 0 0 0 2.89-2l35-35-1.11-1.11z" fill="#fffcc4"/></svg>