<svg xmlns="http://www.w3.org/2000/svg" width="91" height="91"><path d="M16.83 26.84l.34-.06a34.35 34.35 0 0 0 4.69-.78c1.46-.34 2.95-.7 4.46-1.08-.07.95-.16 1.84-.25 2.69s-.2 1.68-.31 2.51-.25 1.68-.39 2.53-.29 1.76-.44 2.71c-.19 1.13-.41 2.26-.65 3.37s-.53 2.16-.84 3.17a26 26 0 0 1-1 2.77 12 12 0 0 1-1.25 2.18.45.45 0 0 0-.12.31.23.23 0 0 0 .15.21.76.76 0 0 0 .37.07c.47 0 .92-.33 1.36-1A12.52 12.52 0 0 0 24.12 44a28.54 28.54 0 0 0 1-3.29c.29-1.18.53-2.29.74-3.31.4-2.11.7-4.21.91-6.32s.39-4.21.54-6.34c1.35-.32 2.74-.62 4.17-.89a35.32 35.32 0 0 1 4.68-.56.82.82 0 0 0 .37-.1 2.16 2.16 0 0 0 .36-.22 2 2 0 0 0 .3-.27.4.4 0 0 0 .13-.26c0-.11-.12-.17-.37-.17h-.11a35.77 35.77 0 0 0-4.84.61c-1.59.31-3.18.65-4.76 1s-3.17.7-4.76 1a35.77 35.77 0 0 1-4.84.61.89.89 0 0 0-.38.11 3.62 3.62 0 0 0-.41.27 1.93 1.93 0 0 0-.35.35.6.6 0 0 0-.14.35c-.02.15.14.25.47.27zm14.98 15.07c0-.21.09-.51.16-.9s.13-.79.18-1.22.12-.85.17-1.27a7.29 7.29 0 0 0 .09-1c0-.06 0-.08-.11-.08a1.31 1.31 0 0 0-.6.24.85.85 0 0 0-.46.58c-.21 1.48-.46 2.91-.76 4.31s-.59 2.6-.86 3.62a1.27 1.27 0 0 1 0 .32 1.27 1.27 0 0 0 0 .34c0 .09.11.14.34.14a2.28 2.28 0 0 0 .71-.14c.26-.1.41-.2.43-.31a10.75 10.75 0 0 1 .38-1.74 7.86 7.86 0 0 1 .6-1.42 7.2 7.2 0 0 1 .84-1.25A11.31 11.31 0 0 1 34 40.91c.19-.17.44-.37.74-.59a9 9 0 0 1 1-.64 6.46 6.46 0 0 1 1.14-.5A3.76 3.76 0 0 1 38 39a2.88 2.88 0 0 1 .78.1 2.35 2.35 0 0 0 .53.1c.07 0 .11 0 .11-.09V39a.81.81 0 0 0-.55-.44 3.19 3.19 0 0 0-1-.13 7 7 0 0 0-3.26.87 7.83 7.83 0 0 0-2.8 2.61zm5.92 3.47a1.54 1.54 0 0 0 .4 1.16 1.28 1.28 0 0 0 1 .4 3.62 3.62 0 0 0 1.55-.42 15.57 15.57 0 0 0 1.68-1 17 17 0 0 0 1.42-1l.84-.69a10.51 10.51 0 0 0 .09 1.37 3.85 3.85 0 0 0 .29 1.2 2.26 2.26 0 0 0 .71.87 2 2 0 0 0 1.22.33 5.17 5.17 0 0 0 1.94-.44A16.08 16.08 0 0 0 51 46.07a18.58 18.58 0 0 0 1.94-1.36c.15-.12.3-.23.43-.35a2.71 2.71 0 0 0 .87 2.07 3.09 3.09 0 0 0 2.17.8 7.09 7.09 0 0 0 2.42-.47 17.14 17.14 0 0 0 2.46-1.14 16.74 16.74 0 0 0 2.13-1.41l.79-.63a3.32 3.32 0 0 0 0 .38 7.48 7.48 0 0 0 .15.76 3 3 0 0 0 .44 1 2.79 2.79 0 0 0 .94.89 2.92 2.92 0 0 0 1.6.39 6.7 6.7 0 0 0 2.25-.41 13.07 13.07 0 0 0 2.17-1 17.82 17.82 0 0 0 1.92-1.29c.59-.46 1.08-.87 1.48-1.25v-.06a.29.29 0 0 0-.11-.19.39.39 0 0 0-.23-.1.18.18 0 0 0-.14.06c-.38.32-.84.68-1.38 1.07a16.64 16.64 0 0 1-1.72 1.08 11.25 11.25 0 0 1-1.89.82 6.06 6.06 0 0 1-1.92.33 1.86 1.86 0 0 1-1-.24 2.08 2.08 0 0 1-.65-.6 2.93 2.93 0 0 1-.39-.74 2.31 2.31 0 0 1-.13-.67 2 2 0 0 1 .4-.41c.25-.24.55-.51.88-.84l1-1a5.34 5.34 0 0 0 .68-.81 3 3 0 0 0 .52-1.45 1.09 1.09 0 0 0-.32-.8 1.22 1.22 0 0 0-.88-.31 2.33 2.33 0 0 0-1.22.41 4.79 4.79 0 0 0-1.21 1.14 6.76 6.76 0 0 0-.93 1.68 5.58 5.58 0 0 0-.34 1.49 13.31 13.31 0 0 1-1.39 1 13.9 13.9 0 0 1-2 1.1 11.11 11.11 0 0 1-2 .72 8.08 8.08 0 0 1-2.06.26 2 2 0 0 1-1.53-.64 2.32 2.32 0 0 1-.46-1.49 5.29 5.29 0 0 1 .26-1.68 5.14 5.14 0 0 1 .6-1.22 4 4 0 0 1 .65-.79l.43-.37a2.13 2.13 0 0 1 .71-.42 2 2 0 0 1 .68-.12 1.73 1.73 0 0 1 1 .27 1.42 1.42 0 0 0 .56.27c.09 0 .18-.06.28-.2a.86.86 0 0 0 .11-.19.24.24 0 0 0 0-.15.46.46 0 0 0-.2-.34 2.77 2.77 0 0 0-.49-.32 3.24 3.24 0 0 0-.66-.26 2.47 2.47 0 0 0-.7-.1 2.83 2.83 0 0 0-1.29.34 5 5 0 0 0-1.38 1.22 9.78 9.78 0 0 0-.72 1 7.88 7.88 0 0 0-.58 1.11 8 8 0 0 0-.44 1.21v.13c-.31.29-.69.62-1.16 1s-1 .78-1.51 1.14a12.5 12.5 0 0 1-1.61.92 3.42 3.42 0 0 1-1.49.38 1.58 1.58 0 0 1-1.27-.61A3.52 3.52 0 0 1 46 44a6.17 6.17 0 0 1 .22-1.57c.16-.57.33-1.13.52-1.66s.37-1 .54-1.42a6.07 6.07 0 0 0 .31-.92.62.62 0 0 0-.48-.17.8.8 0 0 0-.73.37 3.88 3.88 0 0 0-.33.6 1.68 1.68 0 0 0-1.45-.68 4.35 4.35 0 0 0-2.17.69 11 11 0 0 0-2.22 1.75 11.51 11.51 0 0 0-1.74 2.25 4.41 4.41 0 0 0-.74 2.14zm27.91-3.16a2.59 2.59 0 0 1 .18-.74l.26-.64a4.94 4.94 0 0 1 .41-.79 3.07 3.07 0 0 1 .56-.67 1 1 0 0 1 .71-.29.54.54 0 0 1 .4.15.36.36 0 0 1 .08.25 1.27 1.27 0 0 1-.11.46c-.08.17-.16.34-.26.51a3.15 3.15 0 0 1-.3.47 1.94 1.94 0 0 1-.27.32l-.85.93a11.9 11.9 0 0 1-.88.87c.02-.27.04-.54.07-.83zm-25.85 1.27A10.66 10.66 0 0 1 41 41.58 8.58 8.58 0 0 1 42.49 40a2.58 2.58 0 0 1 1.58-.67 1.24 1.24 0 0 1 1.17.91 3.4 3.4 0 0 1-.49 1.35 10.24 10.24 0 0 1-.88 1.27 7.79 7.79 0 0 1-1 1c-.35.3-.64.54-.87.71a8.44 8.44 0 0 1-1.32.81 2.18 2.18 0 0 1-.84.24c-.34 0-.51-.2-.51-.59a4 4 0 0 1 .46-1.54z"/><path d="M36.41 56.19c.17-.94.32-1.88.43-2.82s.19-1.85.24-2.73.07-1.71.07-2.49a21.84 21.84 0 0 0-.21-3.42c-.14-.85-.35-1.27-.61-1.27a1.85 1.85 0 0 0-.54.26c-.21.13-.32.26-.32.4a.11.11 0 0 0 0 .08 2.52 2.52 0 0 1 .42 1.27 18.63 18.63 0 0 1 .11 2.29v2c0 .74-.09 1.42-.15 2.14s-.12 1.44-.21 2.16-.18 1.42-.3 2.08c-.15.95-.35 2-.61 3a23.1 23.1 0 0 1-1 3.09 13.48 13.48 0 0 1-1.4 2.73 6 6 0 0 1-1.94 1.9 2.09 2.09 0 0 1-.64.27 2.85 2.85 0 0 1-.64.07 2.38 2.38 0 0 1-1.86-.75 4.7 4.7 0 0 1-1-1.8 10.06 10.06 0 0 1-.41-2.12c-.07-.72-.11-1.29-.13-1.73-.06-.8-.09-1.6-.09-2.42s0-1.4.06-2.09.09-1.39.17-2.09c0 0-.06-.08-.17-.08a2.25 2.25 0 0 0-.72.14 1.26 1.26 0 0 0-.53.25l-2.82 4.77c-.94 1.6-1.91 3.16-2.94 4.68-.24.36-.52.75-.82 1.16a12.32 12.32 0 0 1-.85 1.15 6.76 6.76 0 0 1-.93.88 1.38 1.38 0 0 1-.8.34c-.17 0-.32-.21-.45-.64a4.65 4.65 0 0 1-.2-1.38 28.31 28.31 0 0 1 .24-3.68c.16-1.22.35-2.44.56-3.65s.42-2.43.65-3.65.41-2.42.54-3.64c0-.28.08-.63.13-1a10.19 10.19 0 0 0 .07-1.24 2.54 2.54 0 0 0-.81-2.18 3.21 3.21 0 0 0-2-.58 8.16 8.16 0 0 0-2.24.33 11.91 11.91 0 0 0-2.29.89 13.23 13.23 0 0 0-2.15 1.37 12.5 12.5 0 0 0-1.82 1.73h.17a3.89 3.89 0 0 0 .67-.07 1.12 1.12 0 0 0 .58-.24 6.33 6.33 0 0 1 1.1-1 17.35 17.35 0 0 1 1.67-1.14 13.41 13.41 0 0 1 1.9-.94 5 5 0 0 1 1.79-.38 1.61 1.61 0 0 1 1.45.71 4.09 4.09 0 0 1 .45 2.16 13.91 13.91 0 0 1-.12 1.82c-.09.61-.17 1.19-.25 1.74-.13 1-.3 2-.51 3s-.41 2-.6 3.07-.35 2-.49 3.09a21.37 21.37 0 0 0-.22 3.08 5.51 5.51 0 0 0 .37 2.35 1.34 1.34 0 0 0 1.28.69 2.92 2.92 0 0 0 1.51-.42 7.06 7.06 0 0 0 1.34-1.08 14.5 14.5 0 0 0 1.16-1.41l1-1.44c.79-1.13 1.56-2.28 2.3-3.44s1.47-2.33 2.19-3.52q-.09 1.19-.09 2.55a26.43 26.43 0 0 0 .18 3.06 11.81 11.81 0 0 0 .67 2.85 5.38 5.38 0 0 0 1.25 2 2.84 2.84 0 0 0 2.08.78 4.91 4.91 0 0 0 3-.92 8.69 8.69 0 0 0 2.15-2.32 14.67 14.67 0 0 0 1.47-3c.37-1.06.68-2 .91-2.92s.38-1.75.55-2.69zm49 8.94a1.29 1.29 0 0 0-.48.2c-.21.11-.45.26-.73.43s-.56.33-.86.48-.62.28-.94.4a2.92 2.92 0 0 1-.94.17 1.79 1.79 0 0 1-1-.32 3.08 3.08 0 0 1-.81-.8 5.31 5.31 0 0 1-.65-1.07c-.17-.4-.33-.76-.46-1.11a11.22 11.22 0 0 1-.37-1.29 8.45 8.45 0 0 0-.35-1.22 2.37 2.37 0 0 0-.53-.86 1.22 1.22 0 0 0-.92-.33 2 2 0 0 0-1.15.33 4.78 4.78 0 0 0-.93.83 9.8 9.8 0 0 0-.79 1.09c-.25.39-.49.77-.71 1.14.09-.36.2-.84.34-1.43l.44-1.94c.16-.72.33-1.46.51-2.25s.37-1.55.58-2.29c.8-2.92 1.44-5.24 1.94-7a32 32 0 0 0 .91-3.84.08.08 0 0 0-.09-.09.59.59 0 0 0-.3.13 3.25 3.25 0 0 0-.38.31 3.33 3.33 0 0 0-.36.39.87.87 0 0 0-.18.34c-.29.91-.6 2-1 3.24l-1.11 4c-.39 1.39-.79 2.82-1.18 4.29s-.77 2.88-1.11 4.24c-.27 1.07-.52 2.07-.76 3a13.4 13.4 0 0 1-1.18.88A13.73 13.73 0 0 1 68 66.25a10.94 10.94 0 0 1-2 .73 8.61 8.61 0 0 1-2.06.26 2 2 0 0 1-1.54-.64 2.39 2.39 0 0 1-.45-1.5 5.35 5.35 0 0 1 .25-1.75 5.14 5.14 0 0 1 .6-1.22 4.6 4.6 0 0 1 .65-.78l.35-.35a2.28 2.28 0 0 1 .71-.43 2.35 2.35 0 0 1 .68-.11 1.73 1.73 0 0 1 1 .27 1.42 1.42 0 0 0 .56.27.38.38 0 0 0 .28-.2 1.76 1.76 0 0 0 .12-.2.22.22 0 0 0 0-.14.46.46 0 0 0-.2-.34 2.41 2.41 0 0 0-.5-.33 3.94 3.94 0 0 0-.66-.26 2.74 2.74 0 0 0-.69-.1 2.85 2.85 0 0 0-1.3.35A4.66 4.66 0 0 0 62.41 61a8.76 8.76 0 0 0-.73 1 8.27 8.27 0 0 0-.62 1.13 8.05 8.05 0 0 0-.45 1.21c0 .12-.06.24-.08.36a.4.4 0 0 0-.2.08c-.26.15-.62.38-1.08.67s-.95.59-1.49.9a13.74 13.74 0 0 1-1.65.78 4.16 4.16 0 0 1-1.49.33 1.31 1.31 0 0 1-1-.42 2.12 2.12 0 0 1-.37-1.4 16.25 16.25 0 0 1 .19-2.49c.12-.85.28-1.69.47-2.55l1.6-.15 2-.23q1-.14 1.68-.3c.47-.11.71-.23.71-.34s-.07-.21-.22-.3a.69.69 0 0 0-.35-.13 24.091 24.091 0 0 1-2.52.31l-1.31.12-1.5.06c0-.11.07-.33.14-.67s.16-.7.24-1.11.17-.8.25-1.18a5.19 5.19 0 0 0 .11-.88c0-.09-.06-.14-.17-.14s-.43.15-.6.46a4.84 4.84 0 0 0-.44 1.09c-.12.43-.23.87-.33 1.34s-.17.86-.23 1.18l-1.64.1c-.54 0-1 .06-1.45.1a7.11 7.11 0 0 0-1 .14c-.26.06-.4.14-.4.25a.53.53 0 0 0 .2.39.59.59 0 0 0 .34.18c.55 0 1.15 0 1.78-.08l2-.14a6.48 6.48 0 0 0-.19.71c-.09.36-.18.78-.27 1.28s-.16 1-.24 1.53h-.16a.91.91 0 0 0-.36.2c-.3.28-.69.63-1.16 1s-1 .78-1.51 1.14a12.59 12.59 0 0 1-1.61.93 3.61 3.61 0 0 1-1.49.38 1.58 1.58 0 0 1-1.27-.61 3.54 3.54 0 0 1-.54-2.11 6.23 6.23 0 0 1 .22-1.57c.16-.57.33-1.12.52-1.65s.37-1 .54-1.43a6.05 6.05 0 0 0 .31-.91.59.59 0 0 0-.48-.17.8.8 0 0 0-.73.37 3.45 3.45 0 0 0-.33.59 1.71 1.71 0 0 0-1.45-.68 4.27 4.27 0 0 0-2.17.7 10.68 10.68 0 0 0-2.22 1.75 11.75 11.75 0 0 0-1.74 2.24 4.47 4.47 0 0 0-.69 2.19 1.58 1.58 0 0 0 .4 1.17 1.31 1.31 0 0 0 1 .4 3.64 3.64 0 0 0 1.55-.43 14.07 14.07 0 0 0 1.68-1 17 17 0 0 0 1.42-1c.41-.34.69-.57.84-.68a10.35 10.35 0 0 0 .09 1.36 3.84 3.84 0 0 0 .34 1.23 2.15 2.15 0 0 0 .71.86 2 2 0 0 0 1.22.33 5.17 5.17 0 0 0 1.94-.44 14.85 14.85 0 0 0 2.03-1.1 18.65 18.65 0 0 0 2-1.37c.38-.29.71-.57 1-.82v.73a3.43 3.43 0 0 0 .19 1.27 2 2 0 0 0 .49.76 1.76 1.76 0 0 0 .7.37 3.52 3.52 0 0 0 .81.1 5.13 5.13 0 0 0 1.68-.29 12.86 12.86 0 0 0 1.73-.78c.55-.3 1-.61 1.48-.91l1-.68a1.37 1.37 0 0 0 .38-.38v.29a2.75 2.75 0 0 0 .87 2.11 3.09 3.09 0 0 0 2.18.79 6.85 6.85 0 0 0 2.41-.47 15.28 15.28 0 0 0 2.46-1.14 17.59 17.59 0 0 0 2.14-1.4l.4-.32c-.28 1.11-.5 2.05-.64 2.79a.22.22 0 0 0 .14.21.71.71 0 0 0 .34.07 1.58 1.58 0 0 0 .54-.11.53.53 0 0 0 .34-.29 23.38 23.38 0 0 1 1.69-3.35c.68-1.1 1.37-2.15 2.09-3.13.19-.27.37-.4.54-.4s.33.17.47.51a11 11 0 0 1 .43 1.21c.14.47.29.94.44 1.42a5.16 5.16 0 0 0 .48 1.15 5.58 5.58 0 0 0 1.57 1.88 3 3 0 0 0 1.73.57 4 4 0 0 0 2-.55 14.08 14.08 0 0 0 2.12-1.47c.28-.23.42-.38.4-.45a.08.08 0 0 0-.19-.04zm-42.6-2.37a10.93 10.93 0 0 1-.88 1.24 7.79 7.79 0 0 1-1 1c-.35.31-.64.54-.87.72a10.33 10.33 0 0 1-1.32.81 2.18 2.18 0 0 1-.84.24q-.51 0-.51-.6a4 4 0 0 1 .47-1.58A10.58 10.58 0 0 1 39 62.76a8.64 8.64 0 0 1 1.53-1.6 2.62 2.62 0 0 1 1.58-.66 1.24 1.24 0 0 1 1.17.91 3.52 3.52 0 0 1-.47 1.35z"/></svg>