<svg xmlns="http://www.w3.org/2000/svg" width="91" height="91"><path d="M29.39 26.93H26v8.84h-2.86v-8.84h-3.43V24.8h9.68z" fill="#ca4242"/><path d="M36.46 30h-.24a2.44 2.44 0 0 0-.54-.09h-.62a5.55 5.55 0 0 0-1 .08 4.91 4.91 0 0 0-.93.25v5.54h-2.67v-8.27h2.66v1.21a5.66 5.66 0 0 1 1.52-1 3.46 3.46 0 0 1 1.19-.24h.63zm9.47 1.64a4.31 4.31 0 0 1-1.19 3.22A4.55 4.55 0 0 1 41.4 36a4.58 4.58 0 0 1-3.34-1.17 4.35 4.35 0 0 1-1.19-3.22 4.32 4.32 0 0 1 1.2-3.23 4.57 4.57 0 0 1 3.33-1.17 4.56 4.56 0 0 1 3.35 1.18 4.33 4.33 0 0 1 1.18 3.25zm-3.26 2a2.11 2.11 0 0 0 .39-.76 4.91 4.91 0 0 0 .13-1.23 5 5 0 0 0-.13-1.23 2.24 2.24 0 0 0-.37-.78 1.21 1.21 0 0 0-.57-.43 2 2 0 0 0-.72-.13 2 2 0 0 0-.68.11 1.29 1.29 0 0 0-.57.41 2.25 2.25 0 0 0-.39.79 4.82 4.82 0 0 0-.14 1.26 5.11 5.11 0 0 0 .12 1.17 2.09 2.09 0 0 0 .37.8 1.39 1.39 0 0 0 .57.42 2.07 2.07 0 0 0 1.43 0 1.26 1.26 0 0 0 .56-.41zm12.92 2.13h-2.66v-.91a7.78 7.78 0 0 1-1.34.85 3.35 3.35 0 0 1-1.46.29 2.72 2.72 0 0 1-2.1-.79 3.23 3.23 0 0 1-.74-2.32v-5.38H50v4.1a10.24 10.24 0 0 0 0 1 1.87 1.87 0 0 0 .19.69.82.82 0 0 0 .42.4 2.11 2.11 0 0 0 .79.12 2.4 2.4 0 0 0 .75-.12 3.42 3.42 0 0 0 .8-.37v-5.82h2.65zm10.66-4.25a4.67 4.67 0 0 1-1.08 3.19 3.44 3.44 0 0 1-2.69 1.23 4.89 4.89 0 0 1-1.21-.15 4 4 0 0 1-1-.43l-.11.41h-2.55V24.31h2.67v4.05a6.68 6.68 0 0 1 1.24-.79 3.52 3.52 0 0 1 1.47-.3 2.83 2.83 0 0 1 2.41 1.13 5.16 5.16 0 0 1 .85 3.12zm-2.74.06a3.2 3.2 0 0 0-.37-1.7 1.46 1.46 0 0 0-1.34-.6 2.88 2.88 0 0 0-.77.12 2.64 2.64 0 0 0-.75.33v4.14a2.52 2.52 0 0 0 .54.14 4.3 4.3 0 0 0 .62 0 2 2 0 0 0 1.56-.58 2.8 2.8 0 0 0 .51-1.85zm6.83 4.19h-2.66V24.31h2.66zm10.16-3.64h-6.07a2 2 0 0 0 .74 1.49 3.35 3.35 0 0 0 2 .51 4.53 4.53 0 0 0 1.63-.3 5.24 5.24 0 0 0 1.24-.65h.29v2.13a9.73 9.73 0 0 1-1.69.52 8.67 8.67 0 0 1-1.76.16 5.76 5.76 0 0 1-3.82-1.12 3.94 3.94 0 0 1-1.32-3.19A4.26 4.26 0 0 1 73 28.44a4.76 4.76 0 0 1 3.44-1.2 4.08 4.08 0 0 1 3 1 4 4 0 0 1 1 2.94zm-2.64-1.56a1.84 1.84 0 0 0-.41-1.25 1.59 1.59 0 0 0-1.21-.42 1.93 1.93 0 0 0-1.27.4 1.68 1.68 0 0 0-.55 1.27z" fill="#4485bf"/><path d="M29.49 40.83H26v9h-2.89v-9h-3.49v-2.16h9.87z" fill="#ca4242"/><path d="M35.57 40.21h-2.86v-2.05h2.86zm-.08 9.64h-2.71v-8.43h2.72zm8.66.23a7.23 7.23 0 0 1-2-.26 4.52 4.52 0 0 1-1.61-.82 3.74 3.74 0 0 1-1-1.39 4.84 4.84 0 0 1-.37-1.95 4.91 4.91 0 0 1 .4-2 3.81 3.81 0 0 1 1.1-1.42 4.39 4.39 0 0 1 1.58-.77 6.77 6.77 0 0 1 1.85-.25 6.19 6.19 0 0 1 1.6.18 7.63 7.63 0 0 1 1.36.49v2.31h-.38l-.38-.32a3.94 3.94 0 0 0-.55-.35 3.24 3.24 0 0 0-.67-.27 2.78 2.78 0 0 0-.86-.11 2.08 2.08 0 0 0-1.66.68 2.86 2.86 0 0 0-.58 1.87 2.59 2.59 0 0 0 .6 1.85 2.22 2.22 0 0 0 1.69.63 2.88 2.88 0 0 0 .92-.12 2.68 2.68 0 0 0 1.13-.59c.13-.11.25-.21.36-.32H47v2.31a7.82 7.82 0 0 1-1.33.48 6.22 6.22 0 0 1-1.52.14zm15.32-.23h-3.15L54 46.18l-.73.91v2.77h-2.76v-11.7h2.71v7l2.91-3.72h3.12l-3 3.63zm11.09-3.72h-6.19a2 2 0 0 0 .75 1.52 3.39 3.39 0 0 0 2 .53 4.7 4.7 0 0 0 1.66-.31 5.54 5.54 0 0 0 1.28-.66h.3v2.17a9.6 9.6 0 0 1-1.73.53 9.07 9.07 0 0 1-1.8.17A5.88 5.88 0 0 1 63 48.94a4 4 0 0 1-1.35-3.26 4.35 4.35 0 0 1 1.28-3.31 4.88 4.88 0 0 1 3.51-1.22 4.24 4.24 0 0 1 3.1 1 4.08 4.08 0 0 1 1 3zm-2.69-1.58a2 2 0 0 0-.42-1.28 1.56 1.56 0 0 0-1.24-.42 2 2 0 0 0-1.28.4 1.71 1.71 0 0 0-.57 1.3zm11.76 5.23a7.1 7.1 0 0 1-.92.17 9.66 9.66 0 0 1-1.2.07 3.62 3.62 0 0 1-2.35-.64 2.72 2.72 0 0 1-.77-2.19v-3.94h-1.11v-1.83h1.12V39h2.71v2.42h2.52v1.83h-2.52V47a2 2 0 0 0 .12.6.91.91 0 0 0 .38.42 1.56 1.56 0 0 0 .77.15 3.05 3.05 0 0 0 1-.25h.22zM19.25 60h-6.06a1.89 1.89 0 0 0 .74 1.49 3.24 3.24 0 0 0 2 .52 4.51 4.51 0 0 0 1.62-.3 5.31 5.31 0 0 0 1.26-.71h.29v2.12a9.2 9.2 0 0 1-1.69.53 8.83 8.83 0 0 1-1.77.16 5.72 5.72 0 0 1-3.81-1.12 4 4 0 0 1-1.33-3.19 4.27 4.27 0 0 1 1.26-3.25 4.84 4.84 0 0 1 3.45-1.19 4.11 4.11 0 0 1 3 1 4 4 0 0 1 1 2.94zm-2.63-1.55a1.82 1.82 0 0 0-.42-1.25 1.57 1.57 0 0 0-1.2-.44 2 2 0 0 0-1.26.39 1.67 1.67 0 0 0-.55 1.28z" fill="#4485bf"/><path d="M30.84 63.63h-3.28L25.2 60l-2.41 3.6h-3.11l3.89-5.52-3.81-5.45H23l2.28 3.42 2.35-3.42h3.13L27 58z" fill="#ca4242"/><path d="M41.36 59.38a5.41 5.41 0 0 1-.36 1.87 3.81 3.81 0 0 1-.82 1.38 3.46 3.46 0 0 1-1.2.87 3.53 3.53 0 0 1-1.43.3 4.4 4.4 0 0 1-1.2-.16 6 6 0 0 1-1-.42v3.45h-2.63V55.36h2.66v.86a6.16 6.16 0 0 1 1.24-.78 3.44 3.44 0 0 1 1.47-.31 2.83 2.83 0 0 1 2.4 1.14 5 5 0 0 1 .87 3.11zm-2.74.06a2.87 2.87 0 0 0-.41-1.75 1.51 1.51 0 0 0-1.3-.55 2.87 2.87 0 0 0-.77.11 3.43 3.43 0 0 0-.76.33v4.16a2.15 2.15 0 0 0 .57.13h.59a2 2 0 0 0 1.57-.61 2.85 2.85 0 0 0 .51-1.85zm10.89-1.55h-.24a2.44 2.44 0 0 0-.54-.09h-.62a6.63 6.63 0 0 0-1 .07 6.24 6.24 0 0 0-.94.26v5.54h-2.66v-8.31h2.66v1.21a5.91 5.91 0 0 1 1.52-1 3.46 3.46 0 0 1 1.19-.24h.63zM59.67 60H53.6a1.92 1.92 0 0 0 .74 1.49 3.28 3.28 0 0 0 2 .52 4.53 4.53 0 0 0 1.63-.3 5.24 5.24 0 0 0 1.25-.71h.3v2.12a9.3 9.3 0 0 1-1.7.53 9.46 9.46 0 0 1-1.76.17 5.77 5.77 0 0 1-3.81-1.12 4 4 0 0 1-1.33-3.2 4.26 4.26 0 0 1 1.26-3.24 4.8 4.8 0 0 1 3.45-1.2 4.11 4.11 0 0 1 3 1 4 4 0 0 1 1 2.94zM57 58.43a1.82 1.82 0 0 0-.41-1.25 1.6 1.6 0 0 0-1.22-.42 2 2 0 0 0-1.26.39 1.71 1.71 0 0 0-.55 1.28zM69 61a2.38 2.38 0 0 1-1.15 2.06 5.45 5.45 0 0 1-3.14.79 8.47 8.47 0 0 1-2-.21 7.29 7.29 0 0 1-1.44-.45V61h.24l.46.31a4.52 4.52 0 0 0 .74.35 6.41 6.41 0 0 0 .94.3 5.19 5.19 0 0 0 1.12.12 2.81 2.81 0 0 0 1.15-.18.54.54 0 0 0 .38-.51.5.5 0 0 0-.2-.39 3.22 3.22 0 0 0-.84-.26l-.8-.14a9.37 9.37 0 0 1-.92-.19 3.26 3.26 0 0 1-1.67-.91 2.29 2.29 0 0 1-.54-1.55 2.37 2.37 0 0 1 1.13-2 5.27 5.27 0 0 1 3.09-.79 8.22 8.22 0 0 1 1.78.19 7.82 7.82 0 0 1 1.33.4v2.09h-.23a5.25 5.25 0 0 0-1.35-.65 4.67 4.67 0 0 0-1.53-.25 2.66 2.66 0 0 0-1.08.17c-.29.12-.44.28-.44.5a.55.55 0 0 0 .2.45 2.52 2.52 0 0 0 .94.31c.27.06.56.11.87.16s.63.11.94.19a2.92 2.92 0 0 1 1.55.85A2.2 2.2 0 0 1 69 61zm9.28 0a2.38 2.38 0 0 1-1.15 2.06 5.42 5.42 0 0 1-3.14.79 8.47 8.47 0 0 1-2-.21 7.29 7.29 0 0 1-1.44-.45V61h.24l.46.31a4.52 4.52 0 0 0 .74.35 6.41 6.41 0 0 0 .94.3 5.19 5.19 0 0 0 1.12.12 2.78 2.78 0 0 0 1.15-.18.53.53 0 0 0 .38-.51.5.5 0 0 0-.22-.44 3.22 3.22 0 0 0-.84-.26l-.8-.14a9.37 9.37 0 0 1-.92-.19 3.23 3.23 0 0 1-1.67-.92 2.28 2.28 0 0 1-.55-1.55 2.36 2.36 0 0 1 1.13-2 5.32 5.32 0 0 1 3.09-.79 8.15 8.15 0 0 1 1.78.19 7.56 7.56 0 0 1 1.33.4v2.09h-.22a5.25 5.25 0 0 0-1.35-.65 4.67 4.67 0 0 0-1.53-.25 2.69 2.69 0 0 0-1.08.17c-.29.12-.43.28-.43.5a.52.52 0 0 0 .2.45 2.45 2.45 0 0 0 .93.31c.27.06.56.11.87.16s.63.11.94.19a2.93 2.93 0 0 1 1.54.85 2.16 2.16 0 0 1 .5 1.49z" fill="#4485bf"/></svg>