<svg xmlns="http://www.w3.org/2000/svg" width="91" height="91"><path d="M81.56 56.6a17.44 17.44 0 0 1-3.06-.4v-1.7a19.28 19.28 0 0 0 3 .36c1.19 0 2-1 2-2.81 0-2.13-.35-3.25-2-3.25h-1.93v-1.7h1.68c1.89 0 2-1.94 2-2.87 0-1.84-.59-2.59-1.76-2.59a15.59 15.59 0 0 0-2.87.39v-1.69a14.32 14.32 0 0 1 2.83-.4c2.4 0 3.78 1 3.78 4.5 0 1.59-.56 3-1.8 3.44 1.42.09 2.08 1.65 2.08 3.94 0 3.48-1.35 4.78-3.94 4.78m-10.74-15c-2.1 0-2.8 1.42-2.8 6.56s.7 6.69 2.8 6.69 2.8-1.68 2.8-6.69-.7-6.56-2.8-6.56m0 15c-3.86 0-4.88-2.8-4.88-8.52 0-5.49 1-8.15 4.88-8.15s4.88 2.66 4.88 8.15c0 5.72-1 8.52-4.88 8.52m-11.63-15a16 16 0 0 0-2.19.15v6.81h2.19c1.31 0 2.22-.86 2.22-3.4 0-2.34-.56-3.55-2.22-3.55m-.2 8.67h-2v6.15h-2V40.1s2-.17 4-.17c3.55 0 4.58 2.2 4.58 5.07 0 3.55-1.22 5.28-4.54 5.28M48.4 48.86v7.58h-2.1v-7.59l-4.18-8.75h2.23l3.09 6.6 3.08-6.6h2.12zm-10.89-7v14.57h-2V41.87h-3.62v-1.78h9.22v1.78z"/><path d="M22.1 49.7a3.28 3.28 0 0 1-.94.13c-2.82 0-7-9.86-7-13.15 0-1.2.28-1.61.69-2C11.43 35.13 7.3 36.4 6 38a3.19 3.19 0 0 0-.46 1.84C5.5 45 11 56.59 14.83 56.59c1.78 0 4.79-2.93 7.27-6.9m-1.8-15.31c3.57 0 7.14.57 7.14 2.59 0 4.09-2.59 9-3.91 9-2.36 0-5.3-6.57-5.3-9.85 0-1.49.58-1.78 2.07-1.78" fill="#ff8700"/></svg>