<svg xmlns="http://www.w3.org/2000/svg" xmlns:xlink="http://www.w3.org/1999/xlink" width="80" height="80"><defs><linearGradient id="a" x1="12.14" y1="50.86" x2="12.14" y2="63.55" gradientUnits="userSpaceOnUse"><stop offset="0" stop-color="gray"/><stop offset="1"/></linearGradient><linearGradient id="b" x1="24.42" y1="46.16" x2="24.42" y2="63.55" xlink:href="#a"/><linearGradient id="c" x1="32.03" y1="46.16" x2="32.03" y2="63.55" xlink:href="#a"/><linearGradient id="d" x1="41.63" y1="50.86" x2="41.63" y2="67.59" xlink:href="#a"/><linearGradient id="e" x1="54.97" y1="50.86" x2="54.97" y2="63.55" xlink:href="#a"/><linearGradient id="f" x1="67.9" y1="50.85" x2="67.9" y2="63.55" xlink:href="#a"/><radialGradient id="g" cx="51.6" cy="15.97" r="31" gradientUnits="userSpaceOnUse"><stop offset="0" stop-color="#c0d91f"/><stop offset="1" stop-color="#017a3a"/></radialGradient><linearGradient id="h" x1="-569.01" y1="-24.71" x2="-589.32" y2="-4.4" gradientTransform="rotate(180 -272.175 7.02)" gradientUnits="userSpaceOnUse"><stop offset="0" stop-color="#0157a7"/><stop offset="1" stop-color="#00aee9"/></linearGradient></defs><path d="M16.19 50.86h2.66L13 63.55h-2L5.43 50.86h2.73l3.89 9.41z" stroke="#3e3e40" stroke-miterlimit="10" stroke-width=".13" fill="url(#a)"/><path d="M22.53 46.16h2.53v4.7h3.67v2h-3.67v6.68c0 1.77.23 2 2.19 2h1.48v2h-2.42c-2.87.05-3.78-.86-3.78-3.8v-6.88h-2.42v-2h2.42z" stroke="#3e3e40" stroke-miterlimit="10" stroke-width=".13" fill="url(#b)"/><path d="M30.77 46.16h2.53v2.64h-2.53zm2.53 4.7v12.69h-2.53V50.86z" stroke="#3e3e40" stroke-miterlimit="10" stroke-width=".13" fill="url(#c)"/><path d="M47.58 62.12c0 3.26 0 3.54-.65 4.33-.83.88-2 1.17-4.46 1.14h-5.42v-2h5.81c2 0 2.22-.16 2.19-2h-2.71c-2.55 0-3.13-.1-4.19-.73-1.62-1-2.48-2.81-2.48-5.34a7.52 7.52 0 0 1 1.62-5c1.06-1.22 2.32-1.61 5.05-1.61h5.24zm-5-9.26c-2.06 0-2.82.26-3.45 1.2a7.16 7.16 0 0 0-.8 3.42 5.29 5.29 0 0 0 .88 3.07c.6.76 1.31 1 2.92 1h3v-8.69z" stroke="#3e3e40" stroke-miterlimit="10" stroke-width=".13" fill="url(#d)"/><path d="M60.12 58h-7.61a3.51 3.51 0 0 0 .89 2.68c.6.63 1.2.78 3.07.83h3.65v2H55.8c-2.19 0-3.21-.28-4.18-1.14a6.56 6.56 0 0 1-1.79-5c0-2.66.93-4.61 2.76-5.71a7 7 0 0 1 3.88-.88h3.65v2h-3.28c-2.71 0-3.89.81-4.33 3.16h7.61z" stroke="#3e3e40" stroke-miterlimit="10" stroke-width=".13" fill="url(#e)"/><path d="M66 50.86c3.55 0 7.08-.37 7.08 3.57v1.62H70.7l-.07-1.63C70.61 52.57 68 53 66.25 53h-1v10.55h-2.52V50.86z" stroke="#3e3e40" stroke-miterlimit="10" stroke-width=".13" fill="url(#f)"/><path d="M39.47 9.74a10.16 10.16 0 0 0-8.95 5.34m23.23 16.68a6.84 6.84 0 0 0 0-13.67m-24.4 2.85a10.18 10.18 0 0 0 10.12 9.14" fill="none"/><path d="M53.13 16.72a10.47 10.47 0 0 0-1.6.13 12.91 12.91 0 0 0-23.65-1.1 8.53 8.53 0 0 1 3 1.07A9.73 9.73 0 0 1 49 19.74c.1.62.6 1.11 1.25.72a5.57 5.57 0 0 1 2.83-.76 6.55 6.55 0 0 1 0 13.09A6.39 6.39 0 0 1 47 28.72c-.24-.53-.81-.11-1.16.16-2.54 1.93-3.86 2.3-6.37 2.3a9.73 9.73 0 0 1-9.68-8.74 7.1 7.1 0 0 0-3.17-1.59v.57a12.89 12.89 0 0 0 12.89 12.9 12.76 12.76 0 0 0 6.27-1.63 9.7 9.7 0 1 0 7.4-16z" stroke="#098c45" stroke-miterlimit="10" stroke-width=".196" fill="url(#g)"/><path d="M25.72 35.8a10.57 10.57 0 0 0 1.6-.13A12.9 12.9 0 0 0 51 36.77a8.34 8.34 0 0 1-3-1.07 9.73 9.73 0 0 1-18.15-2.92c-.1-.62-.6-1.11-1.25-.71a5.59 5.59 0 0 1-2.83.75 6.55 6.55 0 0 1 0-13.09 6.39 6.39 0 0 1 6.14 4.07c.24.53.81.11 1.16-.16 2.54-1.93 3.86-2.3 6.36-2.3a9.74 9.74 0 0 1 9.69 8.75 7.08 7.08 0 0 0 3.17 1.58v-.57a12.9 12.9 0 0 0-12.9-12.9 12.76 12.76 0 0 0-6.27 1.63 9.7 9.7 0 1 0-7.4 16z" stroke="#1878b3" stroke-miterlimit="10" stroke-width=".196" fill="url(#h)"/></svg>