<svg xmlns="http://www.w3.org/2000/svg" width="91" height="91"><circle cx="45.5" cy="45.5" r="40" fill="#eab53f"/><path d="M66 38l-40.25-.16V67.3a2.7 2.7 0 0 0 2.64 2.7h34.89A2.68 2.68 0 0 0 66 67.31z" fill="#e6e7e8"/><path d="M66 38l-40.25-.16V67.3a2.7 2.7 0 0 0 2.64 2.7h29.44c1.55-1.56 6.83-7 8.13-8.31z" fill="#d1d3d4"/><path d="M65.88 43.91l-2.69 1.51-3-3.36-2.51 1.18-2.18-1.18-3.69 2.52-2.35-2.52-3 1.69-3.85-1.69L39 44.24l-1.3-2.18-1.51 1.68L34 42.57l-5.2 1.17-3.1-.67V67.3a2.69 2.69 0 0 0 2.69 2.7h29.44v-5.63c0-1.68 1-2.69 2.18-2.69H66z" fill="#fff"/><rect x="23.11" y="25.96" width="45.45" height="15.26" rx="2.35" fill="#d95141"/><path d="M35.52 32.17v-8.39a2.1 2.1 0 0 0-2-2.18 2.18 2.18 0 0 0-2.18 2.18v8.39a2.09 2.09 0 0 0 2 2.17 2.17 2.17 0 0 0 2.18-2.17zm24.65 0v-8.39a2.1 2.1 0 0 0-2-2.18A2.18 2.18 0 0 0 56 23.78v8.39a2.09 2.09 0 0 0 2 2.17 2.16 2.16 0 0 0 2.17-2.17zM44.49 62.44v-2.85H38v-1.51a1.18 1.18 0 0 1 1.17-1.18h1.52a4.18 4.18 0 0 0 4.19-4.18 4 4 0 0 0-3.86-4h-5.2v2.68h4.87a1.44 1.44 0 0 1 1.51 1.34 1.34 1.34 0 0 1-1.34 1.34H39.3a4 4 0 0 0-4 3.86v4.53zm2.02 0h5.7a4.36 4.36 0 0 0 0-8.72h-2.69l.34-2.35h5.87v-2.69h-8.38l-.84 7.89h5.7a1.52 1.52 0 0 1 0 3h-5.7z" fill="#414042"/></svg>